<?xml version="1.0" encoding="UTF-8" standalone="no"?>
<svg
   version="1.1"
   width="653.59375"
   height="502.74796"
   id="svg112"
   sodipodi:docname="fleau.svg"
   inkscape:version="1.1.2 (0a00cf5339, 2022-02-04)"
   xmlns:inkscape="http://www.inkscape.org/namespaces/inkscape"
   xmlns:sodipodi="http://sodipodi.sourceforge.net/DTD/sodipodi-0.dtd"
   xmlns="http://www.w3.org/2000/svg"
   xmlns:svg="http://www.w3.org/2000/svg">
  <defs
     id="defs116" />
  <sodipodi:namedview
     id="namedview114"
     pagecolor="#ffffff"
     bordercolor="#666666"
     borderopacity="1.0"
     inkscape:pageshadow="2"
     inkscape:pageopacity="0.0"
     inkscape:pagecheckerboard="0"
     showgrid="false"
     showguides="true"
     inkscape:guide-bbox="true"
     inkscape:zoom="1.28"
     inkscape:cx="319.14063"
     inkscape:cy="228.90625"
     inkscape:window-width="1920"
     inkscape:window-height="1026"
     inkscape:window-x="1920"
     inkscape:window-y="0"
     inkscape:window-maximized="1"
     inkscape:current-layer="layer1" />
  <path
     d="m -61.189362,-27.23543 c 257.070002,0 514.140002,0 779.000002,0 0,179.18999 0,358.37999 0,542.99999 -257.07,0 -514.14,0 -779.000002,0 0,-179.19 0,-358.38 0,-542.99999 z"
     fill="#f6f0e6"
     id="path2"
     style="opacity:0" />
  <g
     inkscape:groupmode="layer"
     id="layer1"
     inkscape:label="Layer 1"
     style="display:inline"
     transform="translate(-62.40625,-26.591105)">
    <path
       id="rect1065"
       style="fill:#383f3e;fill-opacity:1"
       d="m 310.375,60.175781 c -11.08,0 -20,8.92 -20,20 V 251.25195 c 0,11.08 8.92,20 20,20 h 139.29102 c 1.03505,-0.90122 2.06422,-1.79236 3.0996,-2.54297 4.95648,-3.57803 4.95664,-3.57828 10.56055,-6.1582 7.5585,-3.58324 9.91164,-7.04617 14.4375,-13.9375 2.72182,-4.32131 5.40804,-8.63825 8.36524,-12.80273 4.64768,-6.50424 13.46173,-20.72808 15.29882,-27.03125 0,0 0.0275,-4.41018 0.0234,-11.82227 V 80.175781 c 0,-11.08 -8.92,-20 -20,-20 z m 79.54492,38.980469 c 0.86226,0.0022 1.72344,0.01204 2.58594,0.02734 13.8,-0.244895 27.58013,1.18829 41.03516,4.26758 8.78995,2.18844 19.11114,4.15747 18.7832,17.14258 -0.47417,17.94476 -0.10969,35.89046 -0.36524,53.83594 0.0916,2.96003 -0.60037,5.89151 -2.00586,8.49804 -13.09726,23.96563 -31.57631,44.56516 -53.98242,60.18165 -1.0392,0.83974 -2.31269,1.33669 -3.64648,1.42187 -1.33379,-0.0852 -2.60728,-0.58213 -3.64649,-1.42187 -22.40611,-15.61649 -40.88515,-36.21602 -53.98242,-60.18165 -1.40548,-2.60653 -2.09743,-5.53801 -2.00586,-8.49804 0,-17.94548 0.47418,-35.89118 0,-53.83594 -0.32865,-12.98511 9.9945,-14.95414 18.78516,-17.14258 12.61342,-2.88683 25.51141,-4.327982 38.44531,-4.294924 z" />
    <path
       id="rect1065-7"
       style="fill:#383f3e;fill-opacity:1"
       d="m 82.40625,288.0332 c -11.08,0 -20,8.92 -20,20 v 171.07618 c 0,11.07999 8.92,20 20,20 h 171.07617 c 11.08,0 20,-8.92001 20,-20 V 308.0332 c 0,-11.08 -8.92,-20 -20,-20 z m 63.94727,37.8418 h 44.86718 c 1.00675,0 1.97375,0.39953 2.68555,1.11133 0.7118,0.7118 1.11133,1.6788 1.11133,2.68555 v 40.41601 c 0,0.40634 0.15962,0.79589 0.44336,1.08594 0.28374,0.29004 0.67053,0.45769 1.07617,0.46679 h 40.44922 c 0.50442,10e-6 1.00551,0.10016 1.4707,0.29493 0.46519,0.19546 0.88519,0.48239 1.23828,0.84179 0.3538,0.36011 0.63201,0.78522 0.81836,1.25391 0.18636,0.46869 0.27864,0.97019 0.26953,1.47461 V 420.375 c 0,1.00675 -0.39883,1.9718 -1.11132,2.68359 -0.7118,0.7125 -1.67811,1.11329 -2.68555,1.11329 h -40.44922 c -0.40564,0.009 -0.79243,0.17675 -1.07617,0.46679 -0.28374,0.29075 -0.44336,0.6796 -0.44336,1.08594 v 40.34766 c 0,1.00744 -0.39953,1.97179 -1.11133,2.68359 -0.7118,0.7125 -1.6788,1.11328 -2.68555,1.11328 h -44.86718 c -1.00675,0 -1.97375,-0.40078 -2.68555,-1.11328 -0.7118,-0.7118 -1.11328,-1.67615 -1.11328,-2.68359 v -40.41602 c 0,-0.41195 -0.16238,-0.80816 -0.45313,-1.09961 -0.29144,-0.29074 -0.68641,-0.45508 -1.09765,-0.45508 h -40.41797 c -1.007448,0 -1.971799,-0.39953 -2.683596,-1.11133 -0.712499,-0.71179 -1.113282,-1.67684 -1.113282,-2.68359 V 375.4375 c 0,-1.00745 0.400783,-1.97375 1.113282,-2.68555 0.711797,-0.7125 1.676148,-1.11133 2.683596,-1.11133 h 40.41797 c 0.41124,10e-6 0.80621,-0.16363 1.09765,-0.45507 0.29075,-0.29145 0.45313,-0.68571 0.45313,-1.09766 v -40.41601 c 0,-1.00675 0.40148,-1.97375 1.11328,-2.68555 0.7118,-0.7118 1.6788,-1.11133 2.68555,-1.11133 z" />
    <path
       id="rect1065-6"
       style="fill:#383f3e;fill-opacity:1"
       d="m 82.40625,60.175781 c -11.08,0 -20,8.92 -20,20 V 251.25195 c 0,11.08 8.92,20 20,20 h 171.07617 c 11.08,0 20,-8.92 20,-20 V 80.175781 c 0,-11.08 -8.92,-20 -20,-20 z m 37.71484,40.833989 c 0.35591,0 0.71196,0.0665 1.04883,0.19921 14.75559,6.59591 14.98438,28.13868 14.98438,28.13868 v 87.46484 h -32.33203 v -87.46484 c 0,0 0.34216,-21.6189 15.25,-28.13868 0.33687,-0.13268 0.69292,-0.19921 1.04882,-0.19921 z m 47.4336,0 c 0.3559,0 0.71195,0.0665 1.04883,0.19921 14.90783,6.59591 15.02148,28.13868 15.02148,28.13868 v 87.46484 h -32.37109 v -87.46484 c 0,0 0.34411,-21.6189 15.25195,-28.13868 0.33687,-0.13268 0.69292,-0.19921 1.04883,-0.19921 z m 47.58398,0 c 0.35555,0 0.71196,0.0665 1.04883,0.19921 14.90855,6.59591 15.02148,28.13868 15.02148,28.13868 v 87.46484 h -32.36914 v -87.46484 c 0,0 0.34412,-21.6189 15.25196,-28.13868 0.33687,-0.13268 0.69132,-0.19921 1.04687,-0.19921 z m -111.35156,128.3457 h 32.33203 v 13.6875 c 0,1.11271 -0.44165,2.17993 -1.22852,2.9668 -0.78615,0.78615 -1.85283,1.22851 -2.96484,1.22851 h -23.94336 c -1.11271,0 -2.17993,-0.44236 -2.9668,-1.22851 -0.78615,-0.78687 -1.22851,-1.85409 -1.22851,-2.9668 z m 47.58594,0 h 32.36914 v 13.6875 c -0.01,1.10916 -0.45355,2.17105 -1.23828,2.95508 -0.78403,0.78473 -1.84592,1.23027 -2.95508,1.24023 h -23.98242 c -1.11201,0 -2.17869,-0.44236 -2.96485,-1.22851 -0.78687,-0.78687 -1.22851,-1.85409 -1.22851,-2.9668 z m 47.57812,0 h 32.3711 v 13.6875 c 0,1.11271 -0.44236,2.17993 -1.22852,2.9668 -0.78687,0.78615 -1.85408,1.22851 -2.9668,1.22851 h -23.98242 c -1.112,0 -2.17868,-0.44236 -2.96484,-1.22851 -0.78687,-0.78687 -1.22852,-1.85409 -1.22852,-2.9668 z" />
    <g
       style="fill:none"
       id="g7508"
       transform="matrix(7.0984031,0,0,7.0984031,240.00753,21.073614)" />
    <g
       style="fill:none"
       id="g7522"
       transform="matrix(7.0058825,0,0,7.0058825,19.724846,248.80973)" />
    <g
       style="fill:none"
       id="g7551"
       transform="matrix(7.1145539,0,0,7.1145539,17.703605,22.749933)" />
    <path
       id="path4"
       d="M 565.87109 0 C 551.69665 0.08679941 538.46277 7.8867957 530.59375 21.408203 C 527.43449 29.306359 526.18873 37.12934 528.41406 45.490234 L 529.34375 48.595703 C 528.62415 60.666601 528.6239 60.667334 521.26562 71.185547 C 519.86289 73.437122 518.4643 75.691473 517.06836 77.947266 L 514.87891 81.486328 C 504.272 98.610556 493.91472 115.86625 483.76172 133.26367 C 481.74517 136.72227 479.72705 140.18163 477.70117 143.63477 C 471.81047 153.66059 465.96246 163.7031 460.29883 173.85938 C 450.47133 191.51116 440.34806 208.93931 429.45312 225.95898 C 428.48093 227.47172 427.53735 228.93996 426.59375 230.4082 C 425.64282 231.93156 424.71981 233.41012 423.79688 234.88867 C 422.89906 236.29781 422.02766 237.66551 421.15625 239.0332 C 418.99588 242.63939 418.99588 242.63939 416.59375 245.4082 C 407.5436 247.21824 401.02335 250.76429 394.59375 257.4082 C 389.91829 264.12918 389.39482 268.3619 389.65625 276.5332 C 390.09811 282.26245 390.10757 284.61632 386.9375 289.50195 C 380.77248 296.70408 380.77248 296.70408 368.20703 314.0957 C 367.06352 315.68945 365.95364 317.23633 364.84375 318.7832 C 362.74649 321.64806 360.66158 324.52203 358.59375 327.4082 C 357.3473 329.44416 356.08095 331.46831 354.78125 333.4707 C 350.03451 337.93406 348.78048 338.01379 342.53125 338.3457 C 339.88611 338.28169 337.23744 338.2997 334.59375 338.4082 C 325.7812 341.56603 319.66183 346.77357 313.98828 354.18164 C 313.17414 355.27867 312.38395 356.34344 311.59375 357.4082 C 308.65617 361.33657 305.71758 365.26461 302.82812 369.22852 C 301.08778 371.62562 299.34138 374.0164 297.59375 376.4082 C 295.78729 378.7301 293.99327 381.0618 292.21875 383.4082 C 287.61432 390.10169 287.87922 395.50858 289.03125 403.4082 C 290.46144 411.03587 291.18599 416.73347 288.15625 423.9707 C 285.08586 431.18911 284.68121 436.86541 286.65625 444.5332 C 293.44026 458.10122 308.63827 468.19591 322.59375 473.4082 C 330.52545 474.18203 335.95456 472.75802 342.59375 468.4082 C 345.92978 464.0161 347.82076 461.69791 353.05469 459.73633 C 357.91307 458.67042 362.75859 457.57504 367.59375 456.4082 C 380.61176 451.92281 380.61175 451.92281 394.3457 425.58203 C 395.00378 424.31168 395.64252 423.07869 396.28125 421.8457 C 403.75863 407.6246 410.90351 394.7765 406.15625 378.4707 C 404.34377 373.75824 402.75284 370.39915 404.78711 365.58594 C 405.42137 364.58677 406.03673 363.61626 406.65234 362.64648 C 407.36164 361.50612 408.04984 360.39979 408.73828 359.29297 C 410.28895 356.87722 411.82871 354.45509 413.35742 352.02539 L 415.74219 348.2168 C 418.17884 344.34181 420.56314 340.46125 422.84375 336.49219 C 423.5792 335.17984 424.29399 333.90461 425.00781 332.63086 C 426.39324 330.18312 427.77616 327.73396 429.15625 325.2832 C 432.36175 319.36615 434.24304 314.29969 440.73438 311.83789 C 447.45328 311.08983 452.70988 307.25112 457.46875 302.5957 C 461.05435 297.21731 463.76058 293.11719 463.34766 286.41211 C 462.22019 272.63844 466.22602 265.4673 473.60156 254.42773 C 476.95871 249.45054 479.97138 244.36414 482.875 239.11133 C 487.42315 230.80687 492.05676 222.55782 496.84375 214.38867 C 502.14684 205.36307 507.37192 196.30208 512.46875 187.1582 C 518.74233 175.90153 525.11487 164.70403 531.51953 153.52148 C 533.5546 149.96974 535.58901 146.41785 537.61914 142.86328 C 545.5264 129.00596 553.40907 115.13344 561.42383 101.33789 C 563.15311 98.364773 564.88244 95.391707 566.59375 92.408203 L 569.28516 87.486328 L 571.59375 83.345703 L 573.46875 79.873047 C 575.45594 77.069289 575.45594 77.069289 579.11328 76.638672 C 580.29664 76.560313 581.4452 76.484253 582.59375 76.408203 C 587.19121 74.382203 588.61635 73.163853 593.59375 74.408203 C 595.78823 76.857905 595.78823 76.857905 597.59375 80.408203 C 598.86562 84.096638 600.20141 87.763536 601.59375 91.408203 C 603.60937 93.728061 605.61279 96.058687 607.59375 98.408203 C 607.50211 99.339218 607.41317 100.24285 607.32422 101.14648 C 605.15533 110.83107 604.52335 120.89399 603.95117 130.78516 C 603.8934 131.86875 603.83732 132.91899 603.78125 133.9707 C 603.41629 139.63576 603.24967 144.41755 605.14453 149.87305 C 607.00885 153.42627 607.00885 153.42627 605.59375 157.4082 C 600.62562 164.10195 598.25004 169.93523 596.22266 178.03711 L 595.21875 182.2832 C 592.57153 192.68918 589.3377 203.11006 593.09375 213.5957 C 593.60375 214.55195 594.09875 215.48008 594.59375 216.4082 L 592.59375 216.4082 C 585.51737 221.71549 585.51737 221.71549 577.82227 238.2168 C 576.79155 240.45971 576.79155 240.45971 575.78125 242.6582 C 571.2379 252.16754 567.43356 259.74507 568.59375 270.4082 L 569.59375 274.4082 C 568.89914 275.50922 568.22496 276.57785 567.55078 277.64648 C 566.54539 278.92547 565.56957 280.16684 564.59375 281.4082 C 562.49741 284.14338 560.39277 286.87222 558.28125 289.5957 C 555.10131 293.68369 552.0431 297.64066 549.42578 302.11133 C 548.25521 304.17792 547.03264 306.21644 545.74609 308.21289 C 542.97342 311.04092 541.04376 311.40443 537.15625 311.9707 C 534.96576 312.06117 532.77734 312.2124 530.59375 312.4082 C 526.42066 314.54618 526.42066 314.54618 521.59375 315.4082 C 518.40054 314.18151 515.78219 312.56528 512.91992 310.69531 C 510.90837 309.29388 508.88742 307.90583 506.85742 306.53125 C 505.85004 305.86652 504.87229 305.22135 503.89453 304.57617 C 501.24341 302.74097 501.24341 302.74097 498.59375 301.4082 C 492.59375 301.4082 492.59375 301.4082 489.34375 303.4707 C 485.56949 307.5023 484.84773 311.37629 484.16992 316.78711 C 484.084 317.96831 484.00137 319.11331 483.91797 320.25977 C 483.69988 322.85043 483.48781 325.4416 483.28125 328.0332 C 483.14021 330.03742 483.1402 330.03742 483.00195 332.00195 C 482.88839 333.30086 482.77819 334.56156 482.66797 335.82227 C 482.34125 340.13056 482.12363 341.83446 479.16211 345.05078 C 476.59399 347.40966 476.59375 347.4082 474.42969 351.73633 C 473.59297 353.40977 472.78086 355.03398 471.96875 356.6582 C 465.62542 367.11075 458.6003 369.70447 447.02734 372.73438 C 442.10444 373.99444 438.39042 374.80266 434.30469 377.9082 C 432.59375 380.4082 432.59375 380.4082 432.15625 384.0332 C 432.81963 389.15069 432.81963 389.15069 444.59375 398.4082 C 452.30993 404.06674 458.77541 408.40293 461.15625 418.0332 C 461.84097 421.70508 462.40669 424.97287 463.88281 428.4082 C 466.64613 433.59522 469.23479 437.54878 467.88086 443.58789 C 467.48698 444.79682 467.10495 445.96921 466.72266 447.14258 C 465.87828 449.81798 465.02235 452.48976 464.15625 455.1582 C 461.52049 463.2574 458.62757 470.7667 459.59375 479.4082 C 461.71875 482.4707 461.71875 482.4707 464.59375 484.4082 C 470.59375 484.4082 470.59448 484.40796 473.79492 483.50586 C 474.95529 483.08078 476.0808 482.66844 477.20703 482.25586 C 479.77669 481.33651 482.34301 480.40779 484.90625 479.4707 C 493.28136 476.40644 503.05311 471.3174 511.90625 474.6582 C 516.93362 477.04407 522.15337 478.34071 527.59375 479.4082 C 538.62235 480.0865 543.59701 482.24082 551.48828 490.20898 C 553.47639 492.25711 555.51256 494.26027 557.60547 496.20117 L 560.46875 498.6582 L 562.96094 500.86133 C 566.48492 502.9318 568.57007 503.03831 572.59375 502.4082 C 577.48138 499.33054 577.48138 499.33054 580.375 488.17969 C 581.21245 484.74653 582.06229 481.31821 582.94531 477.89648 C 585.61329 471.09426 585.61329 471.09426 592.34375 467.7207 C 594.82812 466.33398 594.82812 466.33398 597.59375 464.4082 C 598.48492 463.16641 599.34988 461.96113 600.21484 460.75586 C 608.70959 456.34359 608.70959 456.34359 618.61914 456.48633 C 622.16328 456.51773 625.70771 456.52527 629.25195 456.50977 C 631.81739 456.49407 631.81739 456.49402 634.33203 456.47852 C 637.95264 456.49712 641.32477 457.04269 644.59375 455.4082 C 647.50463 452.58294 648.51968 450.79878 649.28125 446.7832 C 648.3674 440.96779 648.3674 440.96779 641.59375 431.4082 C 635.56892 423.4288 629.50887 415.9937 627.51172 405.98633 C 627.26379 398.21409 627.19043 393.42996 631.72266 386.90039 C 634.28503 383.9269 636.77958 380.89348 639.19922 377.80273 C 641.00814 375.48881 641.00815 375.48881 642.78125 373.2207 L 646.38672 368.61523 L 649.59375 364.4082 C 652.01953 361.23242 652.01953 361.23242 653.59375 358.4082 C 653.59375 352.4082 653.59375 352.4082 650.59375 348.4082 C 645.59375 345.4082 645.59351 345.40894 641.9082 345.10352 C 640.46378 345.12902 639.06209 345.15303 637.66016 345.17773 C 634.49216 345.17913 631.32414 345.1939 628.15625 345.2207 C 624.99144 345.2858 621.82562 345.31473 618.66016 345.30273 C 612.71605 345.0109 611.33315 345.16394 607.05859 340.79492 C 606.22055 339.30344 605.40715 337.85582 604.59375 336.4082 C 599.10288 332.67668 595.97857 331.1091 594.48047 324.48242 C 594.48586 322.5778 594.49085 320.72946 594.49609 318.88086 C 594.46666 315.80363 594.44884 312.73152 594.48828 309.6543 C 594.51758 307.5197 594.53041 305.3848 594.52734 303.25 C 594.49414 296.96824 594.51401 290.68978 594.59375 284.4082 L 598.59375 283.4082 C 605.78789 278.28238 605.78789 278.28238 613.14844 261.94336 C 613.96038 260.09691 614.77534 258.25179 615.59375 256.4082 C 619.67416 247.8045 623.00963 240.69131 622.84375 231.0332 C 622.49703 227.50025 622.49703 227.50025 622.59375 224.4082 C 629.65381 217.34815 632.54284 210.52551 634.96484 200.97461 L 635.96875 196.7832 C 639.0017 185.14769 641.66548 173.37796 638.57227 161.47656 C 638.07836 159.92729 638.07787 159.9268 637.59375 158.4082 C 642.16896 153.83299 643.5389 150.5113 645.59375 144.4082 C 647.59623 131.58096 651.94738 109.10451 645.50781 97.720703 C 643.28992 94.606088 643.28992 94.606089 643.83594 91.384766 C 644.59375 88.408204 644.59375 88.408204 644.72656 85.119141 C 644.72396 83.984922 644.72135 82.884062 644.71875 81.783203 C 644.74476 70.623598 639.50428 61.061156 633.47266 51.916016 C 627.85153 44.41339 619.7884 38.447133 610.53125 36.595703 C 609.04781 36.501013 609.04781 36.501013 607.59375 36.408203 C 607.40625 33.533203 607.40625 33.533203 606.59375 29.408203 C 601.95333 18.439929 595.52119 10.844646 585.36719 4.8496094 C 578.95054 1.5147597 572.31402 -0.039454277 565.87109 0 z M 606.59375 53.408203 C 615.55862 55.201176 619.49556 59.949739 624.59375 67.408203 C 626.64879 71.922061 628.59375 76.381532 628.59375 81.408203 C 621.09375 84.408203 621.09375 84.408203 616.59375 84.408203 L 615.01953 81.119141 L 612.90625 76.783203 L 610.83203 72.494141 C 608.76454 68.364715 608.76454 68.364714 605.76172 65.197266 L 603.59375 62.408203 C 604.59375 57.408203 604.59375 57.408203 606.59375 53.408203 z M 621.59375 106.4082 L 633.59375 106.4082 L 630.59375 142.4082 C 622.59375 142.4082 622.59375 142.4082 618.59375 141.4082 C 619.02074 129.60986 619.6726 118.06319 621.59375 106.4082 z M 613.59375 170.4082 C 622.21875 171.2832 622.21875 171.2832 625.59375 172.4082 C 623.11653 183.79287 620.48468 195.12129 617.59375 206.4082 L 607.59375 204.4082 C 606.59088 199.39385 606.81931 197.38712 608.02734 192.57617 L 608.99414 188.66016 L 610.03125 184.5957 L 611.05664 180.47266 C 611.89301 177.11538 612.73903 173.76084 613.59375 170.4082 z M 596.59375 232.4082 C 599.95705 233.30225 603.29224 234.3077 606.59375 235.4082 C 608.46639 241.02611 604.22587 246.84662 601.90625 252.0332 L 600.25977 255.86914 L 598.64453 259.50977 L 597.16602 262.86523 C 595.59448 265.40967 595.59375 265.4082 591.59375 266.4082 C 588.89589 265.49569 586.22267 264.50359 583.59375 263.4082 C 584.91447 259.27353 586.4366 255.32083 588.19531 251.35352 L 589.67969 247.99414 L 591.21875 244.5332 L 592.78125 241.00195 C 594.04966 238.13629 595.32138 235.2721 596.59375 232.4082 z "
       transform="translate(62.40625,26.591105)"
       style="fill:#383f3e;fill-opacity:1" />
    <path
       d="m 0,0 c 15.834401,8.0654626 22.885125,18.402483 29,35 4.325472,16.941431 -1.783521,33.40536 -10,48 -1.617914,2.696524 -3.255656,5.383484 -5,8 -0.66,-0.33 -1.32,-0.66 -2,-1 0.5775,-1.0725 1.155,-2.145 1.75,-3.25 C 17.110759,79.655065 20,72.910122 20,65 18.906875,66.588125 17.81375,68.17625 16.6875,69.8125 2.002337,89.936612 -18.128962,101.03224 -42,107 c -16.288765,0.76792 -29.315371,0.19117 -43,-9 0.45375,0.9075 0.9075,1.815 1.375,2.75 1.208333,2.41667 2.416667,4.83333 3.625,7.25 -10.797771,-6.32065 -16.474171,-16.51704 -20.875,-27.8125 -4.10373,-17.127528 -1.89558,-36.559072 7.210938,-51.699219 6.131059,-9.167804 11.800661,-12.94844 21.703125,-17.597656 C -62.684291,6.4627186 -54.767996,0.41876615 -46.75,-5.9609375 -34.133152,-15.316044 -12.433664,-6.0082134 0,0 Z"
       fill="#778489"
       id="path14"
       transform="translate(639,363)" />
    <path
       d="m 0,0 c 13.523426,4.0570277 22.129977,8.5395391 29.9375,20.5 2.307187,5.033862 2.420839,6.276032 1.0625,11.5 -1.800496,3.17296 -3.732018,6.273222 -5.75,9.3125 -3.274502,4.956111 -6.203067,9.582631 -8.632813,15.011719 C 13.586973,61.7379 11.484268,63.062086 5.875,65.5 4.4699219,66.129063 3.0648438,66.758125 1.6171875,67.40625 -0.17332031,68.195156 -0.17332031,68.195156 -2,69 c -1.485,0.99 -1.485,0.99 -3,2 -5.643872,0.115181 -10.357049,-2.001327 -14.886719,-5.328125 C -24.481205,59.86295 -23.764945,52.101145 -24,45 c -0.193359,-1.046719 -0.386719,-2.093438 -0.585937,-3.171875 -0.993863,-6.638252 1.29676,-10.413812 5.143798,-15.822754 C -16.383662,21.928727 -13.201115,17.966013 -10,14 -8.2183153,11.654035 -6.4454296,9.3013179 -4.6875,6.9375 -3.9901172,6.0183984 -3.2927344,5.0992969 -2.5742188,4.1523437 -0.97874716,2.0967062 -0.97874716,2.0967062 0,0 Z"
       fill="#e6a03d"
       id="path22"
       transform="translate(415,381)" />
    <path
       d="m 0,0 c 7.3583178,2.5594149 11.519337,7.0386739 15,14 0.436604,7.858873 0.59033,13.291056 -4,20 -7.0614971,5.822638 -11.84181422,6.590851 -21,6 -6.939777,-3.421017 -10.58867,-7.177341 -14,-14 -0.636218,-6.140243 -0.94421,-11.971696 1.6875,-17.625 C -15.342573,1.2166965 -10.150331,-0.66197809 0,0 Z"
       fill="#393f3e"
       id="path24"
       transform="translate(582,413)" />
    <path
       id="path12"
       d="m 310.23047,288.0332 c -11.08,0 -20,8.92 -20,20 v 171.07618 c 0,11.07999 8.92,20 20,20 h 45.02148 C 348.82791,494.05846 343.28832,488.27777 339,481 c -4.85546,-9.8323 -6.25907,-21.56314 -3.02344,-32.21484 2.08586,-4.94504 3.07753,-7.42004 2.27344,-12.84766 -2.19804,-9.31488 -3.30298,-19.77451 1,-28.5 3.75,-4.4375 3.75,-4.43749 6.32812,-8.08203 2.00238,-2.89916 4.02565,-5.78397 6.06641,-8.65625 L 355,386 c 10.39312,-14.67989 20.30781,-30.44541 39.33594,-33.75391 6.54657,-0.89578 11.24053,-0.87432 16.10156,-5.55859 2.32799,-4.47471 2.32799,-4.47471 4.59375,-7.55078 l 2.40625,-3.26172 c 2.44491,-3.49701 4.88169,-6.98965 7.48242,-10.37305 1.396,-1.80643 2.77335,-3.62634 4.13477,-5.45898 L 431.125,317.25 c 4.12232,-5.14173 6.7351,-9.04952 7.16016,-15.78125 l -0.10157,-4.84961 c -0.0159,-0.97263 -0.0246,-5.07487 -0.0273,-8.58594 z"
       style="fill:#383f3e;fill-opacity:1" />
    <path
       d="m 0,0 c 4.7108443,0.70311109 7.3734545,1.7831622 11.1875,4.625 2.0625,2.9375 2.0625,2.9375 3,6 -2.154768,5.386921 -4.9873892,10.072594 -8,15 -1.5223213,2.540776 -3.0430731,5.082492 -4.5625,7.625 -3.0941122,5.158596 -6.2212538,10.291256 -9.4375,15.375 -5.164569,-2.065827 -10.026707,-4.513354 -15,-7 -1.65,-0.66 -3.3,-1.32 -5,-2 1.060177,-4.240709 2.549986,-6.674583 4.9375,-10.3125 0.806953,-1.233633 1.613906,-2.467266 2.445313,-3.738281 C -16.237609,19.24856 -12.037067,12.929016 -7.8125,6.625 -6.7954297,4.9427734 -6.7954297,4.9427734 -5.7578125,3.2265625 -3.8125,0.625 -3.8125,0.625 0,0 Z"
       fill="#976649"
       id="path26"
       transform="translate(522.8125,235.375)" />
    <path
       d="M 0,0 C 5.0501889,3.5233876 7.4125903,7.1877257 9.6875,12.875 10.076949,18.002745 10.322362,21.605277 8,26.25 3.681925,31.151599 0.62606693,33.744016 -5.9375,34.1875 -11.763108,33.848802 -14.551994,33.207354 -19.3125,29.875 -22.991439,24.94785 -25.093266,21.349846 -26,15.25 -24.950685,8.5725405 -22.432414,4.5376777 -17.125,0.375 -11.245098,-1.9384041 -5.9932032,-2.0354275 0,0 Z"
       fill="#383e3d"
       id="path28"
       transform="translate(641.3125,379.125)" />
    <path
       d="m 0,0 c 5.0944734,0.83515957 8.5242993,2.7872201 12.8125,5.625 3,5 3,5 3,10 -1.46875,2.402344 -1.46875,2.402344 -3.5,4.9375 -4.8404936,6.327217 -8.6723653,13.089283 -12.5,20.0625 -0.66,0 -1.32,0 -2,0 C -2.7662891,39.867031 -3.3450781,39.109062 -3.9414063,38.328125 -6.4613474,35.295431 -8.5895081,34.069183 -12.125,32.375 -13.144648,31.874844 -14.164297,31.374687 -15.214844,30.859375 -18.44632,29.4043 -18.44632,29.4043 -23.1875,28.625 c 4.181051,-8.362103 10.217822,-15.690454 16,-23 0.99,-1.5159375 0.99,-1.5159375 2,-3.0625 C -3.1875,0.625 -3.1875,0.625 0,0 Z"
       fill="#778489"
       id="path30"
       transform="translate(473.1875,310.375)" />
    <path
       d="m 0,0 c 8.6757774,1.652529 12.685059,5.8388933 17.9375,12.75 0.0717,5.664414 -2.997056,9.626149 -6,14.25 -0.9075,1.407656 -1.815,2.815312 -2.75,4.265625 -1.11375,1.724766 -1.11375,1.724766 -2.25,3.484375 -0.33,0.66 -0.66,1.32 -1,2 -5,-2 -5,-2 -8.5,-4.3125 -5.5929599,-3.34024 -11.383895,-5.496517 -17.5,-7.6875 1.101055,-5.505273 3.255812,-8.127439 6.820312,-12.351562 2.197203,-2.5884423 2.197203,-2.5884423 3.9843755,-5.2968755 C -6.4349725,2.9778746 -5.0289359,0.92841893 0,0 Z"
       fill="#78858a"
       id="path32"
       transform="translate(449.0625,344.25)" />
    <path
       d="m 0,0 c 8.0325179,4.1727365 13.815733,9.8842941 16.8125,18.5 0.709758,6.648881 1.191624,13.411168 -3,19 -0.99,0.33 -1.98,0.66 -3,1 C 10.304609,37.426211 9.7967188,36.352422 9.2734375,35.246094 2.1574905,20.425016 2.1574905,20.425016 -11.1875,11.5 c -6.211636,-2.0705453 -11.910018,-1.029994 -18,1 0.110071,-4.6230001 0.901142,-5.9011424 4.25,-9.25 C -16.895341,-2.6475832 -9.4076163,-2.7202746 0,0 Z"
       fill="#e8a33c"
       id="path34"
       transform="translate(637.1875,44.5)" />
    <path
       d="M 0,0 C 8.9053561,-1.1085505 14.940444,-0.87501474 22.25,4.6875 27.697722,9.2611474 31.254722,14.018888 33,21 31.718426,27.407872 28.961276,28.983729 24,33 20,29 20,29 17.125,24.9375 11.284952,17.579039 4.9182531,17.288192 -4,16 -4.5335206,9.7311335 -2.7496311,5.5851881 0,0 Z"
       fill="#77848a"
       id="path36"
       transform="translate(369,449)" />
    <path
       d="m 0,0 c 13.676533,7.2290247 13.676533,7.2290247 16.375,14.3125 0.666221,4.347967 0.473828,7.498634 0,12 -2.875,3.75 -2.875,3.75 -6,6 -0.66,0 -1.32,0 -2,0 -0.37125,-1.32 -0.7425,-2.64 -1.125,-4 C 3.8121942,19.145018 -0.69386933,14.469837 -9.4335938,10.433594 -14.230329,8.7485716 -18.554767,8.4459272 -23.625,8.3125 c 1,-5 1,-5 3.375,-7.25 C -13.901419,-3.1698874 -6.9644261,-2.5410744 0,0 Z"
       fill="#e7a13c"
       id="path40"
       transform="translate(492.625,289.6875)" />
    <path
       d="m 0,0 c 4.5587552,0.44840215 7.0878968,1.7458683 10.8125,4.375 2,4 2,4 1,9 -1.551566,3.100351 -3.186122,6.159758 -4.875,9.1875 C 6.0532031,24.164805 5.1689062,25.767109 4.2578125,27.417969 1.8125,31.375 1.8125,31.375 -1.1875,33.375 -2.156875,32.42625 -3.12625,31.4775 -4.125,30.5 c -4.436115,-3.412396 -7.593157,-4.283563 -13.0625,-5.125 1.524494,-5.439671 4.119201,-9.909587 7,-14.75 C -9.300625,9.1245313 -8.41375,7.6240625 -7.5,6.078125 -3.9981081,0.47036566 -3.9981081,0.47036566 0,0 Z"
       fill="#976549"
       id="path42"
       transform="translate(559.1875,172.625)" />
    <path
       d="M 0,0 C 3.6704091,2.7528068 6.4532314,5.1798471 9,9 7.8120014,14.939993 5.0735063,19.24113 1.9375,24.3125 1.369668,25.243848 0.80183594,26.175195 0.21679688,27.134766 -1.1821909,29.427225 -2.5902219,31.714161 -4,34 -4.8688281,33.222695 -5.7376562,32.445391 -6.6328125,31.644531 -9.7854003,29.168543 -12.114448,27.925731 -15.875,26.6875 -17.56625,26.130625 -19.2575,25.57375 -21,25 c 1.722415,-4.306039 3.623714,-8.001502 5.9375,-12 1.034473,-1.794375 1.034473,-1.794375 2.089844,-3.625 C -7.4930556,0 -7.4930556,0 0,0 Z"
       fill="#966548"
       id="path44"
       transform="translate(545,204)" />
    <path
       d="M 0,0 C 5.3302106,-0.69524486 8.0043168,-0.67564217 12.5,2.375 16.467783,6.541172 16,6.6366849 16,13 c -1.898437,3.867187 -1.898437,3.867187 -4.375,7.875 -0.812109,1.338047 -1.624219,2.676094 -2.4609375,4.054687 C 8.4499219,25.942891 7.7357812,26.956094 7,28 6.34,28 5.68,28 5,28 4.236875,27.21625 3.47375,26.4325 2.6875,25.625 -1.3405022,21.690672 -5.5933028,20.754423 -11,20 -9.5054739,16.263685 -7.9793259,12.944365 -6.0625,9.4375 -5.3064648,8.0433789 -5.3064648,8.0433789 -4.5351562,6.6210937 -3,4 -3,4 0,0 Z"
       fill="#966548"
       id="path46"
       transform="translate(571,146)" />
    <path
       d="m 0,0 c 5.5197489,0.92718769 8.0929354,3.7843416 11.976563,7.6679687 -1,4.0000003 -1,4.0000003 -3.3125005,7.1250003 -3.0612044,4.413829 -4.8295903,8.851762 -6.6875,13.875 -0.66,0 -1.32,0 -2,0 -1.6666667,-1.666667 -3.3333333,-3.333334 -5,-5 -3.6066107,-1.803306 -6.0839345,-2.465991 -10.0000005,-3 1.800826,-4.502063 3.776455,-8.577754 6.1250005,-12.8125003 C -8.1739844,6.5083984 -7.4495312,5.1613281 -6.703125,3.7734375 -4.0234375,0.66796875 -4.0234375,0.66796875 0,0 Z"
       fill="#976549"
       id="path50"
       transform="translate(605.02344,95.332031)" />
    <path
       d="M 0,0 C 1.65,0.66 3.3,1.32 5,2 5,11.57 5,21.14 5,31 0.21257143,30.042514 -4.5474447,29.00021 -9.3125,27.9375 -10.938008,27.575273 -12.563516,27.213047 -14.238281,26.839844 -15.479648,26.562695 -16.721016,26.285547 -18,26 -14.934347,20.285018 -11.293551,15.300899 -7.3125,10.1875 -3.313166,5.3188797 -3.313166,5.3188797 0,0 Z"
       fill="#78858b"
       id="path52"
       transform="translate(636,319)" />
    <path
       d="m 0,0 c 5.5045138,0.42892316 7.1492286,1.3543363 10.8125,5.375 2,5 2,5 0.769531,8.007813 C 10.936211,14.411484 10.290391,15.440156 9.625,16.5 8.9920703,17.533828 8.3591406,18.567656 7.7070312,19.632812 5.8125,22.375 5.8125,22.375 2.8125,25.375 c -0.99,-0.99 -1.98,-1.98 -3,-3 0,-0.66 0,-1.32 0,-2 -4.8802366,-1.952095 -8.808235,-2.535066 -14,-3 1.620003,-4.050008 3.222641,-7.135186 5.5625,-10.75 C -8.0049609,5.6607813 -7.3849219,4.6965625 -6.7460937,3.703125 -4.539117,0.40648809 -4.539117,0.40648809 0,0 Z"
       fill="#966548"
       id="path58"
       transform="translate(589.1875,122.625)" />
    <path
       d="m 0,0 c -1.8339199,4.5847998 -3.5463886,7.2534203 -6.5625,11.0625 -4.310672,5.486878 -8.500057,11.044275 -12.625,16.671875 C -21,30 -21,30 -23,31 c -3.663515,0.366351 -7.330349,0.701307 -11,1 2.429849,-4.859698 5.584016,-9.030619 8.8125,-13.375 0.616816,-0.837891 1.233633,-1.675781 1.869141,-2.539063 C -10.933025,-0.65598148 -10.933025,-0.65598148 0,0 Z"
       fill="#e8a43c"
       id="path64"
       transform="translate(408,379)" />
    <path
       d="m 0,0 c 1.0618247,7.6982289 1.0992265,15.249306 1,23 -10.625,0.125 -10.625,0.125 -14,-1 -0.502074,-2.791294 -1.001602,-5.583047 -1.5,-8.375 -0.417656,-2.331914 -0.417656,-2.331914 -0.84375,-4.7109375 C -16,5 -16,5 -16,3 -10.366713,-0.08489509 -6.3322846,-1.5830711 0,0 Z"
       fill="#77848a"
       id="path68"
       transform="translate(383,418)" />
    <path
       d="M 0,0 C 6.2866421,0.87557689 9.8767592,2.9312013 14.4375,7.375 16,10 16,10 16.0625,12.875 14.713879,16.841532 12.563945,19.71289 10,23 6,21 6,21 3.75,18.9375 0.20708584,16.441356 -2.733713,16.28924 -7,16 -6.0399975,12.15999 -4.7298813,9.258491 -2.9375,5.75 -2.1157227,4.1335156 -2.1157227,4.1335156 -1.2773437,2.484375 -0.64505859,1.2546094 -0.64505859,1.2546094 0,0 Z"
       fill="#966448"
       id="path70"
       transform="translate(613,72)" />
    <path
       d="M 0,0 C 3,10.5 3,10.5 3,15 -7.375,19 -7.375,19 -13,19 -14.604069,14.187794 -15.026223,12.131116 -14,7 -4.4423077,0 -4.4423077,0 0,0 Z"
       fill="#778489"
       id="path72"
       transform="translate(429,450)" />
    <path
       d="m 0,0 c 6.93,0 13.86,0 21,0 -2.183302,3.638837 -4.246681,6.7273846 -6.875,10 -0.657422,0.825 -1.314844,1.65 -1.992187,2.5 C 9.878705,15.142177 7.4850972,17.575515 5,20 4.1635486,17.042547 3.3309236,14.084011 2.5,11.125 2.0359375,9.4775781 1.571875,7.8301562 1.09375,6.1328125 0,2 0,2 0,0 Z"
       fill="#778389"
       id="path74"
       transform="translate(675,386)" />
    <path
       d="M 0,0 C -0.58335057,6.3001861 -2.0766174,11.978976 -4,18 -6.3367663,16.004012 -8.6692393,14.002997 -11,12 -12.464375,10.7625 -13.92875,9.525 -15.4375,8.25 -16.613125,7.1775 -17.78875,6.105 -19,5 -19,4.34 -19,3.68 -19,3 -6.2857143,-0.42857143 -6.2857143,-0.42857143 0,0 Z"
       fill="#778489"
       id="path76"
       transform="translate(632,491)" />
    <path
       d="M 0,0 C 0.33,0 0.66,0 1,0 0.78756352,9.1007789 -2.1815359,15.26521 -6.4375,23.0625 -7.0362695,24.201387 -7.6350391,25.340273 -8.2519531,26.513672 -12.695004,34.847502 -12.695004,34.847502 -15,36 c -1.375859,-7.287751 -0.639783,-11.014001 3,-17.4375 0.825,-1.461797 1.65,-2.923594 2.5,-4.429687 C -6.5310848,9.2248246 -3.476461,4.562855 0,0 Z"
       fill="#e5a43c"
       id="path80"
       transform="translate(452,416)" />
    <path
       d="M 0,0 C 11,13.2 11,13.2 11,17 4.8918351,17.084836 -0.95462742,16.895611 -7,16 -4.8307467,10.576867 -2.4312499,5.3103617 0,0 Z"
       fill="#778489"
       id="path82"
       transform="translate(681,452)" />
    <path
       d="m 0,0 c 5.5109856,2.2043942 10.003551,4.8022726 15,8 0,0.66 0,1.32 0,2 C 9.72,12.31 4.44,14.62 -1,17 -0.67,11.39 -0.34,5.78 0,0 Z"
       fill="#778389"
       id="path84"
       transform="translate(562,348)" />
    <path
       d="M 0,0 C 2.75,2.5390625 2.75,2.5390625 5,5 2.7525255,6.150779 0.5019241,7.2954528 -1.75,8.4375 -3.6294531,9.3946289 -3.6294531,9.3946289 -5.546875,10.371094 -9,12 -9,12 -13,13 -13.38546,8.4515748 -13.574261,5.8613911 -11,2 -6.9948768,-0.67008216 -4.7265098,-0.73851715 0,0 Z"
       fill="#79878c"
       id="path86"
       transform="translate(579,422)" />
    <path
       d="M 0,0 C 1.32,1.32 2.64,2.64 4,4 3,6 3,6 -0.8125,7.375 -5.3495911,8.8117271 -5.3495911,8.8117271 -9,13 c -0.66,0 -1.32,0 -2,0 -0.75,-3.1875 -0.75,-3.1875 -1,-7 3.5911798,-5.69635421 5.1290624,-6 12,-6 z"
       fill="#78858b"
       id="path88"
       transform="translate(635,385)" />
    <path
       d="M 0,0 C 5.5082041,2.2032816 7.374917,4.4475702 11,9 9.0664322,9.6984826 7.127977,10.383448 5.1875,11.0625 4.1085547,11.445352 3.0296094,11.828203 1.9179687,12.222656 -1,13 -1,13 -4,12 -2.68,8.04 -1.36,4.08 0,0 Z"
       fill="#79868c"
       id="path90"
       transform="translate(543,479)" />
    <path
       d="M 0,0 C 0.33,0 0.66,0 1,0 1,2.31 1,4.62 1,7 1.66,6.34 2.32,5.68 3,5 1.9447781,10.27611 0.24354661,13.267495 -2.5625,17.8125 -3.3887891,19.15957 -4.2150781,20.506641 -5.0664062,21.894531 -5.7044922,22.919336 -6.3425781,23.944141 -7,25 -7.66,24.67 -8.32,24.34 -9,24 -8.443125,23.01 -7.88625,22.02 -7.3125,21 -4.1704036,14.206278 -2.1222667,7.1669989 0,0 Z"
       fill="#7e8c92"
       id="path94"
       transform="translate(660,429)" />
    <path
       d="M 0,0 C 0.08597678,2.6652803 0.080771,5.3345569 0,8 -0.66,8.66 -1.32,9.32 -2,10 -4.374728,8.0493306 -6.7075982,6.0467873 -9,4 -9,3.34 -9,2.68 -9,2 -4,0 -4,0 0,0 Z"
       fill="#768389"
       id="path96"
       transform="translate(526,410)" />
    <path
       d="m 0,0 c 0.33,0 0.66,0 1,0 0.191578,4.8852381 -0.12595954,7.3148989 -2,12 -0.66,-0.66 -1.32,-1.32 -2,-2 -1.98,1.98 -3.96,3.96 -6,6 -0.66,-0.33 -1.32,-0.66 -2,-1 0.814043,-0.995801 0.814043,-0.995801 1.6445312,-2.011719 C -8.6400391,12.105273 -7.9246094,11.222266 -7.1875,10.3125 -6.4798047,9.4423828 -5.7721094,8.5722656 -5.0429687,7.6757812 -2.6989284,4.7087044 -2.6989284,4.7087044 0,0 Z"
       fill="#313635"
       id="path98"
       transform="translate(659,426)" />
    <path
       d="M 0,0 C 0,3 0,3 -1,6 1.97,6.495 1.97,6.495 5,7 5.33,7.99 5.66,8.98 6,10 2.37,9.34 -1.26,8.68 -5,8 -3,3 -3,3 0,0 Z"
       fill="#a1694a"
       id="path104"
       transform="translate(565,158)" />
    <path
       d="M 0,0 C 0.66,0.33 1.32,0.66 2,1 0.515,3.475 0.515,3.475 -1,6 -0.89798919,10.896519 0.7466113,13.431767 4,17 0,15 0,15 -3,11 -3.5707924,5.672604 -3.3245397,4.4327196 0,0 Z"
       fill="#1b2222"
       id="path106"
       transform="translate(498,403)" />
    <path
       d="M 0,0 C 0.33,0.66 0.66,1.32 1,2 2.546875,1.938125 2.546875,1.938125 4.125,1.875 7.8682963,1.9957515 10.537345,2.6487202 14,4 8.7930715,5.3017321 4.3030119,4.5681798 -1,4 -0.67,2.68 -0.34,1.36 0,0 Z"
       fill="#f1b03b"
       id="path108"
       transform="translate(470,294)" />
    <path
       d="M 0,0 C 2.5614479,2.5614479 4.7709462,5.1560348 7,8 6.67,8.66 6.34,9.32 6,10 3.36,7.69 0.72,5.38 -2,3 -1,1 -1,1 0,0 Z"
       fill="#818f95"
       id="path110"
       transform="translate(552,461)" />
  </g>
</svg>
