<?xml version="1.0" encoding="UTF-8" standalone="no"?>
<svg
   version="1.1"
   width="96"
   height="96"
   id="svg10"
   sodipodi:docname="ALS.svg"
   inkscape:version="1.1.2 (0a00cf5339, 2022-02-04)"
   xmlns:inkscape="http://www.inkscape.org/namespaces/inkscape"
   xmlns:sodipodi="http://sodipodi.sourceforge.net/DTD/sodipodi-0.dtd"
   xmlns="http://www.w3.org/2000/svg"
   xmlns:svg="http://www.w3.org/2000/svg">
  <defs
     id="defs14" />
  <sodipodi:namedview
     id="namedview12"
     pagecolor="#ffffff"
     bordercolor="#666666"
     borderopacity="1.0"
     inkscape:pageshadow="2"
     inkscape:pageopacity="0.0"
     inkscape:pagecheckerboard="true"
     showgrid="false"
     inkscape:snap-page="true"
     showguides="true"
     inkscape:guide-bbox="true"
     inkscape:zoom="5.6568543"
     inkscape:cx="16.528621"
     inkscape:cy="42.956737"
     inkscape:window-width="1920"
     inkscape:window-height="1026"
     inkscape:window-x="0"
     inkscape:window-y="0"
     inkscape:window-maximized="1"
     inkscape:current-layer="svg10">
    <sodipodi:guide
       position="4.7942843,59.069969"
       orientation="0,-1"
       id="guide1314" />
  </sodipodi:namedview>
  <path
     d="m 0,0 2.7770996,0.01586914 2.9980469,0.0097656 3.1542969,0.02539062 3.1660156,0.01367188 c 2.590551,0.011829 5.18099,0.02831123 7.771484,0.04882812 -0.677981,2.87573171 -1.532529,5.20932881 -2.9375,7.81250001 -3.86086,7.5953646 -5.374546,14.5133346 -3.0625,22.7499996 3.099075,5.326534 6.616157,9.541213 12.757813,11.167969 7.332176,0.849094 12.394142,-0.135576 18.242187,-4.730469 l 1.6128,-1.419667 c 2.075318,-2.329679 2.504529,-2.81499 3.3872,-4.580333 1.666119,-0.04272 3.333829,-0.04064 5,0 1.774496,1.774496 1.130301,4.350173 1.132813,6.75 l 0.0039,3.53125 -0.01172,3.71875 0.01172,3.71875 -0.0039,3.53125 -0.0034,3.265625 c -0.129395,2.484375 -0.129395,2.484375 -1.129395,3.484375 -2.218552,0.08784 -4.439885,0.106946 -6.660156,0.09766 l -2.013534,-0.0043 c -2.129649,-0.0056 -4.259193,-0.01817 -6.38881,-0.03087 -1.440753,-0.005 -2.881509,-0.0096 -4.322265,-0.01367 -3.538446,-0.01105 -7.07683,-0.02832 -10.615235,-0.04883 l 0.01587,2.738037 c 0.01701,3.341478 0.02956,6.68291 0.03906,10.024415 0.005,1.448249 0.01187,2.896494 0.02051,4.344726 0.01208,2.077568 0.01779,4.155069 0.02222,6.232666 l 0.01587,3.792725 c -0.113526,2.867431 -0.113526,2.867431 -1.113526,3.867431 -1.914582,0.09972 -3.832823,0.130806 -5.75,0.132813 l -3.53125,0.0039 -3.71875,-0.01172 -3.7187496,0.01172 -3.53125,-0.0039 -3.26562504,-0.0034 C -2.1330566,90.113525 -2.1330566,90.113525 -3.1330566,89.113525 -3.2208921,86.894973 -3.2400027,84.67364 -3.2307129,82.453369 l 0.00429,-2.013534 c 0.00561,-2.129649 0.018168,-4.259193 0.030869,-6.38881 0.00501,-1.440753 0.00958,-2.881509 0.013672,-4.322265 0.011047,-3.538446 0.02832,-7.07683 0.048828,-10.615235 l -2.7380371,0.01587 c -3.3414778,0.01701 -6.6829103,0.02956 -10.0244143,0.03906 -1.448249,0.005 -2.896494,0.01187 -4.344726,0.02051 -2.077569,0.01208 -4.15507,0.01779 -6.232666,0.02222 l -3.792725,0.01587 c -2.867432,-0.113526 -2.867432,-0.113526 -3.867432,-1.113526 -0.08748,-1.926675 -0.106973,-3.856518 -0.09766,-5.785156 l 0.0098,-3.544922 0.02539,-3.732422 0.01367,-3.74414 c 0.01183,-3.064501 0.02832,-6.128907 0.04883,-9.19336 0.01206,-1.235068 0.0103,-1.069969 1.793029,-1.071805 33.8466031,-0.03486 5.4271,-0.03159 6.746034,-0.02585 l 3.945312,0.0098 c 1.380209,0.0084 2.760418,0.01682 4.140625,0.02539 1.38802,0.005 2.776041,0.0096 4.164063,0.01367 3.4036887,0.01182 6.8072917,0.02829 10.2109374,0.04883 l -0.015869,-2.738037 c -0.017008,-3.341478 -0.029564,-6.68291 -0.039063,-10.024414 -0.00504,-1.448249 -0.011871,-2.896494 -0.020508,-4.344726 -0.012083,-2.077568 -0.017793,-4.1550696 -0.022217,-6.2326664 L -3.246582,3.980957 C -3.0954933,0.16474813 -3.0954933,0.16474813 0,0 Z"
     fill="#fee209"
     transform="translate(37.133057,5.8864746)"
     id="path2"
     sodipodi:nodetypes="ccccccccccccccccccccccccccccccccccccccccccccccccccccccsccccccccccc" />
  <path
     d="m 0,0 h 4 c 6.726888,8.4876172 12.970963,20.835506 12.367187,31.863281 -0.500498,2.912478 -1.015316,4.188308 -2.657888,6.883116 C 12.530176,40.383224 12.051006,40.498922 11,41 5.5169027,43.452965 0.77063755,43.027506 -5,42 l -2,-1 c -2.3663198,-1.783943 -2.1363316,-1.646734 -3,-3 -2.595553,-4.371458 -2.71534,-9.082041 -2,-14 C -9.4494958,15.756406 -5.3695286,6.7749757 0,0 Z"
     fill="#fefefe"
     transform="translate(67)"
     id="path4"
     sodipodi:nodetypes="cccccccccc" />
</svg>
