<?xml version="1.0" encoding="UTF-8"?>
<svg x="4.2" y="2.5" viewBox="0 0 35.8 35.9" xmlns="http://www.w3.org/2000/svg">
	<path d="m33.658 16.361 1.1717-0.53125-0.62969-0.32969zm1.1717-0.53125 0.84687 1.1469-0.33906-0.63906zm0.84687 1.1469 0.12344 5.3234v-4.6zm0.12344 5.3234-0.6625 1.6375 0.48594-0.72969zm-0.6625 1.6375-1.6375 0.6625 0.90781-0.17656zm-10.537 0.6625-0.17656 9.9078 0.17656-0.90781zm-0.17656 9.9078-1.2156 1.2156 0.72969-0.48594zm-1.2156 1.2156-5.5078 0.17656h4.6zm-5.5078 0.17656-1.6375-0.6625 0.72969 0.48594zm-1.6375-0.6625-0.6625-1.6375 0.17656 0.90781zm-0.6625-10.638-9.8078-0.17656 0.90781 0.17656zm-9.8078-0.17656-1.2156-1.2156 0.48594 0.72969zm-1.2156-1.2156-0.17656-5.5078v4.6zm-0.17656-5.5078 0.6625-1.6375-0.48594 0.72969zm0.6625-1.6375 1.6375-0.6625-0.90781 0.17656zm10.538-0.6625 0.17656-9.9078-0.17656 0.90781zm0.17656-9.9078 1.2156-1.2156-0.72969 0.48594zm1.2156-1.2156 5.5078-0.17656h-4.6zm5.5078-0.17656 1.0125 0.225-0.49219-0.16875zm1.0125 0.225 0.7875 0.675-0.35156-0.39375zm9.7016 12.812 1.8156-1.3078-1.1717 0.53125zm1.8156-1.3078 0.97031 6.4703-0.12344-5.3234zm0.97031 6.4703-2.3 2.3 1.6375-0.6625zm-11.2 2.3-1.3922 11.123 1.2156-1.2156zm-1.3922 11.123-7.1453-0.48594 1.6375 0.6625zm-7.1453-0.48594-0.6625-10.638v9zm-0.6625-10.638-11.023-1.3922 1.2156 1.2156zm-11.023-1.3922 0.48594-7.1453-0.6625 1.6375zm0.48594-7.1453 10.538-0.6625h-8.9zm10.538-0.6625 1.3922-11.123-1.2156 1.2156zm1.3922-11.123 6.5203 0.048437-1.0125-0.225zm6.5203 0.048437-0.86562 1.6391 1.6531-0.96406zm8.9662 13.495 2.551-1.9906-1.8156 1.3078zm2.551-1.9906-1.3297 8.7703 2.3-2.3zm-10.23 8.7703-8.5375 10.638 7.1453 0.48594zm-9.2 0-10.538-8.5375-0.48594 7.1453zm1.3922-20.323 5.6547 1.6875 0.86562-1.6391zm15.487 13.544 1.2213 6.7797 1.3297-8.7703zm-7.6787 6.7797h-9.2l0.6625 10.638zm-9.2 0v-9.2l-10.538 0.6625zm1.3922-20.323 4.9559 2.2686 0.69883-0.58106zm14.67 14.123 2.0375 6.2-1.2213-6.7797zm-6.8625 6.2-9.2-9.2v9.2zm-7.8078-20.323 4.3578 2.9609 0.59805-0.69238zm13.784 14.591 2.924 5.7328-2.0375-6.2zm2.924 5.7328-18.1-9.2 9.2 9.2zm-18.1-9.2 5.75-8.1625-4.3578-2.9609zm14.23 3.8125 3.8703 5.3875-2.924-5.7328zm-14.23-3.8125 5.2645-7.3248 0.48555-0.8377zm13.234 4.0266 4.8658 5.1734-3.8703-5.3875zm-13.234-4.0266 4.9031-6.3078 0.36133-1.017zm12.2 4.1 5.9 5.1-4.8658-5.1734zm-12.2-4.1 4.6777-5.0775 0.22539-1.2303zm11.423 4.0608 6.6775 5.1392-5.9-5.1zm-11.423-4.0608 4.6-3.6 0.077734-1.4775zm10.668 3.9455 7.4324 5.2545-6.6775-5.1392zm-10.668-3.9455 4.6392-2.8049-0.039207-0.79509zm9.939 3.7579 8.161 5.4421-7.4324-5.2545zm-9.939-3.7579 4.7543-2.0346-0.11509-0.77034zm9.2406 3.5016 8.8594 5.6984-8.161-5.4421zm-9.2406-3.5016 4.9415-1.2927-0.18716-0.74192zm8.5762 3.1802 9.5238 6.0198-8.8594-5.6984zm-8.5762-3.1802 5.1969-0.58281-0.25542-0.70984zm7.9496 2.7975 10.15 6.4025-9.5238-6.0198zm-7.9496-2.7975 5.5167 0.091285-0.31987-0.6741zm7.9496 2.7975-7.9496-2.7975 18.1 9.2zm-7.9496-2.7975 5.8973 0.72598-0.38052-0.63469zm7.3646 2.357-7.3646-2.357 7.9496 2.7975zm-7.3646-2.357 6.3346 1.3176-0.43735-0.59162zm6.825 1.8625-6.825-1.8625 7.3646 2.357zm-6.825-1.8625 6.825 1.8625-0.49038-0.5449z" fill="#FFE000"/>
	<path d="m31.63 10.659 0.20781 1.2563-0.037498-0.61562zm0.20781 1.2563-0.15 1.2688 0.1125-0.63438zm-0.15 1.2688-0.46406 1.1797 0.27656-0.56406zm-0.46406 1.1797-1.2234 1.3359 0.8625-0.8375zm-1.2234 1.3359-1.0625 0.5375 0.53594-0.21719zm-1.0625 0.5375-1.1375 0.1625 0.58281-0.039063zm-1.1375 0.1625-1.175-0.1625 0.57812 0.12344zm-1.175-0.1625-1.025-0.5375 0.48438 0.32031zm-1.025-0.5375-0.9-0.8375 0.4125 0.44219zm-0.9-0.8375-0.6-1.0625 0.2625 0.56406zm-0.6-1.0625-0.2625-1.2125 0.089063 0.61094zm-0.2625-1.2125 0.076562-1.8859-0.11406 0.59844zm0.076562-1.8859 0.49062-1.1594-0.29219 0.57031zm3.2625-5.9203 0.51094-1.6438-0.1875 0.5625zm0.51094-1.6438 1.3125 2.875-0.9-2.3125zm2.0719 4.3172 1.3797 2.0734-0.33906-0.52812zm1.3797 2.0734 0.49063 1.1312-0.21719-0.58437zm0.49063 1.1312 0.057812 2.525 0.15-1.2688zm0.057812 2.525-1.6875 2.5156 1.2234-1.3359zm-1.6875 2.5156-2.2 0.7 1.1375-0.1625zm-2.2 0.7-2.2-0.7 1.025 0.5375zm-2.2-0.7-1.5-1.9 0.6 1.0625zm-1.5-1.9-0.18594-3.0984-0.076562 1.8859zm-0.18594-3.0984 0.88594-1.7016-0.39531 0.54219zm3.2625-5.9203 1.8234 1.2313-1.3125-2.875zm2.5828 2.6734 1.8703 3.2047-0.49063-1.1312zm1.8703 3.2047-1.6297 5.0406 1.6875-2.5156zm-1.6297 5.0406h-4.4l2.2 0.7zm-4.4 0-1.6859-4.9984 0.18594 3.0984zm-1.6859-4.9984 1.9406-3.2328-1.0547 1.5312zm2.7234-4.6516 2.3625-0.037499-1.8234-1.2313zm3.1219 1.4047 0.24062 8.2453 1.6297-5.0406zm0.24062 8.2453-6.0859-4.9984 1.6859 4.9984zm-4.1453-8.2312 3.1453-1.4562-2.3625 0.037499zm3.1453-1.4562 1 9.6875-0.24062-8.2453zm1 9.6875-4.1453-8.2312-1.9406 3.2328zm-4.1453-8.2312 4.1453 8.2312-1-9.6875z" fill="#fff"/>
</svg>
