<?xml version="1.0" encoding="UTF-8"?>
<svg version="1.1" xmlns="http://www.w3.org/2000/svg" width="40" height="40">
<path d="M0 0 C1.15628906 -0.02126953 1.15628906 -0.02126953 2.3359375 -0.04296875 C4.88887983 0.21406811 6.450072 0.84512509 8.625 2.1875 C11.89635396 6.30698276 12.1938544 10.09998188 12.625 15.1875 C13.615 15.5175 14.605 15.8475 15.625 16.1875 C15.8125 19 15.8125 19 15.625 22.1875 C14.64746356 23.20946992 13.6444119 24.20729625 12.625 25.1875 C12.3775 26.26 12.13 27.3325 11.875 28.4375 C10.24450594 33.32898217 7.85003042 36.24797579 3.625 39.1875 C0.125 40.0625 0.125 40.0625 -3.375 39.1875 C-9.06646839 35.25991644 -11.30979498 30.60050507 -13.375 24.1875 C-14.035 23.5275 -14.695 22.8675 -15.375 22.1875 C-15.5 18.5625 -15.5 18.5625 -15.375 15.1875 C-14.385 14.8575 -13.395 14.5275 -12.375 14.1875 C-11.71581717 12.20953492 -11.71581717 12.20953492 -11.4375 9.875 C-10.67144421 5.82584797 -9.77597895 3.73823421 -6.375 1.1875 C-4.04904054 0.02452027 -2.58776769 0.02149309 0 0 Z " fill="#5534CC" transform="translate(19.375,-0.1875)"/>
<path d="M0 0 C1.32 0.33 2.64 0.66 4 1 C4 1.99 4 2.98 4 4 C3.34 4 2.68 4 2 4 C2 7.63 2 11.26 2 15 C2.99 15.33 3.98 15.66 5 16 C5 17.32 5 18.64 5 20 C-0.625 23 -0.625 23 -4 23 C-3.34 22.34 -2.68 21.68 -2 21 C-2.32041397 18.39719432 -2.32041397 18.39719432 -3 16 C-2.01 15.67 -1.02 15.34 0 15 C0 10.05 0 5.1 0 0 Z " fill="#E0DAF7" transform="translate(23,5)"/>
<path d="M0 0 C0.99 0.33 1.98 0.66 3 1 C3 2.32 3 3.64 3 5 C-2.625 8 -2.625 8 -6 8 C-4.02 5.36 -2.04 2.72 0 0 Z " fill="#E7E3F9" transform="translate(25,20)"/>
<path d="M0 0 C1.32 0.33 2.64 0.66 4 1 C3.34 2.32 2.68 3.64 2 5 C0.68 4.67 -0.64 4.34 -2 4 C-1.34 2.68 -0.68 1.36 0 0 Z " fill="#D4C8F3" transform="translate(15,29)"/>
<path d="M0 0 C0.33 1.32 0.66 2.64 1 4 C1.99 4.33 2.98 4.66 4 5 C4 6.98 4 8.96 4 11 C3.67 10.34 3.34 9.68 3 9 C2.34 9 1.68 9 1 9 C0.67 6.03 0.34 3.06 0 0 Z " fill="#3D249A" transform="translate(31,11)"/>
<path d="M0 0 C1.32 0 2.64 0 4 0 C4.33 1.32 4.66 2.64 5 4 C3.68 4.33 2.36 4.66 1 5 C0.67 3.35 0.34 1.7 0 0 Z " fill="#EEEBFB" transform="translate(11,15)"/>
<path d="M0 0 C3.26954202 0.56371414 4.82575883 1.49962266 7 4 C6.34 4.66 5.68 5.32 5 6 C3.35 4.02 1.7 2.04 0 0 Z " fill="#382A84" transform="translate(10,32)"/>
</svg>
