<?xml version="1.0" encoding="UTF-8"?>
<svg x="1.7" y="1.2" viewBox="0 0 38.3 38.9" xmlns="http://www.w3.org/2000/svg">
	<path d="m37.203 38.545-0.40312-0.44532v0.1zm-0.40312-0.44532-11.125-18.088 0.225 0.7875zm-11.125-18.088 11.125-18.112-10.9 17.4zm11.125-18.112 0.9-0.3625-0.49688 0.017188zm0.9-0.3625 0.6 0.7625-0.17813-0.49844zm0.6 0.7625-0.0875 10.15 0.0875-0.75zm-0.0875 10.15-4.0125 6.95 3.7-6.2zm-4.0125 8.25 4.0125 6.875-0.3125-0.675zm4.0125 6.875 0.0875 10.225v-9.4zm0.0875 10.225-0.6 0.7625 0.42187-0.26406zm-0.6 0.7625-0.9-0.4625 0.40312 0.44532zm-12.025-18.55 12.025-18.475-0.9 0.3625zm12.025-18.475 0.5125 10.912 0.0875-10.15zm-3.5 19.162 4.1 17.1-0.0875-10.225zm4.1 17.1-1.5 0.3 0.9 0.4625zm-12.625-17.788 12.538-7.5625-0.5125-10.912zm8.525 0.6875 2.6 17.4 1.5-0.3zm-8.525-0.6875 8.525-0.6125 4.0125-6.95zm8.375 0.0375 2.75 18.05-2.6-17.4zm-8.375-0.0375 8.375 0.0375 0.15-0.65zm8.375 0.0375-8.375-0.0375 11.125 18.088z" fill="#FF7D1D" fill-opacity=".5"/>
	<path d="m23.688 37.189-0.3875-0.48906v0.2zm-0.3875-0.48906-10.125-16.6 0.225 0.7zm-10.125-16.6 10.125-16.6-9.9 15.9zm10.125-16.6 0.85-0.2875-0.4625-0.0015625zm0.85-0.2875 0.55 0.6875-0.1625-0.44219zm0.55 0.6875-0.087499 9.35 0.087499-0.75zm-0.087499 9.35-3.6125 6.35 3.3-5.6zm-3.6125 7.55 3.6125 6.275-0.3125-0.675zm3.6125 6.275 0.087499 9.425v-8.6zm0.087499 9.425-0.55 0.6875 0.3875-0.24532zm-0.55 0.6875-0.85-0.4875 0.3875 0.48906zm-10.975-17.088 10.975-16.887-0.85 0.2875zm10.975-16.887 0.4625 10.038 0.087499-9.35zm-3.15 17.588 3.7 15.7-0.087499-9.425zm3.7 15.7-1.4 0.2 0.85 0.4875zm-11.525-16.4 11.438-6.85-0.4625-10.038zm7.675 0.1 3.85 16.3-3.7-15.7zm3.85 16.3-11.525-16.4 10.125 16.6zm-11.525-16.4 7.825-0.5 3.6125-6.35zm7.675 0.1-7.675-0.1 11.525 16.4zm-7.675-0.1 7.675 0.1 0.15-0.6z" fill="#FF7D1D" fill-opacity=".8"/>
	<path d="m10.8 34.8-8.9-14.1 8.9 14.2zm-8.9-14.1v-1.3l-0.15 0.65zm0-1.3 9.6125-14.6-0.7125 0.3zm9.6125-14.6 0.4875 8.2v-7.6zm0.4875 8.2-0.4 1.4 0.3125-0.6625zm-3.3 7.5 3.2125 5.6625-0.3125-0.6625zm3.2125 5.6625 0.0875 8.3375v-7.6zm0.0875 8.3375-1.2 0.3 0.7125 0.3375zm-1.2 0.3-8.9-15.4v1.3zm-8.9-15.4 10.1-6.4-0.4875-8.2zm10.1-6.4-3.3 6.4 2.9-5zm-3.3 7.5 3.3 14-0.0875-8.3375zm3.3 14-10.1-15.1 8.9 15.4zm-10.1-15.1h6.8l3.3-6.4zm6.65 0.5125 3.45 14.588-3.3-14zm-6.65-0.5125 6.65 0.5125 0.15-0.5125zm6.65 0.5125-6.65-0.5125 10.1 15.1z" fill="#FF7D1D"/>
</svg>
