<?xml version="1.0" encoding="UTF-8"?>
<svg version="1.1" xmlns="http://www.w3.org/2000/svg" width="96" height="96">
<path d="M0 0 C0.66 0 1.32 0 2 0 C2.1242965 4.57143402 2.21466121 9.14186878 2.2746582 13.71459961 C2.29968689 15.26750845 2.33372131 16.82030084 2.37719727 18.37280273 C2.7748742 32.94649287 2.7748742 32.94649287 -0.40625 37.3984375 C-1.2621875 38.25695313 -2.118125 39.11546875 -3 40 C-4.90254326 42.68980253 -5.90293446 44.52545735 -6.5625 47.75 C-5.7120204 52.66388213 -2.91089741 56.04087787 0 60 C2.42869909 63.64304864 2.25675675 66.30722339 2.1953125 70.51171875 C2.1924826 71.23994339 2.18965271 71.96816803 2.18673706 72.71846008 C2.17555257 75.04164137 2.15045166 77.36443547 2.125 79.6875 C2.11496794 81.2636663 2.10584248 82.83983865 2.09765625 84.41601562 C2.07561896 88.27749267 2.04110141 92.13868071 2 96 C-1.34219112 94.88593629 -1.59054685 94.51227942 -3.3046875 91.6484375 C-3.72363281 90.96136719 -4.14257812 90.27429688 -4.57421875 89.56640625 C-5.00347656 88.84324219 -5.43273437 88.12007813 -5.875 87.375 C-6.72426187 85.96475781 -7.57581417 84.55589232 -8.4296875 83.1484375 C-8.84831055 82.45588867 -9.26693359 81.76333984 -9.69824219 81.04980469 C-10.99045127 79.01503585 -12.37887738 77.09511829 -13.8203125 75.1640625 C-16 72 -16 72 -16 69 C-16.66 69 -17.32 69 -18 69 C-19.4375 66.98828125 -19.4375 66.98828125 -21 64.3125 C-21.515625 63.44238281 -22.03125 62.57226562 -22.5625 61.67578125 C-23.91214843 59.16352805 -25.00011557 56.66796085 -26 54 C-26.66 54 -27.32 54 -28 54 C-29.5471219 51.5428064 -30.04484402 50.367721 -29.6875 47.4375 C-29.17232879 45.61098388 -28.60013019 43.80039058 -28 42 C-27.34 42 -26.68 42 -26 42 C-25.731875 41.28457031 -25.46375 40.56914063 -25.1875 39.83203125 C-23.98268693 36.95871061 -22.58762888 34.36662374 -21 31.6875 C-20.484375 30.80449219 -19.96875 29.92148437 -19.4375 29.01171875 C-18.7259375 28.01591797 -18.7259375 28.01591797 -18 27 C-17.34 27 -16.68 27 -16 27 C-15.92136719 26.47792969 -15.84273437 25.95585937 -15.76171875 25.41796875 C-14.69134726 22.02022539 -12.76609152 19.25576854 -10.8125 16.3125 C-10.20619751 15.38800049 -10.20619751 15.38800049 -9.58764648 14.44482422 C-8.77487833 13.20701272 -7.95988675 11.97065805 -7.14257812 10.73583984 C-6.12762409 9.19389044 -5.13264438 7.63883477 -4.140625 6.08203125 C-3.61984375 5.27121094 -3.0990625 4.46039062 -2.5625 3.625 C-2.11003906 2.91601562 -1.65757813 2.20703125 -1.19140625 1.4765625 C-0.79824219 0.98929687 -0.40507813 0.50203125 0 0 Z " fill="#BF6537" transform="translate(94,0)"/>
<path d="M0 0 C0.66 0 1.32 0 2 0 C2.2007589 4.31901882 2.34427902 8.63543173 2.43945312 12.95776367 C2.47919879 14.4214619 2.53342124 15.88485305 2.60351562 17.34741211 C3.0827981 27.6202681 1.93627679 33.87879096 -4.36523438 42.16137695 C-6.26092768 44.8963541 -6.26092768 44.8963541 -5.96508789 48.06201172 C-4.91154319 51.26928642 -3.55272722 53.19558432 -1.46484375 55.83203125 C3.37162608 63.12567001 2.7841777 70.32144746 2.4375 78.6875 C2.40230181 80.17896229 2.37037792 81.6705056 2.34179688 83.16210938 C2.26553081 86.77645443 2.1452329 90.38769061 2 94 C1.34 94 0.68 94 0 94 C-1.69033272 91.50788113 -3.26854165 89.01834349 -4.8125 86.4375 C-5.67087192 85.01813463 -6.53153889 83.60015459 -7.39453125 82.18359375 C-7.81943848 81.48476074 -8.2443457 80.78592773 -8.68212891 80.06591797 C-9.98312613 78.02645178 -11.37766941 76.09823664 -12.82421875 74.16015625 C-15 71 -15 71 -15 68 C-15.66 68 -16.32 68 -17 68 C-21 62.70588235 -21 62.70588235 -21 59 C-21.66 59 -22.32 59 -23 59 C-23.66 57.02 -24.32 55.04 -25 53 C-25.66 53 -26.32 53 -27 53 C-28.75 50.75 -28.75 50.75 -30 48 C-29.25 45.875 -29.25 45.875 -28 44 C-27.67 43.01 -27.34 42.02 -27 41 C-26.34 41 -25.68 41 -25 41 C-24.34 39.02 -23.68 37.04 -23 35 C-22.34 35 -21.68 35 -21 35 C-20.896875 34.443125 -20.79375 33.88625 -20.6875 33.3125 C-19.85821592 30.5230899 -18.65700944 28.3860936 -17 26 C-16.34 26 -15.68 26 -15 26 C-14.92265625 25.47921875 -14.8453125 24.9584375 -14.765625 24.421875 C-13.68304027 20.99737229 -11.72398391 18.21434714 -9.75 15.25 C-8.93040192 14.00299021 -8.11138819 12.75559615 -7.29296875 11.5078125 C-6.89770996 10.90743164 -6.50245117 10.30705078 -6.09521484 9.68847656 C-4.69678199 7.53253327 -3.37929017 5.33151325 -2.0625 3.125 C-1.381875 2.09375 -0.70125 1.0625 0 0 Z " fill="#E8782C" transform="translate(60,1)"/>
<path d="M0 0 C0.66 0 1.32 0 2 0 C2.04953687 4.19920237 2.08578411 8.39824869 2.10986328 12.59765625 C2.11990427 14.02542078 2.13353981 15.45316483 2.15087891 16.88085938 C2.17521152 18.93624941 2.18650202 20.99136692 2.1953125 23.046875 C2.20578613 24.28276367 2.21625977 25.51865234 2.22705078 26.79199219 C2.01298081 29.81659371 1.59653159 31.46985651 0 34 C-0.66 34 -1.32 34 -2 34 C-2.28875 34.928125 -2.5775 35.85625 -2.875 36.8125 C-4 40 -4 40 -6 43 C-5.8801238 47.3155433 -3.79818477 49.96533133 -1.25390625 53.25390625 C1.831393 57.55025754 2.24045539 60.62626394 2.1953125 65.953125 C2.1924826 66.61334656 2.18965271 67.27356812 2.18673706 67.95379639 C2.17558415 70.05271897 2.15048946 72.15120742 2.125 74.25 C2.11496384 75.67707715 2.1058391 77.10416102 2.09765625 78.53125 C2.07566111 82.02097328 2.04116536 85.51044423 2 89 C1.34 89 0.68 89 0 89 C-1.7265625 86.6640625 -1.7265625 86.6640625 -3.625 83.625 C-4.25664062 82.62726563 -4.88828125 81.62953125 -5.5390625 80.6015625 C-7 78 -7 78 -7 76 C-7.66 76 -8.32 76 -9 76 C-9.36738281 75.28650391 -9.36738281 75.28650391 -9.7421875 74.55859375 C-12.94652108 68.55875535 -16.62380007 62.94391472 -20.43310547 57.31811523 C-21.25845632 56.09860746 -22.0794504 54.87613674 -22.89550781 53.65039062 C-23.84704997 52.22854603 -24.82356825 50.82347393 -25.8046875 49.421875 C-27.33852858 46.31409241 -27.47863196 44.43019573 -27 41 C-25.390625 38.2890625 -25.390625 38.2890625 -23.25 35.625 C-19.85486837 31.22457231 -17.28851367 27.05380103 -15 22 C-14.34 22 -13.68 22 -13 22 C-12.731875 21.28457031 -12.46375 20.56914062 -12.1875 19.83203125 C-10.98268693 16.95871061 -9.58762888 14.36662374 -8 11.6875 C-7.484375 10.80449219 -6.96875 9.92148438 -6.4375 9.01171875 C-5.963125 8.34785156 -5.48875 7.68398437 -5 7 C-4.34 7 -3.68 7 -3 7 C-2.87625 6.401875 -2.7525 5.80375 -2.625 5.1875 C-2 3 -2 3 0 0 Z " fill="#FC8325" transform="translate(27,5)"/>
<path d="M0 0 C0.66 0 1.32 0 2 0 C2 9.9 2 19.8 2 30 C1.34 30.33 0.68 30.66 0 31 C-0.33 23.08 -0.66 15.16 -1 7 C-1.99 7.33 -2.98 7.66 -4 8 C-4 8.66 -4 9.32 -4 10 C-4.66 9.67 -5.32 9.34 -6 9 C-5.67 8.34 -5.34 7.68 -5 7 C-4.34 7 -3.68 7 -3 7 C-2.87625 6.401875 -2.7525 5.80375 -2.625 5.1875 C-2 3 -2 3 0 0 Z " fill="#F7A25B" transform="translate(27,5)"/>
<path d="M0 0 C0.66 0 1.32 0 2 0 C2.09917794 4.46567763 2.17161225 8.93076507 2.21972656 13.3972168 C2.23979203 14.9152341 2.26705134 16.43317459 2.30175781 17.95092773 C2.35050393 20.13805122 2.37301805 22.32414952 2.390625 24.51171875 C2.41157227 25.82615967 2.43251953 27.14060059 2.45410156 28.49487305 C1.93371011 32.51167954 0.78629985 34.13416045 -2 37 C-2 35.35 -2 33.7 -2 32 C-1.01 31.67 -0.02 31.34 1 31 C0.67 22.42 0.34 13.84 0 5 C-0.66 5 -1.32 5 -2 5 C-1.34 3.35 -0.68 1.7 0 0 Z " fill="#F6AD74" transform="translate(60,1)"/>
<path d="M0 0 C1.48168945 1.04418945 1.48168945 1.04418945 3 3 C3.26153286 5.51727719 3.3497922 7.78103966 3.29296875 10.29296875 C3.28872391 10.99899734 3.28447906 11.70502594 3.28010559 12.43244934 C3.26333034 14.68452303 3.22568243 16.93569742 3.1875 19.1875 C3.17245157 20.71548185 3.15876344 22.24347776 3.14648438 23.77148438 C3.11343089 27.51466872 3.06165832 31.25718196 3 35 C2.34 35 1.68 35 1 35 C0.34 33.35 -0.32 31.7 -1 30 C-0.01 30.33 0.98 30.66 2 31 C2 22.09 2 13.18 2 4 C1.34 4 0.68 4 0 4 C0 2.68 0 1.36 0 0 Z " fill="#FAB07A" transform="translate(59,60)"/>
<path d="M0 0 C0.33 0 0.66 0 1 0 C1 9.9 1 19.8 1 30 C0.34 30 -0.32 30 -1 30 C-2.625 28 -2.625 28 -4 26 C-3.67 25.34 -3.34 24.68 -3 24 C-2.34 24.33 -1.68 24.66 -1 25 C-0.67 16.75 -0.34 8.5 0 0 Z " fill="#FCB779" transform="translate(28,64)"/>
<path d="M0 0 C0.99 0 1.98 0 3 0 C2.773125 1.19625 2.54625 2.3925 2.3125 3.625 C1.75342874 7.8709196 2.70970796 10.33553273 5 14 C2.5625 13.625 2.5625 13.625 0 13 C-1.18306728 10.63386544 -1.13354608 9.13219264 -1.125 6.5 C-1.12757812 5.7059375 -1.13015625 4.911875 -1.1328125 4.09375 C-1 2 -1 2 0 0 Z " fill="#E99256" transform="translate(52,42)"/>
<path d="M0 0 C1.07723233 3.231697 1.1735237 3.93078417 0 7 C-1.9375 9.75 -1.9375 9.75 -4 12 C-4.66 12 -5.32 12 -6 12 C-6 12.66 -6 13.32 -6 14 C-6.66 14 -7.32 14 -8 14 C-6.6744419 10.37723685 -5.05653045 7.36494652 -2.875 4.1875 C-2.33617187 3.39730469 -1.79734375 2.60710938 -1.2421875 1.79296875 C-0.83226562 1.20128906 -0.42234375 0.60960937 0 0 Z " fill="#EB9455" transform="translate(53,12)"/>
<path d="M0 0 C0.33 0 0.66 0 1 0 C1 8.91 1 17.82 1 27 C0.01 26.67 -0.98 26.34 -2 26 C-2 25.01 -2 24.02 -2 23 C-1.34 23 -0.68 23 0 23 C0 15.41 0 7.82 0 0 Z " fill="#DA732B" transform="translate(60,64)"/>
<path d="M0 0 C0.3125 2.75 0.3125 2.75 0 6 C-2.375 8.375 -2.375 8.375 -5 10 C-5.66 10 -6.32 10 -7 10 C-6.67 8.35 -6.34 6.7 -6 5 C-5.34 5 -4.68 5 -4 5 C-4 4.34 -4 3.68 -4 3 C-1.34615385 0 -1.34615385 0 0 0 Z " fill="#FB7C1D" transform="translate(27,10)"/>
<path d="M0 0 C0.33 0 0.66 0 1 0 C1 8.58 1 17.16 1 26 C0.01 26 -0.98 26 -2 26 C-1.67 25.34 -1.34 24.68 -1 24 C-0.84693099 22.18828902 -0.75053339 20.3716206 -0.68359375 18.5546875 C-0.62075195 16.94013672 -0.62075195 16.94013672 -0.55664062 15.29296875 C-0.51732422 14.16503906 -0.47800781 13.03710938 -0.4375 11.875 C-0.39431641 10.73933594 -0.35113281 9.60367188 -0.30664062 8.43359375 C-0.2003396 5.62252232 -0.09830595 2.81136055 0 0 Z " fill="#F0822E" transform="translate(27,63)"/>
<path d="M0 0 C1.43088528 2.86177057 0.59991697 4.93375773 0 8 C-1.65 8.33 -3.3 8.66 -5 9 C-3.50163895 5.88801935 -1.80066242 2.9465385 0 0 Z " fill="#FB9D51" transform="translate(5,39)"/>
<path d="M0 0 C0.98120464 3.05263664 0.98120464 4.94736336 0 8 C-1.65 8.33 -3.3 8.66 -5 9 C-3.50163895 5.88801935 -1.80066242 2.9465385 0 0 Z " fill="#F99F51" transform="translate(20,16)"/>
<path d="M0 0 C0.33 0 0.66 0 1 0 C1 4.62 1 9.24 1 14 C0.34 14 -0.32 14 -1 14 C-1.66 12.35 -2.32 10.7 -3 9 C-2.01 9.33 -1.02 9.66 0 10 C0 6.7 0 3.4 0 0 Z " fill="#F3B583" transform="translate(61,81)"/>
<path d="M0 0 C0.66 0 1.32 0 2 0 C2 3.63 2 7.26 2 11 C1.67 11 1.34 11 1 11 C0.67 9.02 0.34 7.04 0 5 C-0.66 5 -1.32 5 -2 5 C-1.34 3.35 -0.68 1.7 0 0 Z " fill="#EFAF82" transform="translate(60,1)"/>
<path d="M0 0 C0.99 0.33 1.98 0.66 3 1 C1.66667905 4.99996286 -0.4957827 5.83782337 -4 8 C-2.66666667 5.33333333 -1.33333333 2.66666667 0 0 Z " fill="#EE9A5E" transform="translate(43,27)"/>
<path d="M0 0 C1.32 0.33 2.64 0.66 4 1 C4.33 3.31 4.66 5.62 5 8 C2.27573689 5.64722731 1.1858237 3.37503669 0 0 Z " fill="#D08564" transform="translate(84,79)"/>
<path d="M0 0 C0.66 0 1.32 0 2 0 C2 1.98 2 3.96 2 6 C1.01 6 0.02 6 -1 6 C-1.33 6.66 -1.66 7.32 -2 8 C-1.47731534 5.23723823 -0.89130413 2.6739124 0 0 Z " fill="#D78D63" transform="translate(66,42)"/>
</svg>
