<?xml version="1.0" encoding="UTF-8"?>
<svg x="4.9" y=".8" viewBox="0 0 34.8 38.6" xmlns="http://www.w3.org/2000/svg">
	<path d="m17.4 12.7 1.7-2.7-0.1-1.3zm1.7-2.7-2.3 6.3 1.7-2.2zm-2.3 6.3 2.3-6.3-1.7 2.7z" fill="#DA3331"/>
	<path d="m13.8 16.4-1.1 8 0.8-4.9zm5.3 1.4 1.2094-2.5453-0.48438 0.88281zm1.2094-2.5453 7.3281-7.5047-6.9375 6.95zm7.3281-7.5047 6.1998-5.5652-1.5639 1.2371zm6.1998-5.5652 0.69571 0.34258-0.03301-0.52734zm0.69571 0.34258-0.62051 2.1727 0.51406-1.5188zm-0.62051 2.1727-6.0125 8.4 4.6-5.7zm-8.7125 13.4-11.2 14.3 15.6-17.1zm-11.4-1.7-1.55 10.288 0.45-2.2875zm4.0875 3.975 2.4219-5.1203-1.2094 2.5453zm2.4219-5.1203 13.528-13.07-6.1998 5.5652zm13.528-13.07 0.075197 2.5152 0.62051-2.1727zm-7.6998 13.978-12.138 16.238 11.2-14.3zm-12.338 0.2375-1.7469 11.333 0.19688-1.0453zm4.0875 3.975 15.95-18.19-13.528 13.07zm15.95-18.19-5.9373 10.915 6.0125-8.4zm-5.9373 10.915-13.9 19.3 12.138-16.238zm-11.6 10 17.537-20.915-15.95 18.19zm17.537-20.915-19.837 30.215 13.9-19.3zm-18.912 22.865 18.912-22.865-17.537 20.915zm18.912-22.865-28.937 36.415 9.1-6.2zm-20.137 24.515 20.137-24.515-18.912 22.865zm-0.875 1.1 21.012-25.615-20.137 24.515zm0 0-7.925 10.8 28.937-36.415zm-0.41875 0.44688-7.5062 10.353 7.925-10.8zm-0.30625 0.053124-7.2 10.3 7.5062-10.353zm-0.046875-0.56719-7.1531 10.867 7.2-10.3zm1.7469-11.333-8.9 22.2 7.1531-10.867z" fill="#DA3331"/>
	<path d="m19.55 30.125 8.2625-1.9375-4.8125 0.2125zm8.2625-1.9375 4.2697-0.065039-1.0244-0.017774zm4.2697-0.065039-4.4822 2.6525 4.8-2.575zm-4.4822 2.6525-4.8305 2.1938 1.3617-0.55zm-4.8305 2.1938-1.5494 0.2166 0.67988 0.01465zm-1.5494 0.2166-2.7826-0.47285 1.9234 0.37031zm-2.7826-0.47285-2.3375-0.7125 0.69531 0.28593zm-2.3375-0.7125 1.0781-0.64687-0.78164 0.43476zm1.0781-0.64687 10.634-3.1656-8.2625 1.9375zm10.634-3.1656-0.2125 2.5875 4.4822-2.6525zm-0.2125 2.5875-6.3799 2.4103 1.5494-0.2166zm-6.3799 2.4103-5.1201-1.1854 2.3375 0.7125zm-5.1201-1.1854 11.712-3.8125-10.634 3.1656zm11.712-3.8125-6.5924 4.9978 6.3799-2.4103zm-6.5924 4.9978 6.5924-4.9978-11.712 3.8125z" fill="#DA3331"/>
</svg>
