<?xml version="1.0" encoding="UTF-8"?>
<svg version="1.1" xmlns="http://www.w3.org/2000/svg" width="96" height="96">
<path d="M0 0 C1.0530835 -0.0107959 2.10616699 -0.0215918 3.19116211 -0.03271484 C17.44387204 0.22497899 27.91167164 7.00407899 37.81640625 16.79296875 C39.25 18.625 39.25 18.625 39.25 21.625 C39.91 21.625 40.57 21.625 41.25 21.625 C48.02696191 34.24417045 50.45885802 46.94885289 47.5234375 61.13671875 C44.87457105 69.54633133 41.54203791 77.38969073 34.25 82.625 C33.71375 83.40875 33.1775 84.1925 32.625 85 C26.09294129 92.21964383 14.84522464 96.55726317 5.19921875 97.05859375 C3.44545492 97.08098292 1.69130044 97.08180967 -0.0625 97.0625 C-0.97733154 97.05927734 -1.89216309 97.05605469 -2.8347168 97.05273438 C-10.0869627 96.90385188 -16.12056652 95.69951988 -22.75 92.625 C-23.17925781 93.27984375 -23.60851562 93.9346875 -24.05078125 94.609375 C-24.61152344 95.27453125 -25.17226563 95.9396875 -25.75 96.625 C-28.9375 96.875 -28.9375 96.875 -31.75 96.625 C-33.61253151 91.22365861 -35.32772592 85.79489784 -36.9375 80.3125 C-37.28167969 79.14074219 -37.62585937 77.96898438 -37.98046875 76.76171875 C-38.75 73.625 -38.75 73.625 -38.75 69.625 C-35.12900354 68.70882494 -32.63828367 68.62316301 -29.02734375 69.55078125 C-28.15916016 69.77056641 -27.29097656 69.99035156 -26.39648438 70.21679688 C-25.50251953 70.45462891 -24.60855469 70.69246094 -23.6875 70.9375 C-22.34075195 71.2768457 -22.34075195 71.2768457 -20.96679688 71.62304688 C-16.98388329 72.65060897 -13.39105913 73.67552598 -9.75 75.625 C-10.28069061 79.44597239 -11.24701566 81.68671403 -13.75 84.625 C0.44028847 86.42694139 11.478162 86.15107641 23.25390625 77.05078125 C25.25 75.625 25.25 75.625 27.25 75.625 C27.518125 75.06683594 27.78625 74.50867188 28.0625 73.93359375 C29.25 71.625 29.25 71.625 30.6875 69.28515625 C37.09499202 58.63270076 38.3703095 48.94219649 35.3828125 36.87109375 C33.98973665 32.87921088 32.12204247 29.73464729 29.5546875 26.39453125 C28.25 24.625 28.25 24.625 27.25 21.625 C25.765 21.13 25.765 21.13 24.25 20.625 C24.25 19.965 24.25 19.305 24.25 18.625 C23.26 18.625 22.27 18.625 21.25 18.625 C21.25 17.965 21.25 17.305 21.25 16.625 C20.445625 16.356875 19.64125 16.08875 18.8125 15.8125 C16.92253853 15.18251284 15.03426006 14.54581455 13.1640625 13.859375 C2.15655461 9.91984586 -5.66952646 10.37513124 -16.75 14.625 C-23.46445293 17.9772821 -28.13859837 22.78290276 -32.75 28.625 C-36.15312738 27.56624926 -38.76353231 26.61597846 -41.75 24.625 C-40.38618182 17.57076806 -34.95111404 12.00876259 -29.15234375 8.078125 C-28.35957031 7.59859375 -27.56679688 7.1190625 -26.75 6.625 C-25.84378906 6.06296875 -24.93757813 5.5009375 -24.00390625 4.921875 C-16.01222907 0.73529258 -8.92169936 0.05625531 0 0 Z " fill="#68BAE7" transform="translate(44.75,-0.625)"/>
<path d="M0 0 C15.84 0 31.68 0 48 0 C47.00931762 3.96272952 46.69073356 4.6846985 43.9375 7.3125 C43.30714844 7.91707031 42.67679688 8.52164063 42.02734375 9.14453125 C39.39416804 11.55447048 36.70443081 13.89325393 34 16.22265625 C30.86211898 19.01120286 27.92589677 21.99181238 25 25 C19.62797521 23.52933162 16.59620016 19.90138459 12.875 16 C11.64546193 14.72700633 10.41377245 13.45608625 9.1796875 12.1875 C8.64069824 11.62417969 8.10170898 11.06085937 7.54638672 10.48046875 C5.86280885 8.78235263 5.86280885 8.78235263 3 7 C3 6.34 3 5.68 3 5 C2.01 4.67 1.02 4.34 0 4 C0 2.68 0 1.36 0 0 Z " fill="#FFFFFF" transform="translate(21,43)"/>
<path d="M0 0 C10.89 0 21.78 0 33 0 C31.90250196 5.48749018 31.25434017 6.13873266 27.1875 9.5625 C23.38216166 12.8002033 23.38216166 12.8002033 19.81640625 16.29296875 C19.21699219 16.85628906 18.61757813 17.41960938 18 18 C15.75 17.75 15.75 17.75 14 17 C14 16.34 14 15.68 14 15 C13.01 14.67 12.02 14.34 11 14 C11 13.34 11 12.68 11 12 C10.01 11.67 9.02 11.34 8 11 C8 10.34 8 9.68 8 9 C7.01 8.67 6.02 8.34 5 8 C5 7.34 5 6.68 5 6 C4.360625 5.7525 3.72125 5.505 3.0625 5.25 C1 4 1 4 0 0 Z " fill="#C6C7C8" transform="translate(28,21)"/>
<path d="M0 0 C-0.61875 0.28875 -1.2375 0.5775 -1.875 0.875 C-4.13325765 1.93720042 -4.13325765 1.93720042 -6 4 C-6.39764263 5.98821313 -6.73775349 7.98944339 -7 10 C-9.29633824 6.55549263 -9.54016485 4.06187717 -10 0 C-6.7169902 -1.6415049 -3.57454967 -0.51888624 0 0 Z " fill="#86C9EC" transform="translate(16,69)"/>
<path d="M0 0 C0.66 0.33 1.32 0.66 2 1 C3.70702735 1.06996014 5.41668003 1.08440154 7.125 1.0625 C8.03507812 1.05347656 8.94515625 1.04445313 9.8828125 1.03515625 C10.93082031 1.01775391 10.93082031 1.01775391 12 1 C12 1.33 12 1.66 12 2 C6.83955235 3.512545 3.34001821 4.33500455 -2 3 C-1.34 2.01 -0.68 1.02 0 0 Z " fill="#7AC3EB" transform="translate(30,8)"/>
<path d="M0 0 C3.02419525 0.58803797 6.01758453 1.22678118 9 2 C5.17010894 3.80230168 2.21878192 4.19622241 -2 4 C-1.34 3.67 -0.68 3.34 0 3 C0 2.01 0 1.02 0 0 Z " fill="#82D2EF" transform="translate(51,92)"/>
<path d="M0 0 C2.64 0 5.28 0 8 0 C6.49336217 3.01327566 3.96833589 3.61056618 1 5 C0.67 3.35 0.34 1.7 0 0 Z " fill="#88CDEF" transform="translate(20,13)"/>
</svg>
