<?xml version="1.0" encoding="UTF-8"?>
<svg x="3" y="1.2" viewBox="0 0 37.4 38.5" xmlns="http://www.w3.org/2000/svg">
	<path d="m37.303 17.91 0.096823 1.9898v-0.1zm0.096823 1.9898-0.37676 3.7564 0.28103-1.8502zm-0.37676 3.7564-1.0811 3.4951 0.62395-1.7103zm-1.0811 3.4951-1.7115 3.16 0.92995-1.5335zm-1.7115 3.16-2.2682 2.751 1.199-1.3198zm-2.2682 2.751-2.751 2.2682 1.4312-1.0691zm-2.751 2.2682-3.16 1.7115 1.6265-0.78157zm-3.16 1.7115-3.4951 1.081 1.7848-0.4571zm-3.4951 1.081-3.7564 0.37676 1.9063-0.095726zm-3.7564 0.37676-7.2264-0.54317 1.5811 0.30098zm-7.2264-0.54317-1.0361-0.41933 0.46321 0.22439zm-1.0361-0.41933-1.2859-1.1891 0.58262 0.65254zm-2.9375-2.8375-3.1125 2.7125 0.5125-0.1125zm-3.1125 2.7125-1.4875-8.9125 1.2 8.5zm-1.4875-8.9125 0.6-0.6-0.45 0.1875zm0.6-0.6 9.0125 1.525-0.4125-0.325zm9.0125 1.525-2.6125 2.975 2.5-2.5zm-4.8906-20.695-4.7219 1.5703 2.7 1.6zm-4.7219 1.5703 2.8484-3.7422-1.5502 1.7721zm2.8484-3.7422 3.7391-2.8703-1.9662 1.3162zm3.7391-2.8703 4.3953-1.8391-2.265 0.78066zm4.3953-1.8391 4.8172-0.64844-2.4467 0.16543zm4.8172-0.64844 3.7277 0.38086-1.8379-0.28403zm3.7277 0.38086 3.4816 1.091-1.7052-0.62944zm3.4816 1.091 3.1582 1.7238-1.5338-0.93618zm3.1582 1.7238 5.0367 5.0367-2.2793-2.7574zm5.0367 5.0367 1.7238 3.1582-0.78765-1.6244zm1.7238 3.1582 1.091 3.4816-0.46157-1.7764zm1.091 3.4816 0.38086 3.8277-0.096823-1.9898zm0.38086 3.8277-1.4578 7.2516 1.0811-3.4951zm-1.4578 7.2516-3.9797 5.9109 2.2682-2.751zm-3.9797 5.9109-5.9109 3.9797 3.16-1.7115zm-5.9109 3.9797-7.2516 1.4578 3.7564-0.37676zm-7.2516 1.4578-8.2625-0.9625 1.0361 0.41933zm-8.2625-0.9625-1.96-1.9564 0.67402 0.76738zm-2.9375-2.8375-4.6-6.2 1.4875 8.9125zm-4.6-6.2 9.6125 0.925-9.0125-1.525zm5.8535-21.07-5.8535 2.8701 4.7219-1.5703zm-5.8535 2.8701 6.5875-6.6125-3.7391 2.8703zm6.5875-6.6125 9.2125-2.4875-4.8172 0.64844zm9.2125-2.4875 7.2094 1.4719-3.4816-1.091zm7.2094 1.4719 8.1949 6.7605-5.0367-5.0367zm8.1949 6.7605 2.8148 6.6398-1.091-3.4816zm2.8148 6.6398-1.077 11.079 1.4578-7.2516zm-1.077 11.079-9.8906 9.8906 5.9109-3.9797zm-9.8906 9.8906-15.514 0.49531 8.2625 0.9625zm-17.474-1.4611-5.5775-7.0811 4.6 6.2zm-5.5775-7.0811 7 3.9 2.6125-2.975zm7.175-22.163-7.175 3.9625 5.8535-2.8701zm-7.175 3.9625 15.8-9.1-9.2125 2.4875zm15.8-9.1 15.404 8.2324-8.1949-6.7605zm15.404 8.2324 1.7379 17.719 1.077-11.079zm-8.1527 27.61-17.474-1.4611 1.96 1.9564zm-17.474-1.4611 1.4225-3.1811-7-3.9zm2.355-29.708-7.9326 4.4269 7.175-3.9625zm-2.355 29.708 3.4615-1.9264-2.0391-1.2547zm2.355-29.708 7.8674-4.6731-15.8 9.1zm-2.355 29.708 5.66-1.0186-2.1984-0.90781zm3.1908-30.116 7.0316-4.2654-7.8674 4.6731zm-3.1908 30.116 7.9896-0.467-2.3297-0.55156zm5.1381-30.754 5.0844-3.6266-7.0316 4.2654zm12.336 32.216-9.4844-1.9281-7.9896 0.467zm-9.9527-32.608 2.7012-3.2338-5.0844 3.6266zm9.9527 32.608-7.0516-1.7422-2.4328-0.18594zm-7.0516-32.742-0.2-3.1-2.7012 3.2338zm7.0516 32.742-5.4779-1.8218-1.5737 0.07959zm-5.4779-32.663-1.7737-3.1796 0.2 3.1zm5.4779 32.663-3.9494-2.0555-1.5284 0.23369zm-3.9494-32.429-3.3022-3.4133 1.7737 3.1796zm3.9494 32.429-2.474-2.4356-1.4754 0.38017zm-2.474-32.049-4.7776-3.7935 3.3022 3.4133zm2.474 32.049-1.0594-2.9547-1.4146 0.51904zm-1.0594-31.53-6.1922-4.3125 4.7776 3.7935zm1.0594 31.53 0.28669-3.605-1.3461 0.65029zm0.28669-30.879-7.5383-4.9628 6.1922 4.3125zm-0.28669 30.879 1.5564-4.3789-1.2698 0.77393zm1.5564-30.105-8.808-5.7367 7.5383 4.9628zm8.3342 20.215-8.3342 5.5117-1.5564 4.3789zm-8.3342-20.215 6.5963 2.4957-15.404-8.2324zm8.3342 20.215-7.1485 4.6218-1.1857 0.88994zm-7.1485-19.325 5.4106 1.6058-6.5963-2.4957zm7.1485 19.325-6.0547 3.6234-1.0938 0.99834zm-6.0547-18.327 4.3168 0.60742-5.4106-1.6058zm6.0547 18.327-5.0605 2.5243-0.99422 1.0991zm-5.0605-17.227 3.3226-0.4917-4.3168-0.60742zm5.0605 17.227-4.1736 1.332-0.88684 1.1923zm-4.1736-16.035 2.4357-1.684-3.3226 0.4917zm4.1736 16.035-3.4019 0.054199-0.7717 1.2778zm-3.4019-14.757 1.664-2.9618-2.4357 1.684zm3.4019 14.757-2.7531-1.3016-0.6488 1.3558zm-2.7531-13.402 1.0152-4.3176-1.664 2.9618zm2.7531 13.402-2.235-2.7276-0.51814 1.4261zm-2.235-11.975 0.4971-5.7437-1.0152 4.3176zm2.235 11.975-1.8553-4.2164-0.37971 1.4888zm-1.8553-10.487 0.11739-7.2324-0.4971 5.7437zm1.8553 10.487-1.6218-5.7603-0.23352 1.5438zm-1.6218-8.9429-0.11614-8.7763-0.11739 7.2324zm1.6218 8.9429-1.5422-7.3516-0.079565 1.5913zm-1.5422-7.3516-0.1957-10.368 0.11614 8.7763zm-0.1957-10.368 0.1957 10.368 1.5422 7.3516z" fill="#5CB4E5"/>
	<path d="m24.1 18.7 1.0031 0.28125-0.90313-0.28125zm1.0031 0.28125 0.64375 1.575-0.096872-0.88125zm0.64375 1.575-6.0469 6.4438 5.6-5.6zm-6.0469 6.4438-1.1 0.45 0.5875-0.1125zm-1.1 0.45-1.1-0.45 0.5125 0.3375zm-1.1-0.45-6.0469-6.4438 0.44688 0.84375zm-6.0469-6.4438 0.64375-1.575-0.54688 0.69375zm0.64375-1.575 12.003-0.28125h-11.1zm12.003-0.28125 1.6469 1.8562-0.64375-1.575zm1.6469 1.8562-7.1469 6.8938 1.1-0.45zm-7.1469 6.8938-7.1469-6.8938 6.0469 6.4438zm-7.1469-6.8938 12.647-1.8562-12.003 0.28125zm12.647-1.8562-5.5 8.75 7.1469-6.8938zm-5.5 8.75 5.5-8.75-12.647 1.8562z" fill="#fff"/>
	<path d="m22 11 0.67344 0.16562-0.57344-0.16562zm0.67344 0.16562 0.39688 0.93125-0.057812-0.52188zm0.39688 0.93125-3.7703 3.9031 3.5-3.4zm-3.7703 3.9031h-1.4l0.7 0.3zm-1.4 0-3.7703-3.9031 0.27031 0.50312zm-3.7703-3.9031 0.39687-0.93125-0.33906 0.40938zm0.39687-0.93125 7.4734-0.16562h-6.9zm7.4734-0.16562 1.0703 1.0969-0.39688-0.93125zm1.0703 1.0969-5.1703 3.9031h1.4zm-5.1703 3.9031-3.3734-4.8344-0.39687 0.93125zm-3.3734-4.8344 8.5438 0.93125-1.0703-1.0969zm8.5438 0.93125-8.5438-0.93125 3.3734 4.8344z" fill="#fff" fill-opacity=".5"/>
</svg>
