<?xml version="1.0" encoding="UTF-8"?>
<svg version="1.1" viewBox="0 0 64 64" xmlns="http://www.w3.org/2000/svg">
    <path transform="translate(39,21)" d="m0 0c2.8711 1.1562 2.8711 1.1562 5 3 1.4176 3.8455 1.182 5.5516-0.36328 9.3594-0.64324 1.1189-1.2865 2.2378-1.9492 3.3906-0.63551 1.1292-1.271 2.2584-1.9258 3.4219-1.7617 2.8281-1.7617 2.8281-3.7617 4.8281-5.0201 0.74067-5.0201 0.74067-8 0-2.3046-1.9797-3.5898-4.3351-5-7-0.39316-0.6948-0.78633-1.3896-1.1914-2.1055-1.9999-3.7141-2.8086-5.5334-2.8086-9.8945 5.0764-6.5695 12.223-6.0916 20-5z" fill="#fff"/>
    <path transform="translate(37,13)" d="m0 0c4.7932-0.90438 6.8885-0.74293 11.016 2.0156 2.9727 2.4637 5.6927 4.8493 7.9844 7.9844 0.23464 5.6718-3.2268 10.712-5.875 15.562-0.4473 0.83725-0.89461 1.6745-1.3555 2.5371-0.86239 1.6065-1.7336 3.2083-2.615 4.8044-0.94084 1.708-1.8477 3.4347-2.7444 5.1663-0.69803 0.9552-0.69803 0.9552-1.4102 1.9297-3.6875 0.3125-3.6875 0.3125-7 0v-4l3-1c1.2244-1.6505 1.2244-1.6505 2.2266-3.7109 0.39188-0.75023 0.78375-1.5005 1.1875-2.2734 0.39961-0.78891 0.79922-1.5778 1.2109-2.3906 0.40734-0.78117 0.81469-1.5623 1.2344-2.3672 1.5886-3.072 3.0448-5.9704 4.1406-9.2578h2c-0.34347-3.2058-0.97079-3.9752-3.5-6.125l-2.5-1.875-1-2c-2.3216-0.40729-4.6569-0.74439-7-1l1-4z" fill="#fff"/>
    <path transform="translate(27,13)" d="m0 0 1 4c-1.5778 0.092812-1.5778 0.092812-3.1875 0.1875-5.5903 1.1914-7.7346 4.1957-10.812 8.8125v2h2c8 16 8 16 8.9341 18.181 0.99895 2.1629 0.99895 2.1629 4.0659 2.8193v4c-4.2203 1.0335-4.2203 1.0335-7 0-2.5483-3.1251-4.3079-6.5743-6.0898-10.181-0.93929-1.8771-1.9335-3.7161-2.9414-5.5571-4.9786-9.3215-4.9786-9.3215-4.9414-12.871 3.2234-7.9226 10.672-12.774 18.973-11.391z" fill="#fff"/>
</svg>
