<?xml version="1.0" encoding="UTF-8"?>
<svg width="163.64mm" height="156.87mm" version="1.1" viewBox="0 0 163.64 156.87" xmlns="http://www.w3.org/2000/svg">
  <g transform="translate(-14.542 -51.512)">
    <path transform="matrix(.26458 0 0 .26458 .87942 -2.3164)" d="m535.78 795.36-166.35-91.971a30.699 30.699 1.2047 0 0-28.565-0.60069l-170.07 84.896a7.9654 7.9654 37.205 0 1-11.378-8.638l36.064-186.63a30.699 30.699 73.205 0 0-8.2558-27.353l-133.3-135.51a7.9654 7.9654 109.2 0 1 4.6992-13.491l188.64-23.373a30.699 30.699 145.2 0 0 23.463-16.304l87.689-168.65a7.9654 7.9654 1.2047 0 1 14.282 0.30035l80.522 172.18a30.699 30.699 37.205 0 0 22.756 17.276l187.49 31.282a7.9654 7.9654 73.205 0 1 4.1279 13.676l-138.87 129.79a30.699 30.699 109.2 0 0-9.3984 26.981l28.187 187.98a7.9654 7.9654 145.2 0 1-11.731 8.152z" fill="#ff39cc"/>
  </g>
</svg>
