<?xml version="1.0" encoding="UTF-8" standalone="no"?>
<!-- Created with Inkscape (http://www.inkscape.org/) -->

<svg
   width="163.64034mm"
   height="156.8735mm"
   viewBox="0 0 163.64034 156.8735"
   version="1.1"
   id="svg5"
   xmlns="http://www.w3.org/2000/svg"
   xmlns:svg="http://www.w3.org/2000/svg">
  <defs
     id="defs2" />
  <g
     id="layer2"
     transform="translate(-14.541555,-51.512384)">
    <path
       id="path1579"
       style="fill:#ff39cc;fill-opacity:1"
       transform="matrix(0.26458333,0,0,0.26458333,0.87941661,-2.3164127)"
       d="M 535.77511,795.3607 369.42409,703.38985 a 30.699317,30.699317 1.204691 0 0 -28.56499,-0.60069 l -170.07031,84.89626 a 7.9653618,7.9653618 37.204691 0 1 -11.37825,-8.63802 l 36.0642,-186.62977 a 30.699315,30.699315 73.204691 0 0 -8.25578,-27.35254 L 53.923185,429.55299 a 7.9653618,7.9653618 109.20469 0 1 4.699179,-13.49065 L 247.26227,392.68966 a 30.699318,30.699318 145.20469 0 0 23.46264,-16.30411 l 87.68901,-168.64736 a 7.9653617,7.9653617 1.2046924 0 1 14.28249,0.30035 l 80.52168,172.18465 a 30.699316,30.699316 37.204692 0 0 22.75648,17.27605 l 187.49056,31.2823 a 7.965362,7.965362 73.204691 0 1 4.12789,13.67627 L 528.71825,572.24647 a 30.699317,30.699317 109.20469 0 0 -9.39836,26.98129 l 28.18654,187.98089 a 7.9653619,7.9653619 145.20469 0 1 -11.73132,8.15205 z" />
  </g>
</svg>
