<?xml version="1.0" encoding="UTF-8"?>
<svg x=".8" y="7.7" viewBox="0 0 39.1 32.6" xmlns="http://www.w3.org/2000/svg">
	<path d="m33.9 7.7 4.45 0.375-0.75-0.375zm4.45 0.375 0.75 1.125-0.23438-0.65625zm0.75 1.125-6.3625 22.4 0.4625-0.7zm-6.3625 22.4-1.1375 0.7 0.62969-0.21875zm-1.1375 0.7-3.3391-0.08594-0.26094 0.08594zm-1.3-2.8 5.5875-19.95-0.1875 0.65zm4.6125-21.388 3.4375-0.0375-4.45-0.375zm3.4375-0.0375-5.6125 23.525 6.3625-22.4zm-5.6125 23.525-4.4766 0.61406 3.3391 0.08594zm2.9625-23 2.65-0.525-3.4375 0.0375zm-2.9625 23-3.85 0.2375-0.62656 0.37656zm3.1734-22.581 2.4391-0.94375-2.65 0.525zm-3.1734 22.581-3.4729-0.11543-0.37715 0.35293zm3.15-22.05 2.4625-1.475-2.4391 0.94375zm-3.15 22.05-3.0922-0.60781-0.38066 0.49238zm-2.4375-2.1 8.05-21.425-2.4625 1.475zm2.4375 2.1-2.7373-1.2619-0.35488 0.6541zm-2.7373-1.2619 8.3498-22.263-8.05 21.425zm8.3498-22.263-8.3498 22.263 2.7373 1.2619z" fill="#fff"/>
	<path d="m9.6 10.5-5.5875 19.95 0.1875-0.65zm-4.6125 21.388-2.6875 0.4125h3.7zm-2.6875 0.4125-1.2656-0.84375 0.51562 0.46875zm-1.2656-0.84375 5.6656-22.356-5.9 21.7zm5.6656-22.356 0.97031-1.1813-0.50781 0.48125zm0.97031-1.1813 4.2297-0.21875h-3.6zm-3.4703 23.481-1.9 0.9 2.6875-0.4125zm-1.9 0.9 4.4-23.2-5.6656 22.356zm4.4-23.2 5.2-1.4-4.2297 0.21875zm-2.7109 21.881-1.6891 1.3188 1.9-0.9zm2.7109-21.881 4.9391-1.3141 0.26094-0.085937zm-2.6875 21.35-1.7125 1.85 1.6891-1.3188zm2.6875-21.35 4.3125-0.9375 0.62656-0.37656zm2.9 1.4-7.3 21.8 1.7125-1.85zm-2.9-1.4 3.9354-0.58457 0.37715-0.35293zm2.9 1.4-2.9-1.4-4.4 23.2zm-2.9-1.4 3.5547-0.092188 0.38066-0.49238zm3.1998 0.56192-3.1998-0.56192 2.9 1.4zm-3.1998-0.56192 3.1998 0.56192 0.35488-0.6541z" fill="#fff"/>
	<path d="m28.8 7.8 1.4766 0.37969-0.58906-0.29219zm1.4766 0.37969-4.7766 23.12 5-22.5zm-4.7766 23.12-0.54844 0.71719 0.33594-0.32969zm-0.54844 0.71719-1.4029 0.36894 0.85137-0.08613zm-1.4029 0.36894-6.3861 0.02637 4.7016 0.01406zm-6.3861 0.02637-7.175-0.6625 0.6125 0.55zm-7.175-0.6625-0.3875-1.45 0.029688 0.81875zm-0.3875-1.45 4.1-8.4-0.3-0.5zm4.1-8.4 2.8 3.4 1-3.4zm6.9 3.3 4.5-3.2h-3.6zm5.5-7-3.15-1.5875-0.45 1.5875zm-6.7-3.6-4.9 3.5h3.9zm-5.875 6.2203-3.925 9.4797 3.8-8.9zm-3.925 9.4797 5.2375-21.825-0.3375 0.625zm5.2375-21.825 1.1625-0.775-0.69844 0.30312zm1.1625-0.775 12.8 0.1v-0.1zm12.8 0.1-3.3 23.5 4.7766-23.12zm-3.3 23.5-1.9514 1.0861 1.4029-0.36894zm-1.9514 1.0861-13.561-0.63613 7.175 0.6625zm-13.561-0.63613 3.7125-9.85-4.1 8.4zm3.7125-9.85 3.1 3.9-0.3-0.5zm6.5 3.9 4.9-3.8-4.5 3.2zm6.1375-7.5375-3.3875-1.65 3.15 1.5875zm-6.5375-3.9625-5.3 3.8 4.9-3.5zm-6 5.5375-4.2 10.462 3.925-9.4797zm-4.2 10.462 6.4-22.6-1.1625 0.775zm15.9 1-15.512 0.45 13.561 0.63613zm-15.512 0.45 6.8125-5.95-3.1-3.9zm10.212-5.95 5.5125-3.9625-0.6125 0.1625zm6.1375-7.5375-2.9375-3.4625-0.45 1.8125zm-12.138 0.2375-4.6 11.8 4.2-10.462zm11.3 12.8-8.7-5.5-6.8125 5.95zm0.8375-13.038-3.2375-3.9625 0.3 0.5zm-12.138 0.2375 1.8-10.8-6.4 22.6zm11.3 12.8-5.3-5.5h-3.4zm-11-13.2 1.5-10.4-1.8 10.8zm11 13.2 0.2125-9.4625-5.5125 3.9625zm-5.7-17-3.8-6.6-1.5 10.4zm5.7 17 0.3-9.7-0.0875 0.2375zm-2.4-17-7.1-6.6 3.8 6.6zm2.4 17 1-12.6-0.7 2.9zm-2.4-17 5.7-6.5-12.8-0.1zm5.7-6.5-2.3 10.9-1 12.6zm-2.4625 10.462 2.4625-10.462-5.7 6.5zm2.4625-10.462-2.4625 10.462 0.1625 0.4375z" fill="#fff"/>
</svg>
