<?xml version="1.0" encoding="UTF-8"?>
<svg version="1.1" xmlns="http://www.w3.org/2000/svg" width="128" height="128">
<path d="M0 0 C1.60670311 -0.01395813 1.60670311 -0.01395813 3.24586487 -0.02819824 C4.97255653 -0.00360535 4.97255653 -0.00360535 6.73413086 0.02148438 C7.91994247 0.02144409 9.10575409 0.02140381 10.32749939 0.0213623 C12.83329572 0.02672236 15.33909135 0.04432545 17.84472656 0.07324219 C21.68793887 0.11511414 25.52940074 0.11431013 29.37280273 0.10742188 C31.80575767 0.11791328 34.23870354 0.13085111 36.67163086 0.14648438 C37.82478287 0.14668579 38.97793488 0.14688721 40.16603088 0.14709473 C41.76800575 0.17096252 41.76800575 0.17096252 43.40234375 0.1953125 C44.81321007 0.20794128 44.81321007 0.20794128 46.25257874 0.2208252 C48.63647461 0.61523438 48.63647461 0.61523438 50.40110779 1.82897949 C52.51379205 4.88377464 52.80158909 7.50882855 52.25888062 11.14543152 C51.90510849 12.4862957 51.90510849 12.4862957 51.54418945 13.85424805 C51.27996185 14.87689255 51.01573425 15.89953705 50.74349976 16.95317078 C50.29993637 18.60153679 50.29993637 18.60153679 49.84741211 20.28320312 C49.3969603 22.00643547 49.3969603 22.00643547 48.93740845 23.76448059 C47.97214278 27.44662594 46.99189338 31.1245982 46.01147461 34.80273438 C45.37379856 37.22891526 44.73706982 39.65534534 44.10131836 42.08203125 C42.57827322 47.88241066 41.0330256 53.67654362 39.47717285 59.46820068 C38.69486373 62.39666304 37.92775091 65.32865503 37.16479492 68.26220703 C36.73134389 69.89693412 36.29746045 71.53154665 35.86303711 73.16601562 C35.67808685 73.89249802 35.4931366 74.61898041 35.30258179 75.36747742 C34.33936763 78.93496049 33.6254164 81.37284265 30.63647461 83.61523438 C28.20788574 84.00964355 28.20788574 84.00964355 25.29467773 84.03515625 C23.6578302 84.05902405 23.6578302 84.05902405 21.98791504 84.08337402 C20.8097522 84.08357544 19.63158936 84.08377686 18.41772461 84.08398438 C17.208302 84.0915979 15.99887939 84.09921143 14.75280762 84.10705566 C12.19403144 84.11786821 9.63521109 84.12070512 7.07641602 84.11621094 C3.15168085 84.11523814 -0.77110369 84.15686115 -4.69555664 84.20117188 C-7.17862546 84.20637814 -9.66170111 84.20906708 -12.14477539 84.20898438 C-13.91201965 84.23357727 -13.91201965 84.23357727 -15.71496582 84.25866699 C-16.80619751 84.24936157 -17.8974292 84.24005615 -19.02172852 84.23046875 C-19.98308716 84.23252319 -20.9444458 84.23457764 -21.93493652 84.23669434 C-24.36352539 83.61523438 -24.36352539 83.61523438 -26.23428345 81.38357544 C-27.51038554 78.25520614 -27.50961942 76.96122092 -26.77319336 73.70654297 C-26.56208923 72.74174011 -26.35098511 71.77693726 -26.13348389 70.78289795 C-25.87939758 69.73756897 -25.62531128 68.69223999 -25.36352539 67.61523438 C-24.97538666 65.96385468 -24.97538666 65.96385468 -24.57940674 64.27911377 C-23.68518033 60.56315488 -22.75385703 56.85756718 -21.80883789 53.15429688 C-21.55429651 52.1527614 -21.55429651 52.1527614 -21.29461288 51.13099289 C-20.39950489 47.60982169 -19.49992092 44.08983141 -18.59643555 40.57080078 C-17.66839802 36.95249717 -16.75593791 33.33044941 -15.84684944 29.70734596 C-15.13986189 26.90152949 -14.42151674 24.09871093 -13.70006943 21.29658127 C-13.35856608 19.96208439 -13.02128879 18.62649821 -12.68844986 17.289814 C-12.22257322 15.42339315 -11.73894824 13.56142991 -11.25463867 11.69970703 C-10.98531525 10.642565 -10.71599182 9.58542297 -10.43850708 8.49624634 C-8.33753051 2.86550983 -6.18023528 -0.01348768 0 0 Z M10.63647461 23.61523438 C9.64647461 27.90523437 8.65647461 32.19523437 7.63647461 36.61523438 C3.01647461 36.61523438 -1.60352539 36.61523438 -6.36352539 36.61523438 C-7.35352539 42.06023438 -7.35352539 42.06023438 -8.36352539 47.61523438 C-4.40352539 47.94523437 -0.44352539 48.27523437 3.63647461 48.61523438 C3.11564128 50.56835938 2.59480794 52.52148438 2.07397461 54.47460938 C1.50298112 56.90425299 1.50298112 56.90425299 1.63647461 60.61523438 C5.59647461 60.61523438 9.55647461 60.61523438 13.63647461 60.61523438 C14.62647461 56.32523438 15.61647461 52.03523438 16.63647461 47.61523438 C21.25647461 47.61523438 25.87647461 47.61523438 30.63647461 47.61523438 C31.29647461 43.98523438 31.95647461 40.35523437 32.63647461 36.61523438 C28.34647461 36.61523438 24.05647461 36.61523438 19.63647461 36.61523438 C20.41772461 34.40169271 21.19897461 32.18815104 21.98022461 29.97460938 C22.81512322 27.38110699 22.81512322 27.38110699 22.63647461 23.61523438 C18.67647461 23.61523438 14.71647461 23.61523438 10.63647461 23.61523438 Z " fill="#43484c" transform="translate(51.363525390625,21.384765625)"/>
<path d="M0 0 C1.93166016 0.01740234 1.93166016 0.01740234 3.90234375 0.03515625 C5.19269531 0.04417969 6.48304687 0.05320312 7.8125 0.0625 C8.81152344 0.07410156 9.81054688 0.08570312 10.83984375 0.09765625 C7.83984375 2.09765625 7.83984375 2.09765625 5.83984375 2.09765625 C5.63520508 3.01087646 5.43056641 3.92409668 5.21972656 4.86499023 C3.13998997 13.98857741 0.8233458 23.03563249 -1.61328125 32.0703125 C-1.92036011 33.21245209 -2.22743896 34.35459167 -2.54382324 35.53134155 C-3.82272887 40.28384711 -5.10351142 45.03576662 -6.3984375 49.78393555 C-7.35410677 53.29368804 -8.29716433 56.8066342 -9.23828125 60.3203125 C-9.53196594 61.38500259 -9.82565063 62.44969269 -10.12823486 63.54664612 C-11.63681784 69.22048067 -12.69362849 74.22057043 -12.16015625 80.09765625 C-10.31827013 82.15036088 -10.31827013 82.15036088 -8.16015625 83.09765625 C-10.2636912 83.17867685 -12.36811577 83.23685532 -14.47265625 83.28515625 C-15.64441406 83.31996094 -16.81617188 83.35476562 -18.0234375 83.390625 C-21.16015625 83.09765625 -21.16015625 83.09765625 -23.078125 82.0859375 C-27.01451056 74.8526514 -22.48951467 64.47778592 -20.546875 57.0546875 C-20.17230557 55.59852056 -19.79835868 54.14219335 -19.42500305 52.68571472 C-18.64342682 49.64569397 -17.85511 46.60752742 -17.06176758 43.57055664 C-16.04767032 39.68671704 -15.04946909 35.79900243 -14.05612469 31.90981007 C-13.28738382 28.90649026 -12.51083725 25.90523191 -11.7318821 22.90454674 C-11.36084626 21.47186351 -10.99208157 20.03859003 -10.62567711 18.60471535 C-10.11202793 16.59998768 -9.58804924 14.59823798 -9.0612793 12.59692383 C-8.76593796 11.45967361 -8.47059662 10.3224234 -8.16630554 9.15071106 C-5.20363747 0.16080462 -5.20363747 0.16080462 0 0 Z " fill="#43484c" transform="translate(27.16015625,21.90234375)"/>
<path d="M0 0 C2.10353495 -0.0810206 4.20795952 -0.13919907 6.3125 -0.1875 C7.48425781 -0.22230469 8.65601563 -0.25710937 9.86328125 -0.29296875 C13 0 13 0 14.91796875 1.01171875 C18.14839993 6.94778182 15.24451959 14.95831574 13.5859375 21.03515625 C13.20775375 22.46788124 13.20775375 22.46788124 12.82192993 23.92955017 C12.01549619 26.97640286 11.19561672 30.01944019 10.375 33.0625 C9.84674073 35.0472826 9.31938986 37.0323072 8.79296875 39.01757812 C8.00340381 41.99432764 7.2115591 44.97034623 6.41131592 47.94424438 C5.01811875 53.12533865 3.66309162 58.31244005 2.36816406 63.51904297 C2.10298981 64.57353134 1.83781555 65.62801971 1.56460571 66.71446228 C1.05871156 68.73279341 0.56105967 70.75321368 0.07284546 72.77589417 C-0.15534882 73.68056931 -0.38354309 74.58524445 -0.61865234 75.51733398 C-0.81373383 76.31284164 -1.00881531 77.1083493 -1.20980835 77.92796326 C-2.11521594 80.3021187 -2.98383006 81.46227956 -5 83 C-8.35546875 83.29296875 -8.35546875 83.29296875 -12.1875 83.1875 C-13.45980469 83.16042969 -14.73210937 83.13335937 -16.04296875 83.10546875 C-17.01878906 83.07066406 -17.99460937 83.03585938 -19 83 C-16 81 -16 81 -14 81 C-13.69304199 79.63016968 -13.69304199 79.63016968 -13.37988281 78.23266602 C-11.30014622 69.10907884 -8.98350205 60.06202376 -6.546875 51.02734375 C-6.23979614 49.88520416 -5.93271729 48.74306458 -5.61633301 47.5663147 C-4.33742738 42.81380914 -3.05664483 38.06188963 -1.76171875 33.3137207 C-0.80604948 29.80396821 0.13700808 26.29102205 1.078125 22.77734375 C1.37180969 21.71265366 1.66549438 20.64796356 1.96807861 19.55101013 C3.47666159 13.87717558 4.53347224 8.87708582 4 3 C2.15811388 0.94729537 2.15811388 0.94729537 0 0 Z " fill="#43484c" transform="translate(109,22)"/>
</svg>
