<?xml version="1.0" encoding="UTF-8"?>
<svg version="1.1" xmlns="http://www.w3.org/2000/svg" width="128" height="128">
<path d="M0 0 C4.76060621 0.66857921 6.62031221 1.91899766 9.48394775 5.67877197 C15.5720758 15.00030656 15.54677349 25.53985065 15.390625 36.265625 C15.38314489 37.79546359 15.37746035 39.32531189 15.37347412 40.85516357 C15.35835661 44.84030612 15.31919913 48.82484565 15.2746582 52.80975342 C15.23340168 56.89261727 15.21539892 60.97558059 15.1953125 65.05859375 C15.15268743 73.03936719 15.08245589 81.01953862 15 89 C6.42 89 -2.16 89 -11 89 C-11.09081214 80.21078167 -11.16400825 71.42188118 -11.20724869 62.63229752 C-11.22801478 58.54977058 -11.25612795 54.46758466 -11.30175781 50.38525391 C-11.34561226 46.43649758 -11.36921937 42.48806669 -11.37950897 38.53908539 C-11.38683008 37.04176469 -11.40112391 35.54445931 -11.42292023 34.04727936 C-11.59865522 21.4614729 -10.46158501 10.70399123 -1.390625 1.328125 C-0.93171875 0.88984375 -0.4728125 0.4515625 0 0 Z " fill="#31da7d" transform="translate(62,7)"/>
<path d="M0 0 C3.73389068 0.50629026 5.6745654 1.10768376 8.125 4 C8.60195312 4.53625 9.07890625 5.0725 9.5703125 5.625 C14.89293488 14.46695193 14.39557802 23.70227737 14.29296875 33.62890625 C14.28736409 35.23029684 14.28309811 36.83169261 14.28010559 38.43309021 C14.2687252 42.62035665 14.23931786 46.80730419 14.20599365 50.9944458 C14.17514484 55.27815438 14.1615688 59.56191516 14.14648438 63.84570312 C14.11444053 72.23063043 14.06172947 80.61523864 14 89 C5.75 89 -2.5 89 -11 89 C-11.09074739 80.06312704 -11.16397158 71.12656533 -11.20724869 62.18933392 C-11.22803052 58.03840052 -11.25617348 53.88780154 -11.30175781 49.73706055 C-11.3455548 45.72347081 -11.36920763 41.71020061 -11.37950897 37.69639015 C-11.38684017 36.17312409 -11.40115459 34.64987342 -11.42292023 33.12674522 C-11.56274182 22.92682697 -10.97462031 13.84075302 -5.078125 5.17578125 C-4.47484375 4.56089844 -3.8715625 3.94601563 -3.25 3.3125 C-2.63640625 2.66925781 -2.0228125 2.02601562 -1.390625 1.36328125 C-0.93171875 0.91339844 -0.4728125 0.46351563 0 0 Z " fill="#31da7d" transform="translate(98,7)"/>
<path d="M0 0 C2.64930544 0.07792075 4.4527302 0.55630556 6.52734375 2.23828125 C15.35644234 11.65149324 15.56514844 23.17381974 15.390625 35.38671875 C15.38314738 36.94040695 15.37746166 38.49410471 15.37347412 40.04780579 C15.35833711 44.10036109 15.31916171 48.1523259 15.2746582 52.20465088 C15.23344481 56.35445167 15.21540795 60.50434961 15.1953125 64.65429688 C15.1526528 72.76982996 15.08240418 80.88477308 15 89 C6.75 89 -1.5 89 -10 89 C-10.09067735 79.78508839 -10.16393182 70.57047724 -10.20724869 61.35521889 C-10.22804759 57.07534723 -10.2562227 52.79579891 -10.30175781 48.51611328 C-10.34549267 44.37933589 -10.36919487 40.24286782 -10.37950897 36.10587692 C-10.38685112 34.53433748 -10.40118766 32.96281333 -10.42292023 31.39140701 C-10.59228596 18.62760468 -9.0874103 9.5004744 0 0 Z " fill="#31da7d" transform="translate(26,7)"/>
<path d="M0 0 C8.58 0 17.16 0 26 0 C26 4.62 26 9.24 26 14 C17.42 14 8.84 14 0 14 C0 9.38 0 4.76 0 0 Z " fill="#31da7d" transform="translate(51,105)"/>
<path d="M0 0 C8.25 0 16.5 0 25 0 C25 4.62 25 9.24 25 14 C16.75 14 8.5 14 0 14 C0 9.38 0 4.76 0 0 Z " fill="#31da7d" transform="translate(87,105)"/>
<path d="M0 0 C8.25 0 16.5 0 25 0 C25 4.62 25 9.24 25 14 C16.75 14 8.5 14 0 14 C0 9.38 0 4.76 0 0 Z " fill="#31da7d" transform="translate(16,105)"/>
</svg>
