<?xml version="1.0" encoding="UTF-8"?>
<svg x="2.6" y="2.1" viewBox="0 0 36.7 37.9" xmlns="http://www.w3.org/2000/svg">
	<path d="m10.8 30.4-8.2-22.4v22.4zm-8.2-22.4 0.21621-1.8668-0.15215 0.94492zm0.21621-1.8668 0.5135-1.6334-0.21721 0.55024zm0.5135-1.6334 0.60259-1.0313-0.33132 0.49839zm0.60259-1.0313 0.86685-0.82393-0.46946 0.37739zm0.86685-0.82393 1.1792-0.47822-0.63162 0.18726zm1.1792-0.47822 1.4434 0.0011229-0.7217-0.067383zm1.4434 0.0011229 1.1792 0.48633-0.54754-0.2959zm1.1792 0.48633 0.86685 0.83789-0.39739-0.4541zm0.86685 0.83789 0.8198 1.6084-0.48848-1.1016zm0.8198 1.6084 0.44844 2.0625-0.15215-0.96094zm0.44844 2.0625 0.064063 23.237v-22.3zm0.064063 23.237-7.9838-24.267-0.21621 1.8668zm-7.9838-24.267 1.1161-2.6648-0.60259 1.0313zm1.1161-2.6648 2.046-1.3021-1.1792 0.47822zm2.046-1.3021 2.6226 0.48745-1.1792-0.48633zm2.6226 0.48745 1.6866 2.4463-0.8198-1.6084zm1.6866 2.4463 0.5125 25.3-0.064063-23.237zm0.5125 25.3-6.8677-26.932-1.1161 2.6648zm-6.8677-26.932 4.6686-0.8147-2.6226-0.48745zm4.6686-0.8147 2.1991 27.746-0.5125-25.3zm2.1991 27.746-2.1991-27.746-4.6686 0.8147z" fill="#31DA7D"/>
	<path d="m2.6 37.1 8.2-3.6h-8.2zm8.2-3.6-0.1375 4.1625 0.1375-0.4625zm-0.1375 4.1625-7.2625 0.2375h6.6zm-7.2625 0.2375-0.8-0.8 0.1 0.4zm-0.8-0.8 8.0625 0.5625 0.1375-4.1625zm8.0625 0.5625-8.0625-0.5625 0.8 0.8z" fill="#31DA7D"/>
	<path d="m24.1 30.4-8.2-22.4v22.4zm-8.2-22.4 0.21621-1.8668-0.15215 0.94492zm0.21621-1.8668 0.5135-1.6334-0.21721 0.55024zm0.5135-1.6334 0.60259-1.0313-0.33132 0.49839zm0.60259-1.0313 0.86685-0.82393-0.46946 0.37739zm0.86685-0.82393 1.1792-0.47822-0.63162 0.18726zm1.1792-0.47822 1.4434 0.0011229-0.7217-0.067383zm1.4434 0.0011229 1.1792 0.48633-0.54754-0.2959zm1.1792 0.48633 0.86685 0.83789-0.39739-0.4541zm0.86685 0.83789 0.8198 1.6084-0.48848-1.1016zm0.8198 1.6084 0.44844 2.0625-0.15215-0.96094zm0.44844 2.0625 0.064062 23.237v-22.3zm0.064062 23.237-7.9838-24.267-0.21621 1.8668zm-7.9838-24.267 1.1161-2.6648-0.60259 1.0313zm1.1161-2.6648 2.046-1.3021-1.1792 0.47822zm2.046-1.3021 2.6226 0.48745-1.1792-0.48633zm2.6226 0.48745 1.6866 2.4463-0.8198-1.6084zm1.6866 2.4463 0.5125 25.3-0.064062-23.237zm0.5125 25.3-6.8677-26.932-1.1161 2.6648zm-6.8677-26.932 4.6686-0.8147-2.6226-0.48745zm4.6686-0.8147 2.1991 27.746-0.5125-25.3zm2.1991 27.746-2.1991-27.746-4.6686 0.8147z" fill="#31DA7D"/>
	<path d="m15.9 37.1 0.1-3.6h-0.1zm0.1-3.6 8.1 3.7v-3.7zm8.1 3.7-0.8 0.7 0.6625-0.2375zm-0.8 0.7-7.3-0.4 0.7 0.4zm-7.3-0.4 1e-6 -4-0.1 3.6zm1e-6 -4 7.3 4.4 0.8-0.7zm7.3 4.4-7.3-4.4-1e-6 4z" fill="#31DA7D"/>
	<path d="m36.6 30.4-8.2-22.4v22.4zm-8.2-22.4 0.21621-1.8668-0.15215 0.94492zm0.21621-1.8668 0.5135-1.6334-0.21721 0.55024zm0.5135-1.6334 0.60259-1.0313-0.33132 0.49839zm0.60259-1.0313 0.86685-0.82393-0.46946 0.37739zm0.86685-0.82393 1.1792-0.47822-0.63162 0.18726zm1.1792-0.47822 1.4434 0.0011229-0.7217-0.067383zm1.4434 0.0011229 1.1792 0.48633-0.54754-0.2959zm1.1792 0.48633 0.86684 0.83789-0.39739-0.4541zm0.86684 0.83789 0.8198 1.6084-0.48848-1.1016zm0.8198 1.6084 0.44844 2.0625-0.15214-0.96094zm0.44844 2.0625 0.064066 23.237v-22.3zm0.064066 23.237-7.9838-24.267-0.21621 1.8668zm-7.9838-24.267 1.1161-2.6648-0.60259 1.0313zm1.1161-2.6648 2.046-1.3021-1.1792 0.47822zm2.046-1.3021 2.6226 0.48745-1.1792-0.48633zm2.6226 0.48745 1.6866 2.4463-0.8198-1.6084zm1.6866 2.4463 0.5125 25.3-0.064066-23.237zm0.5125 25.3-6.8677-26.932-1.1161 2.6648zm-6.8677-26.932 4.6686-0.8147-2.6226-0.48745zm4.6686-0.8147 2.1991 27.746-0.5125-25.3zm2.1991 27.746-2.1991-27.746-4.6686 0.8147z" fill="#31DA7D"/>
	<path d="m28.5 37.1 0.1-3.6h-0.1zm0.1-3.6 8.1 3.7v-3.7zm8.1 3.7-0.8 0.7 0.6625-0.2375zm-0.8 0.7-7.3-0.4 0.7 0.4zm-7.3-0.4v-4l-0.1 3.6zm0-4 7.3 4.4 0.8-0.7zm7.3 4.4-7.3-4.4v4z" fill="#31DA7D"/>
</svg>
