<?xml version="1.0" encoding="UTF-8"?>
<svg x="6.2" y="8.1" viewBox="0 0 191.8 236.3" xmlns="http://www.w3.org/2000/svg">
	<path d="m189.4 116 2.2047 8.4391-0.20469-0.83906zm2.2047 8.4391-0.19063 1.6781 0.19844-0.82968zm-0.19063 1.6781-8.1141 14.783 7.7-14zm-8.1141 14.783-1.1 1.1 0.59688-0.48438zm-1.1 1.1-1.4 0.5 0.72814-0.16562zm-39.5 2.4-1.3859-0.05784 0.68066 0.09748zm-1.3859-0.05784-1.2266-0.55467 0.58573 0.33299zm-1.2266-0.55467-0.9453-0.94842 0.42987 0.51698zm-0.9453-0.94842-0.5422-1.2391 0.21311 0.64942zm-0.5422-1.2391-2.7098-11.414 0.10977 0.71407zm-2.7098-11.414 0.21173-1.3812-0.17383 0.67656zm0.21173-1.3812 0.70859-1.1938-0.41055 0.56406zm0.70859-1.1938 1.1117-0.85626-0.6004 0.37657zm1.1117-0.85626 47.078-13.055-46.4 12.8zm47.078-13.055 1.3484-0.10469-0.67128-0.01387zm1.3484-0.10469 1.2641 0.39218-0.61386-0.2541zm1.2641 0.39218 1.0578 0.82344-0.4955-0.46153zm1.0578 0.82344 0.7297 1.1891-0.31623-0.63613zm0.7297 1.1891 2.0141 10.117 0.19063-1.6781zm2.0141 10.117-9.2141 15.883 1.1-1.1zm-9.2141 15.883-39.5 2.4 38.1-1.9zm-39.5 2.4-2.6125-0.61251 1.2266 0.55467zm-2.6125-0.61251-1.4875-2.1875 0.5422 1.2391zm-1.4875-2.1875-2.498-12.795-0.21173 1.3812zm-2.498-12.795 1.8203-2.05-1.1117 0.85626zm1.8203-2.05 48.426-13.159-1.3484 0.10469zm48.426-13.159 2.3219 1.2156-1.0578-0.82344zm2.3219 1.2156 2.7438 11.306-2.0141-10.117zm2.7438 11.306-48.714 18.283 39.5-2.4zm-48.714 18.283-4.1-2.8 1.4875 2.1875zm-4.1-2.8-0.67773-14.845-1.8203 2.05zm-0.67773-14.845 50.748-11.944-2.3219-1.2156zm50.748-11.944-45.97 29.589 48.714-18.283zm-45.97 29.589-4.7777-17.645 0.67773 14.845zm-4.7777-17.645 4.7777 17.645 45.97-29.589z" fill="#fff"/>
	<path d="m173.2 77.8 0.56575-0.21983-0.56575 0.11983zm0.56575-0.21983 1.35 0.23144-0.70857-0.18896zm1.35 0.23144 2.4418 1.2876-1.6748-0.96796zm2.4418 1.2876 8.9424 7.3008-7.1375-6zm8.9424 7.3008 0.86093 0.92812-0.40176-0.48866zm0.86093 0.92812 0.62656 1.0969-0.28339-0.56602zm0.62656 1.0969 0.38283 1.2094-0.16036-0.61524zm0.38283 1.2094 0.12968 1.2656-0.03262-0.63632zm0.12968 1.2656-1.4031 14.177 0.50312-0.57657zm-1.4031 14.177-1.2688 0.92811 0.67188-0.41718zm-1.2688 0.92811-46.628 14.795 45.9-14.5zm-46.628 14.795-2.2656 0.4 1.134-0.11328zm-2.2656 0.4-2.2094-0.275 1.0894 0.21953zm-2.2094-0.275-2.0219-0.9125 0.97931 0.5336zm-2.0219-0.9125-1.7031-1.5125 0.80353 0.8289zm-1.7031-1.5125-5.4778-6.7744 0.27783 0.47437zm-5.4778-6.7744-0.40342-2.21 0.20234 1.5895zm-0.40342-2.21 1.1812-9.8156-1 5.875zm1.1812-9.8156 0.91192-1.2486-0.61922 0.65661zm0.91192-1.2486 10.876-5.7639-8.6359 4.2234zm10.876-5.7639 35.678-15.107-0.56575 0.21983zm35.678-15.107 3.7918 1.519-2.4418-1.2876zm3.7918 1.519 9.8033 8.2289-0.86093-0.92812zm9.8033 8.2289 1.0094 2.3063-0.38283-1.2094zm1.0094 2.3063-1.2734 15.442 1.4031-14.177zm-1.2734 15.442-47.897 15.723 46.628-14.795zm-47.897 15.723-4.475 0.125 2.2094 0.275zm-4.475 0.125-3.725-2.425 1.7031 1.5125zm-3.725-2.425-5.8812-8.9844 0.40342 2.21zm-5.8812-8.9844 2.0932-11.064-0.91192 1.2486zm2.0932-11.064 46.554-20.871-35.678 15.107zm46.554-20.871 13.595 9.748-9.8033-8.2289zm13.595 9.748-0.26405 17.748 1.2734-15.442zm-0.26405 17.748-52.372 15.848 4.475-0.125zm-52.372 15.848-9.6062-11.409 5.8812 8.9844zm-9.6062-11.409 48.647-31.935-46.554 20.871zm48.647-31.935 13.331 27.496 0.26405-17.748zm13.331 27.496-61.978 4.4391 9.6062 11.409zm-61.978 4.4391 61.978-4.4391-13.331-27.496z" fill="#fff"/>
	<path d="m160.2 35.85-23.799 14.05 23.3-13.4zm-23.799 14.05 5.4-40.3-21.7 11.5zm5.4-40.3 1.3656-0.21367-0.7496 0.022314zm1.3656-0.21367 1.8344 0.39805-0.96759-0.26743zm1.8344 0.39805 4.55 2.1156-2.3781-1.2348zm4.55 2.1156 9.5254 6.4146-0.5754-0.51465zm9.5254 6.4146 0.98203 1.1746-0.46055-0.60957zm0.98203 1.1746 0.71015 1.3293-0.31758-0.68105zm0.71015 1.3293 0.38202 1.4371-0.14647-0.7291zm0.38202 1.4371-0.0996 8.8818 0.15-8.1375zm-0.0996 8.8818-0.64601 4.1766 0.17725-0.65633zm-0.64601 4.1766-24.004 14.586 23.799-14.05zm-24.004 14.586 6.7656-40.514-1.3656 0.21367zm6.7656-40.514 6.3844 2.5137-4.55-2.1156zm6.3844 2.5137 10.507 7.5893-0.98203-1.1746zm10.507 7.5893 1.0922 2.7664-0.38202-1.4371zm1.0922 2.7664-0.74561 13.058 0.64601-4.1766zm-0.74561 13.058-17.238-25.928-6.7656 40.514zm-17.238-25.928 16.892 10.103-10.507-7.5893zm16.892 10.103 0.34656 15.825 0.74561-13.058zm0.34656 15.825-0.34656-15.825-16.892-10.103z" fill="#fff"/>
	<path d="m150.6 70.6 11.5-28.5-22.3 12.7zm11.5-28.5 2.1703 0.26562-1.3271-0.33555zm2.1703 0.26562 11.63 5.9344-7.9875-4.375zm11.63 5.9344 1.3016 0.99844-0.61856-0.54083zm1.3016 0.99844 1.0109 1.2891-0.46504-0.67558zm1.0109 1.2891 0.65468 1.4953-0.2787-0.76816zm0.65468 1.4953 0.23281 1.6172-0.05956-0.81855zm0.23281 1.6172 0.05625 10.308 0.06874-3.0703zm0.05625 10.308-0.25625 1.6922 0.15624-0.62637zm-0.25625 1.6922-2.4703 4.6359 0.37031-0.63594zm-2.4703 4.6359-1.0781 1.0094 0.58594-0.45781zm-1.0781 1.0094-35.652 16.855 35-16.5zm-24.395-0.11953 11.144-29.126-11.5 28.5zm11.144-29.126 13.8 6.2-11.63-5.9344zm13.8 6.2 2.3125 2.2875-1.0109-1.2891zm2.3125 2.2875 0.88749 3.1125-0.23281-1.6172zm0.88749 3.1125-0.2 12 0.25625-1.6922zm-0.2 12-3.5484 5.6453 1.0781-1.0094zm-3.5484 5.6453-24.952 4.6547-10.7 12.2zm-24.15 0.54844 10.898-29.794-11.144 29.126zm10.898-29.794 16.113 8.4875-2.3125-2.2875zm16.113 8.4875 0.68749 15.112 0.2-12zm0.68749 15.112-28.5 10.3 24.952-4.6547zm-27.563 6.8898 10.763-30.49-10.898 29.794zm10.763-30.49 16.8 23.6-0.68749-15.112zm16.8 23.6-28.102 9.6742-0.39823 0.62579zm-27.538 7.6 10.738-31.2-10.763 30.49zm27.538-7.6-27.808 9.0062-0.29397 0.66796zm-27.619 8.3102 10.819-31.91-10.738 31.2zm10.819-31.91-11.008 32.606 27.808-9.0062zm-11.008 32.606 11.008-32.606-10.819 31.91z" fill="#fff"/>
	<path d="m135.3 150.9 0.75112 0.02285-0.65112-0.32285zm17.95 0.15 14.387 2.9531 2.2625-4.0031zm14.387 2.9531-12.347 14.952 5.3594-5.5301zm-12.347 14.952-14.637 10.273 7.9844-4.8434zm-14.637 10.273-14.397 5.7387 5.0443-1.9664zm-47.353 33.535-25.647 20.794 7.7469 2.7438zm-25.647 20.794-29.978-17.803 11.3 8.1219zm-29.978-17.803-22.243-24.166 10.777 13.494zm-22.243-24.166 10.343-30.262-19.575 13.675zm31.57-47.18 22.998 9.1922-18.8-13.6zm22.998 9.1922-19.6-59 0.2 28.8zm-19.6-59 22.75-53.725-22.15 13.025zm22.75-53.725 31.252-16.175-1.0022 0.30028zm31.252-16.175 1.9427-0.28019-0.96106 0.08842zm1.9427-0.28019 1.86 0.11254-0.91966-0.10278zm1.86 0.11254 2.6341 0.8148-1.7352-0.62417zm2.6341 0.8148 3.2186 2.0754-1.5672-1.1618zm3.2186 2.0754 7.6096 9.8684-4.7297-6.9656zm10.942 16.178 17.8 27.916-0.3-0.61562zm17.8 27.916 0.15001 1.2687-1e-5 -0.63438zm0.15001 1.2687-1.6641 3.9781 1.514-3.3625zm-1.6641 3.9781-4.0025 6.0398 1.5041-1.9273zm-4.0025 6.0398-2.4462 2.2684 0.83313-0.6458zm-2.4462 2.2684-1.6909 0.85802 0.84764-0.34991zm-1.6909 0.85802-5.6979 0.15869 4.8516 0.0125zm-5.6979 0.15869-10.828-2.125 5.2922 1.4375zm-10.828-2.125-3.2509-1.6154 0.98622 0.59199zm-3.2509-1.6154-1.6859-1.4136 0.81643 0.76658zm-1.6859-1.4136-2.4976-3.3506 1.667 2.3861zm-2.4976-3.3506-6.2859-12.783 3.1875 7.1375zm-6.2859-12.783-0.47461 1.735 0.29023-0.88964zm-0.47461 1.735-1.1758 2.1566 0.7004-1.1041zm-1.1758 2.1566-0.96523 1.0443 0.51821-0.50774zm-0.96523 1.0443-1.2699 0.87325 0.67554-0.40828zm-1.2699 0.87325-1.6145 0.59082 0.85279-0.25315zm-7.8145 2.3908 11.559 11.18-4.8594-5.4422zm11.559 11.18 2.3823 4.2616-0.60063-1.4016zm2.3823 4.2616-0.84165 53.459 1.2-52.1zm-0.84165 53.459 6.5548-27.372-0.25485 0.8715zm6.5548-27.372 0.72878-1.2086-0.39909 0.51857zm0.72878-1.2086 0.98462-0.56323-0.52156 0.20599zm0.98462-0.56323 1.1969 0.0014-0.62229-0.066236zm1.1969 0.0014 1.3658 0.48531-0.70126-0.2981zm1.3658 0.48531 2.27 1.4587-1.5374-1.0598zm2.27 1.4587 8.9631 9.4588-5.7516-6.5734zm8.9631 9.4588 5.1734 14.289-2.6375-10.95zm8.9359 26.739 2.0418 0.24844-1.2907-0.22559zm6.1656 0.45 26.172 2.6531-14.387-2.9531zm26.172 2.6531-26.984 25.225 14.637-10.273zm-56.378 40.827-43.606 38.727 25.647-20.794zm-43.606 38.727-52.221-41.969 22.243 24.166zm-52.221-41.969 25.418-41.844-15.075 11.581zm25.418-41.844 29.15 3.8563-22.998-9.1922zm29.15 3.8563 3.15-112.72-22.75 53.725zm3.15-112.72 33.195-16.455-1.9427 0.28019zm33.195-16.455 4.4941 0.92734-2.6341-0.8148zm4.4941 0.92734 10.828 11.944-7.6096-9.8684zm14.161 18.253 17.95 29.184-0.15001-1.2687zm17.95 29.184-5.6666 10.018 4.0025-6.0398zm-5.6666 10.018-4.1371 3.1265 1.6909-0.85802zm-4.1371 3.1265-16.526-1.9663 10.828 2.125zm-16.526-1.9663-4.9367-3.0291 1.6859 1.4136zm-4.9367-3.0291-8.7836-16.133 6.2859 12.783zm-8.7836-16.133-1.6504 3.8916 1.1758-2.1566zm-1.6504 3.8916-2.2352 1.9176 1.2699-0.87325zm-2.2352 1.9176-6.4395 1.8658 4.825-1.275zm-7.8145 2.3908 13.942 15.441-2.3823-4.2616zm13.1 68.9 7.2836-28.58-0.72878 1.2086zm7.2836-28.58 2.1816-0.56183-1.1969-0.0014zm2.1816-0.56183 3.6358 1.944-2.27-1.4587zm3.6358 1.944 14.137 23.748-5.1734-14.289zm19.941 36.446 30.296 2.8547-26.172-2.6531zm30.296 2.8547-41.382 30.963 14.397-5.7387zm-56.378 40.827-95.827-3.2422 52.221 41.969zm-95.827-3.2422 54.568-37.988-29.15-3.8563zm57.718-150.71 37.689-15.528-4.4941-0.92734zm37.689-15.528 14.161 18.253-3.3328-6.3094zm14.161 18.253 12.283 39.202 5.6666-10.018zm12.283 39.202-20.663 1.1602 16.526 1.9663zm-20.663 1.1602-13.72-19.162 8.7836 16.133zm-13.72-19.162-3.8855 5.8092 2.2352-1.9176zm-11.7 8.2 13.1 68.9 0.84165-53.459zm13.1 68.9 9.4652-29.142-2.1816 0.56183zm9.4652-29.142 17.772 25.692-14.137-23.748zm23.577 38.39-11.086 33.818 41.382-30.963zm-16.138 36.525-105.77 3.9142 95.827 3.2422zm-48.054-146.8 51.85 2.725-14.161-18.253zm51.85 2.725-8.3797 40.362 20.663-1.1602zm-22.1 21.2-10.325 7.675 6.4395-1.8658zm1.4 77.1 27.238-3.45-17.772-25.692zm31 9-9.0443 34.066 11.086-33.818zm-9.0443 34.066-110.82 6.6211 105.77-3.9142zm-1.2557-141.37-22.1 21.2 13.72 19.162zm-22.1 21.2-11.7 8.2 1.375-0.525zm1.4 77.1 29.367 4.5-2.1297-7.95zm30.681 8.4076-8.7252 34.659 9.0443-34.066zm-8.7252 34.659-56.256-31.366-54.568 37.988zm-53.106-144.09 29.75 23.925 22.1-21.2zm31.15 101.02 30.294 7.4203-0.92716-2.9203zm30.294 7.4203-8.3386 35.646 8.7252-34.659zm-61.444-108.45 18.05 32.125 11.7-8.2zm31.15 101.02 21.956 43.066 8.3386-35.646zm-34.3 11.7 21.2-80.6-18.05-32.125zm34.3-11.7-34.3 11.7 56.256 31.366zm-34.3 11.7 34.3-11.7-13.1-68.9z" fill="#fff"/>
</svg>
