<?xml version="1.0" encoding="UTF-8"?>
<svg version="1.1" xmlns="http://www.w3.org/2000/svg" width="96" height="96">
<path d="M0 0 C3.34219112 1.11406371 3.59054685 1.48772058 5.3046875 4.3515625 C5.93310547 5.38216797 5.93310547 5.38216797 6.57421875 6.43359375 C7.00347656 7.15675781 7.43273437 7.87992187 7.875 8.625 C8.72426187 10.03524219 9.57581417 11.44410768 10.4296875 12.8515625 C10.84831055 13.54411133 11.26693359 14.23666016 11.69824219 14.95019531 C12.99045127 16.98496415 14.37887738 18.90488171 15.8203125 20.8359375 C18 24 18 24 18 27 C18.66 27 19.32 27 20 27 C21.4375 29.01171875 21.4375 29.01171875 23 31.6875 C23.515625 32.55761719 24.03125 33.42773438 24.5625 34.32421875 C25.91214843 36.83647195 27.00011557 39.33203915 28 42 C28.66 42 29.32 42 30 42 C31.5471219 44.4571936 32.04484402 45.632279 31.6875 48.5625 C31.17232879 50.38901612 30.60013019 52.19960942 30 54 C29.34 54 28.68 54 28 54 C27.731875 54.71542969 27.46375 55.43085937 27.1875 56.16796875 C25.98268693 59.04128939 24.58762888 61.63337626 23 64.3125 C22.2265625 65.63701172 22.2265625 65.63701172 21.4375 66.98828125 C20.963125 67.65214844 20.48875 68.31601563 20 69 C19.34 69 18.68 69 18 69 C17.92136719 69.52207031 17.84273437 70.04414062 17.76171875 70.58203125 C16.69134726 73.97977461 14.76609152 76.74423146 12.8125 79.6875 C12.20619751 80.61199951 12.20619751 80.61199951 11.58764648 81.55517578 C10.77487833 82.79298728 9.95988675 84.02934195 9.14257812 85.26416016 C8.12762409 86.80610956 7.13264438 88.36116523 6.140625 89.91796875 C5.35945312 91.13419922 5.35945312 91.13419922 4.5625 92.375 C4.11003906 93.08398438 3.65757812 93.79296875 3.19140625 94.5234375 C2.79824219 95.01070313 2.40507813 95.49796875 2 96 C1.34 96 0.68 96 0 96 C-0.1242965 91.42856598 -0.21466121 86.85813122 -0.2746582 82.28540039 C-0.29968689 80.73249155 -0.33372131 79.17969916 -0.37719727 77.62719727 C-0.7748742 63.05350713 -0.7748742 63.05350713 2.40625 58.6015625 C3.2621875 57.74304687 4.118125 56.88453125 5 56 C6.90254326 53.31019747 7.90293446 51.47454265 8.5625 48.25 C7.7120204 43.33611787 4.91089741 39.95912213 2 36 C-0.42869909 32.35695136 -0.25675675 29.69277661 -0.1953125 25.48828125 C-0.1924826 24.76005661 -0.18965271 24.03183197 -0.18673706 23.28153992 C-0.17555257 20.95835863 -0.15045166 18.63556453 -0.125 16.3125 C-0.11496794 14.7363337 -0.10584248 13.16016135 -0.09765625 11.58398438 C-0.07561896 7.72250733 -0.04110141 3.86131929 0 0 Z " fill="#359959" transform="translate(0,0)"/>
<path d="M0 0 C0.66 0 1.32 0 2 0 C3.69033272 2.49211887 5.26854165 4.98165651 6.8125 7.5625 C7.67087192 8.98186537 8.53153889 10.39984541 9.39453125 11.81640625 C9.81943848 12.51523926 10.2443457 13.21407227 10.68212891 13.93408203 C11.98312613 15.97354822 13.37766941 17.90176336 14.82421875 19.83984375 C17 23 17 23 17 26 C17.66 26 18.32 26 19 26 C23 31.29411765 23 31.29411765 23 35 C23.66 35 24.32 35 25 35 C25.66 36.98 26.32 38.96 27 41 C27.66 41 28.32 41 29 41 C30.75 43.25 30.75 43.25 32 46 C31.25 48.125 31.25 48.125 30 50 C29.67 50.99 29.34 51.98 29 53 C28.34 53 27.68 53 27 53 C26.34 54.98 25.68 56.96 25 59 C24.34 59 23.68 59 23 59 C22.896875 59.556875 22.79375 60.11375 22.6875 60.6875 C21.85821592 63.4769101 20.65700944 65.6139064 19 68 C18.34 68 17.68 68 17 68 C16.88398437 68.78117187 16.88398437 68.78117187 16.765625 69.578125 C15.68304027 73.00262771 13.72398391 75.78565286 11.75 78.75 C10.93040192 79.99700979 10.11138819 81.24440385 9.29296875 82.4921875 C8.89770996 83.09256836 8.50245117 83.69294922 8.09521484 84.31152344 C6.69678199 86.46746673 5.37929017 88.66848675 4.0625 90.875 C3.381875 91.90625 2.70125 92.9375 2 94 C1.34 94 0.68 94 0 94 C-0.2007589 89.68098118 -0.34427902 85.36456827 -0.43945312 81.04223633 C-0.47919879 79.5785381 -0.53342124 78.11514695 -0.60351562 76.65258789 C-1.0827981 66.3797319 0.06372321 60.12120904 6.36523438 51.83862305 C8.26092768 49.1036459 8.26092768 49.1036459 7.96508789 45.93798828 C6.91154319 42.73071358 5.55272722 40.80441568 3.46484375 38.16796875 C-1.37162608 30.87432999 -0.7841777 23.67855254 -0.4375 15.3125 C-0.40230181 13.82103771 -0.37037792 12.3294944 -0.34179688 10.83789062 C-0.26553081 7.22354557 -0.1452329 3.61230939 0 0 Z " fill="#3AB962" transform="translate(34,1)"/>
<path d="M0 0 C0.66 0 1.32 0 2 0 C3.7265625 2.3359375 3.7265625 2.3359375 5.625 5.375 C6.25664063 6.37273438 6.88828125 7.37046875 7.5390625 8.3984375 C9 11 9 11 9 13 C9.66 13 10.32 13 11 13 C11.24492188 13.47566406 11.48984375 13.95132812 11.7421875 14.44140625 C14.94652108 20.44124465 18.62380007 26.05608528 22.43310547 31.68188477 C23.25845632 32.90139254 24.0794504 34.12386326 24.89550781 35.34960938 C25.84704997 36.77145397 26.82356825 38.17652607 27.8046875 39.578125 C29.33852858 42.68590759 29.47863196 44.56980427 29 48 C27.390625 50.7109375 27.390625 50.7109375 25.25 53.375 C21.85486837 57.77542769 19.28851367 61.94619897 17 67 C16.34 67 15.68 67 15 67 C14.731875 67.71542969 14.46375 68.43085937 14.1875 69.16796875 C12.98268693 72.04128939 11.58762888 74.63337626 10 77.3125 C9.2265625 78.63701172 9.2265625 78.63701172 8.4375 79.98828125 C7.963125 80.65214844 7.48875 81.31601563 7 82 C6.34 82 5.68 82 5 82 C4.87625 82.598125 4.7525 83.19625 4.625 83.8125 C4 86 4 86 2 89 C1.34 89 0.68 89 0 89 C-0.04953687 84.80079763 -0.08578411 80.60175131 -0.10986328 76.40234375 C-0.11990427 74.97457922 -0.13353981 73.54683517 -0.15087891 72.11914062 C-0.17521152 70.06375059 -0.18650202 68.00863308 -0.1953125 65.953125 C-0.20578613 64.71723633 -0.21625977 63.48134766 -0.22705078 62.20800781 C-0.01298081 59.18340629 0.40346841 57.53014349 2 55 C2.66 55 3.32 55 4 55 C4.433125 53.6078125 4.433125 53.6078125 4.875 52.1875 C6 49 6 49 8 46 C7.8801238 41.6844567 5.79818477 39.03466867 3.25390625 35.74609375 C0.168607 31.44974246 -0.24045539 28.37373606 -0.1953125 23.046875 C-0.1924826 22.38665344 -0.18965271 21.72643188 -0.18673706 21.04620361 C-0.17558415 18.94728103 -0.15048946 16.84879258 -0.125 14.75 C-0.11496384 13.32292285 -0.1058391 11.89583898 -0.09765625 10.46875 C-0.07566111 6.97902672 -0.04116536 3.48955577 0 0 Z " fill="#3BC965" transform="translate(67,2)"/>
<path d="M0 0 C0.66 0 1.32 0 2 0 C3.7265625 2.3359375 3.7265625 2.3359375 5.625 5.375 C6.25664063 6.37273438 6.88828125 7.37046875 7.5390625 8.3984375 C9 11 9 11 9 13 C7.68 12.67 6.36 12.34 5 12 C2.37784874 16.56943249 1.55989785 20.13016568 1.3125 25.375 C1.24675781 26.62023437 1.18101563 27.86546875 1.11328125 29.1484375 C1.07589844 30.08945312 1.03851563 31.03046875 1 32 C0.67 32 0.34 32 0 32 C0 21.44 0 10.88 0 0 Z " fill="#69CB8A" transform="translate(34,1)"/>
<path d="M0 0 C0.66 0 1.32 0 2 0 C1.84152588 0.71567139 1.68305176 1.43134277 1.51977539 2.16870117 C1.01543043 4.91594802 0.79773833 7.5123923 0.68359375 10.30078125 C0.64169922 11.27724609 0.59980469 12.25371094 0.55664062 13.25976562 C0.51732422 14.26716797 0.47800781 15.27457031 0.4375 16.3125 C0.39431641 17.33923828 0.35113281 18.36597656 0.30664062 19.42382812 C0.20093175 21.94909569 0.09883532 24.47445562 0 27 C0.66 26.67 1.32 26.34 2 26 C2.33 25.01 2.66 24.02 3 23 C3.99 23 4.98 23 6 23 C5.67 24.32 5.34 25.64 5 27 C4.34 27 3.68 27 3 27 C2.87625 27.598125 2.7525 28.19625 2.625 28.8125 C2 31 2 31 0 34 C-0.66 34 -1.32 34 -2 34 C-2.04953687 29.80079763 -2.08578411 25.60175131 -2.10986328 21.40234375 C-2.11990427 19.97457922 -2.13353981 18.54683517 -2.15087891 17.11914062 C-2.17521152 15.06375059 -2.18650202 13.00863308 -2.1953125 10.953125 C-2.20578613 9.71723633 -2.21625977 8.48134766 -2.22705078 7.20800781 C-2.01298081 4.18340629 -1.59653159 2.53014349 0 0 Z " fill="#69D68B" transform="translate(69,57)"/>
<path d="M0 0 C0.66 0 1.32 0 2 0 C2.66 1.98 3.32 3.96 4 6 C3.34 6 2.68 6 2 6 C2.33 14.25 2.66 22.5 3 31 C2.01 30.67 1.02 30.34 0 30 C0 20.1 0 10.2 0 0 Z " fill="#68D688" transform="translate(67,2)"/>
<path d="M0 0 C0.66 0.99 1.32 1.98 2 3 C1.01 3.495 1.01 3.495 0 4 C-0.33 12.91 -0.66 21.82 -1 31 C-0.01 30.67 0.98 30.34 2 30 C1.01 32.475 1.01 32.475 0 35 C-0.66 35 -1.32 35 -2 35 C-2.04944705 30.49765627 -2.08574161 25.9954707 -2.10986328 21.49291992 C-2.11991935 19.96131639 -2.133566 18.42973205 -2.15087891 16.89819336 C-2.17514498 14.69640364 -2.18648688 12.49486781 -2.1953125 10.29296875 C-2.20563507 9.60849167 -2.21595764 8.92401459 -2.22659302 8.21879578 C-2.22745382 4.56938339 -2.08567666 3.12851498 0 0 Z " fill="#8BDBA7" transform="translate(36,60)"/>
<path d="M0 0 C1.27162597 3.8148779 0.64661571 5.3931275 -1 9 C-3.125 9.875 -3.125 9.875 -5 10 C-5.33 11.32 -5.66 12.64 -6 14 C-6.66 14 -7.32 14 -8 14 C-6.6744419 10.37723685 -5.05653045 7.36494652 -2.875 4.1875 C-2.33617187 3.39730469 -1.79734375 2.60710938 -1.2421875 1.79296875 C-0.83226562 1.20128906 -0.42234375 0.60960937 0 0 Z " fill="#55AA79" transform="translate(8,51)"/>
<path d="M0 0 C0.99 0 1.98 0 3 0 C1.61735163 2.86867231 0.07851447 5.56024032 -1.625 8.25 C-2.07101563 8.95640625 -2.51703125 9.6628125 -2.9765625 10.390625 C-3.48316406 11.18726563 -3.48316406 11.18726563 -4 12 C-5 9 -5 9 -4.25 6.375 C-3 4 -3 4 0 3 C0 2.01 0 1.02 0 0 Z " fill="#64D789" transform="translate(93,48)"/>
<path d="M0 0 C3.89539223 2.59692816 4.91712884 4.83425768 7 9 C6.67 9.66 6.34 10.32 6 11 C5.34 11 4.68 11 4 11 C4 9.68 4 8.36 4 7 C2.02 7.99 2.02 7.99 0 9 C0 6 0 3 0 0 Z " fill="#5CD884" transform="translate(69,4)"/>
<path d="M0 0 C4 4.625 4 4.625 4 8 C4.66 8 5.32 8 6 8 C6.33 9.32 6.66 10.64 7 12 C5.68 11.34 4.36 10.68 3 10 C3 9.34 3 8.68 3 8 C2.34 8 1.68 8 1 8 C0.67 5.36 0.34 2.72 0 0 Z " fill="#62C888" transform="translate(47,19)"/>
<path d="M0 0 C-0.66 1.98 -1.32 3.96 -2 6 C-2.66 6 -3.32 6 -4 6 C-4.33 6.66 -4.66 7.32 -5 8 C-5.33 5.69 -5.66 3.38 -6 1 C-3.92446352 0.4465236 -2.15634036 0 0 0 Z " fill="#58D482" transform="translate(86,63)"/>
<path d="M0 0 C2.79872437 2.52788007 4.45773019 4.20411134 5 8 C4.38125 7.814375 3.7625 7.62875 3.125 7.4375 C0.95839822 6.76313824 0.95839822 6.76313824 -1 8 C-0.67 5.36 -0.34 2.72 0 0 Z " fill="#4BC376" transform="translate(38,6)"/>
<path d="M0 0 C0.66 0 1.32 0 2 0 C2.26218749 3.14624993 2.24754367 4.61837017 0.5 7.3125 C-0.2425 8.1478125 -0.2425 8.1478125 -1 9 C-1.99 8.67 -2.98 8.34 -4 8 C-2.68 5.36 -1.36 2.72 0 0 Z " fill="#62D685" transform="translate(76,45)"/>
<path d="M0 0 C0.99 0 1.98 0 3 0 C2.67 1.32 2.34 2.64 2 4 C1.34 4 0.68 4 0 4 C-0.12375 4.639375 -0.2475 5.27875 -0.375 5.9375 C-0.58125 6.618125 -0.7875 7.29875 -1 8 C-1.99 8.495 -1.99 8.495 -3 9 C-3 7.35 -3 5.7 -3 4 C-2.34 3.67 -1.68 3.34 -1 3 C-0.67 2.01 -0.34 1.02 0 0 Z " fill="#5FD786" transform="translate(72,80)"/>
<path d="M0 0 C0.66 0 1.32 0 2 0 C2 0.99 2 1.98 2 3 C1.34 3 0.68 3 0 3 C-0.66 4.98 -1.32 6.96 -2 9 C-2.66 9 -3.32 9 -4 9 C-4.33 7.68 -4.66 6.36 -5 5 C-4.34 5 -3.68 5 -3 5 C-2.505 4.175 -2.01 3.35 -1.5 2.5 C-1.005 1.675 -0.51 0.85 0 0 Z " fill="#65CA88" transform="translate(61,51)"/>
<path d="M0 0 C3 1 3 1 4 3 C4.039992 4.99960012 4.04346799 7.00047242 4 9 C3.01 9.33 2.02 9.66 1 10 C1.020625 9.0925 1.04125 8.185 1.0625 7.25 C1.0110245 4.57327412 0.7784983 2.53011948 0 0 Z " fill="#6ECE93" transform="translate(41,42)"/>
<path d="M0 0 C2.52588702 2.36292656 3.88820837 3.66462511 5 7 C4.01 7.495 4.01 7.495 3 8 C3 7.34 3 6.68 3 6 C2.01 5.67 1.02 5.34 0 5 C0 3.35 0 1.7 0 0 Z " fill="#62D88B" transform="translate(91,38)"/>
</svg>
