<?xml version="1.0" encoding="UTF-8"?>
<svg x="1.8" y=".7" viewBox="0 0 38.3 38.3" xmlns="http://www.w3.org/2000/svg">
	<path d="m2.4 1.0375 0.9 0.3625-0.40312-0.34531zm0.9 0.3625 11.125 18.088-0.225-0.7875zm11.125 18.088-11.125 18.112 10.9-17.4zm-11.125 18.112-0.9 0.3625 0.49688-0.017188zm-0.9 0.3625-0.6-0.7625 0.17812 0.49844zm-0.6-0.7625 0.05-10.15-0.05 0.75zm0.05-10.15 4.05-6.95-3.7 6.2zm4.05-8.25-4.0125-6.875 0.3125 0.675zm-4.0125-6.875-0.0875-10.125v9.3zm-0.0875-10.125 0.6-0.7625-0.42188 0.26406zm0.6-0.7625 12.025 18.45-11.125-18.088zm12.025 18.45-12.025 18.475 0.9-0.3625zm-12.025 18.475-0.55-10.912-0.05 10.15zm3.5-19.162-4.1-17 0.0875 10.125zm-4.1-17 12.625 17.688-12.025-18.45zm12.625 17.688-12.575 7.5625 0.55 10.912zm-8.525-0.6875 8.525 0.6875-12.625-17.688zm8.525 0.6875-8.525 0.6125-4.05 6.95zm-8.375-0.0375 8.375 0.0375-8.525-0.6875zm8.375 0.0375-8.375-0.0375-0.15 0.65z" fill="#36C861" fill-opacity=".5"/>
	<path d="m16.412 2.3109 0.3875 0.48906v-0.2zm0.3875 0.48906 10.125 16.6-0.225-0.7zm10.125 16.6-10.125 16.6 9.9-15.9zm-10.125 16.6-0.85 0.2875 0.4625 0.001562zm-0.85 0.2875-0.55-0.6875 0.1625 0.44218zm-0.55-0.6875 0.087499-9.35-0.087499 0.75zm0.087499-9.35 3.6125-6.35-3.3 5.6zm3.6125-7.55-3.6125-6.275 0.3125 0.675zm-3.6125-6.275-0.087499-9.425v8.6zm-0.087499-9.425 0.55-0.6875-0.3875 0.24531zm0.55-0.6875 0.85 0.4875-0.3875-0.48906zm10.975 17.088-10.975 16.887 0.85-0.2875zm-10.975 16.887-0.4625-10.038-0.087499 9.35zm3.15-17.588-3.7-15.7 0.087499 9.425zm-3.7-15.7 1.4-0.2-0.85-0.4875zm11.525 16.4-11.438 6.85 0.4625 10.038zm-7.675-0.1-3.85-16.3 3.7 15.7zm-3.85-16.3 11.525 16.4-10.125-16.6zm11.525 16.4-7.825 0.5-3.6125 6.35zm-7.675-0.1 7.675 0.1-11.525-16.4zm7.675 0.1-7.675-0.1-0.15 0.6z" fill="#36C861" fill-opacity=".8"/>
	<path d="m29.2 4.7 8.9 14.1-8.9-14.2zm8.9 14.1v1.3l0.15-0.65zm0 1.3-9.6125 14.6 0.7125-0.3zm-9.6125 14.6-0.4875-8.2v7.6zm-0.4875-8.2 0.4-1.4-0.3125 0.6625zm3.3-7.5-3.2125-5.6625 0.3125 0.6625zm-3.2125-5.6625-0.0875-8.3375v7.6zm-0.0875-8.3375 1.2-0.3-0.7125-0.3375zm1.2-0.3 8.9 15.4v-1.3zm8.9 15.4-10.1 6.4 0.4875 8.2zm-10.1 6.4 3.3-6.4-2.9 5zm3.3-7.5-3.3-14 0.0875 8.3375zm-3.3-14 10.1 15.1-8.9-15.4zm10.1 15.1h-6.8l-3.3 6.4zm-6.65-0.5125-3.45-14.588 3.3 14zm6.65 0.5125-6.65-0.5125-0.15 0.5125zm-6.65-0.5125 6.65 0.5125-10.1-15.1z" fill="#36C861"/>
</svg>
