<?xml version="1.0" encoding="UTF-8"?>
<svg version="1.1" xmlns="http://www.w3.org/2000/svg" width="96" height="96">
<path d="M0 0 C0 0.33 0 0.66 0 1 C-1.64548828 1.38091797 -1.64548828 1.38091797 -3.32421875 1.76953125 C-4.77875214 2.11674245 -6.23317342 2.46442358 -7.6875 2.8125 C-8.7693457 3.0609668 -8.7693457 3.0609668 -9.87304688 3.31445312 C-14.09168398 4.33540183 -17.31802906 5.61594089 -21 8 C-21.66 8 -22.32 8 -23 8 C-23 8.66 -23 9.32 -23 10 C-23.99 10 -24.98 10 -26 10 C-26.33 10.99 -26.66 11.98 -27 13 C-27.66 13 -28.32 13 -29 13 C-29.26683594 13.54914062 -29.53367187 14.09828125 -29.80859375 14.6640625 C-31.62802537 18.23134155 -33.66152367 21.67892862 -35.66015625 25.1484375 C-39.54181079 33.40968477 -38.88804776 44.32280897 -36.7109375 53.03125 C-35.63288405 56.01662878 -33.83416933 58.43216294 -32 61 C-32 61.99 -32 62.98 -32 64 C-31.01 64.33 -30.02 64.66 -29 65 C-29 65.66 -29 66.32 -29 67 C-28.01 67.33 -27.02 67.66 -26 68 C-26 68.66 -26 69.32 -26 70 C-25.01 70 -24.02 70 -23 70 C-23 70.66 -23 71.32 -23 72 C-22.195625 72.268125 -21.39125 72.53625 -20.5625 72.8125 C-18.68983503 73.43672166 -16.81886418 74.07196288 -14.984375 74.80078125 C-5.59307092 78.36474737 3.7782048 77.99263508 13 74 C22.55631464 68.69601675 29.04048775 62.09912109 32.4375 51.625 C33.47388815 46.78852199 33.22464714 41.91727619 33 37 C32.34 37 31.68 37 31 37 C30.401875 37.680625 29.80375 38.36125 29.1875 39.0625 C28.465625 39.701875 27.74375 40.34125 27 41 C24.36328125 40.62109375 24.36328125 40.62109375 22 40 C21.89453857 39.42668945 21.78907715 38.85337891 21.68041992 38.26269531 C19.00161895 23.63227441 19.00161895 23.63227441 15.515625 9.1796875 C15 7 15 7 15 4 C20.10293061 3.76804861 23.7619779 4.37735317 28.5 6.25 C35.89171879 9.03977774 43.33750554 11.07901049 51 13 C51.495 15.475 51.495 15.475 52 18 C50.515 18.495 50.515 18.495 49 19 C48.505 20.485 48.505 20.485 48 22 C47.34 22 46.68 22 46 22 C45.09920723 25.8478778 45.09920723 25.8478778 45.453125 29.703125 C48.24143527 41.41402814 46.08259012 54.06698981 40.05859375 64.296875 C34.05347481 73.54232515 34.05347481 73.54232515 31 76 C30.01 76 29.02 76 28 76 C27.505 77.485 27.505 77.485 27 79 C25.29296875 80.09765625 25.29296875 80.09765625 23.1875 81.0625 C22.50042969 81.38347656 21.81335938 81.70445313 21.10546875 82.03515625 C20.41066406 82.35355469 19.71585938 82.67195313 19 83 C18.37738281 83.34933594 17.75476562 83.69867188 17.11328125 84.05859375 C8.60129294 87.85044067 -5.95475 87.30267037 -14.9609375 84.81640625 C-27.43675893 79.82129767 -36.14317724 71.29049287 -41.81811523 59.26660156 C-44.17841202 53.71510507 -44.50541045 48.61189925 -44.4375 42.625 C-44.42992676 41.69397461 -44.42235352 40.76294922 -44.41455078 39.80371094 C-44.25487204 33.16713606 -43.52784128 27.74349769 -40 22 C-39.4946875 21.14664062 -38.989375 20.29328125 -38.46875 19.4140625 C-37.06238728 17.17353366 -35.70806902 15.02040164 -34 13 C-33.34 13 -32.68 13 -32 13 C-31.67 12.01 -31.34 11.02 -31 10 C-30.34 10 -29.68 10 -29 10 C-29 9.34 -29 8.68 -29 8 C-27.5839401 7.20724852 -26.16712447 6.41584688 -24.75 5.625 C-23.56664062 4.96371094 -23.56664062 4.96371094 -22.359375 4.2890625 C-14.86548417 0.19471817 -8.45443473 -0.15037532 0 0 Z " fill="#FCAE29" transform="translate(44,5)"/>
<path d="M0 0 C2.97 0 5.94 0 9 0 C9.00410889 0.74161377 9.00821777 1.48322754 9.01245117 2.24731445 C9.04531841 5.6031908 9.11595525 8.95723488 9.1875 12.3125 C9.19330078 13.47974609 9.19910156 14.64699219 9.20507812 15.84960938 C9.23408203 16.96787109 9.26308594 18.08613281 9.29296875 19.23828125 C9.31653442 20.7857605 9.31653442 20.7857605 9.34057617 22.36450195 C9.75050205 25.24278892 9.75050205 25.24278892 12.54418945 26.73510742 C13.35460693 27.15252197 14.16502441 27.56993652 15 28 C15 28.66 15 29.32 15 30 C15.99 30 16.98 30 18 30 C18 30.66 18 31.32 18 32 C19.65 32.66 21.3 33.32 23 34 C22.15390844 36.67928993 21.50920398 38.55199842 19.375 40.4296875 C17 41 17 41 13.546875 39.296875 C12.27031429 38.46445104 11.00493557 37.61468122 9.75 36.75 C9.1003125 36.32847656 8.450625 35.90695313 7.78125 35.47265625 C6.1417785 34.38082334 4.56469659 33.19653269 3 32 C3 31.34 3 30.68 3 30 C2.01 30 1.02 30 0 30 C0 20.1 0 10.2 0 0 Z " fill="#FBB53A" transform="translate(33,24)"/>
<path d="M0 0 C0 0.33 0 0.66 0 1 C-1.64548828 1.38091797 -1.64548828 1.38091797 -3.32421875 1.76953125 C-4.77875214 2.11674245 -6.23317342 2.46442358 -7.6875 2.8125 C-8.7693457 3.0609668 -8.7693457 3.0609668 -9.87304688 3.31445312 C-14.09168398 4.33540183 -17.31802906 5.61594089 -21 8 C-21.66 8 -22.32 8 -23 8 C-23 8.66 -23 9.32 -23 10 C-23.99 10 -24.98 10 -26 10 C-26.33 10.99 -26.66 11.98 -27 13 C-27.66 13 -28.32 13 -29 13 C-29.26683594 13.54914062 -29.53367187 14.09828125 -29.80859375 14.6640625 C-31.62802537 18.23134155 -33.66152367 21.67892862 -35.66015625 25.1484375 C-39.54181079 33.40968477 -38.88804776 44.32280897 -36.7109375 53.03125 C-35.63288405 56.01662878 -33.83416933 58.43216294 -32 61 C-32 61.99 -32 62.98 -32 64 C-33.32 64 -34.64 64 -36 64 C-36 64.99 -36 65.98 -36 67 C-35.01 67 -34.02 67 -33 67 C-32.67 68.98 -32.34 70.96 -32 73 C-38.1534481 67.9324545 -41.5115221 60.46543369 -44 53 C-44.87128225 42.61551739 -45.61366594 31.13932199 -40 22 C-39.4946875 21.14664062 -38.989375 20.29328125 -38.46875 19.4140625 C-37.06238728 17.17353366 -35.70806902 15.02040164 -34 13 C-33.34 13 -32.68 13 -32 13 C-31.67 12.01 -31.34 11.02 -31 10 C-30.34 10 -29.68 10 -29 10 C-29 9.34 -29 8.68 -29 8 C-27.5839401 7.20724852 -26.16712447 6.41584688 -24.75 5.625 C-23.56664062 4.96371094 -23.56664062 4.96371094 -22.359375 4.2890625 C-14.86548417 0.19471817 -8.45443473 -0.15037532 0 0 Z " fill="#FBB741" transform="translate(44,5)"/>
<path d="M0 0 C1.98 0 3.96 0 6 0 C6.33 0.99 6.66 1.98 7 3 C7.99 3.33 8.98 3.66 10 4 C10 4.66 10 5.32 10 6 C10.99 6 11.98 6 13 6 C13 6.66 13 7.32 13 8 C13.804375 8.268125 14.60875 8.53625 15.4375 8.8125 C17.26833775 9.42277925 19.1002125 10.04279909 20.875 10.80078125 C28.12164806 13.69669553 35.32348014 13.27307778 43 13 C42.01 13.33 41.02 13.66 40 14 C40 14.66 40 15.32 40 16 C33.73 15.67 27.46 15.34 21 15 C20.67 15.99 20.34 16.98 20 18 C13.97624853 17.87183508 10.459347 15.7892438 5.82421875 11.98828125 C3.08089203 8.99823135 2.91866137 6.98559288 3 3 C2.01 3 1.02 3 0 3 C0 2.01 0 1.02 0 0 Z " fill="#FAB539" transform="translate(8,69)"/>
<path d="M0 0 C2.475 0.99 2.475 0.99 5 2 C5 2.66 5 3.32 5 4 C5.99 4 6.98 4 8 4 C8 4.66 8 5.32 8 6 C9.65 6.66 11.3 7.32 13 8 C12.15355232 10.68041765 11.5045647 12.5536543 9.375 14.4375 C7 15 7 15 3.546875 13.2265625 C2.27032957 12.37553221 1.00495896 11.50755244 -0.25 10.625 C-0.8996875 10.18671875 -1.549375 9.7484375 -2.21875 9.296875 C-3.82223235 8.21216635 -5.41244681 7.1078914 -7 6 C-3.98968256 5.06576355 -3.13349732 4.95550089 0 6 C0.33 6.66 0.66 7.32 1 8 C1.66 8 2.32 8 3 8 C3.34626591 4.99969942 3.34626591 4.99969942 1.5 3.4375 C1.005 2.963125 0.51 2.48875 0 2 C0 1.34 0 0.68 0 0 Z " fill="#FBB944" transform="translate(43,50)"/>
<path d="M0 0 C0 0.33 0 0.66 0 1 C-1.64548828 1.38091797 -1.64548828 1.38091797 -3.32421875 1.76953125 C-4.77875214 2.11674245 -6.23317342 2.46442358 -7.6875 2.8125 C-8.7693457 3.0609668 -8.7693457 3.0609668 -9.87304688 3.31445312 C-14.09168398 4.33540183 -17.31802906 5.61594089 -21 8 C-21.66 8 -22.32 8 -23 8 C-23 8.66 -23 9.32 -23 10 C-23.99 10 -24.98 10 -26 10 C-26.33 10.99 -26.66 11.98 -27 13 C-27.66 13 -28.32 13 -29 13 C-29.33 13.99 -29.66 14.98 -30 16 C-30.33 15.34 -30.66 14.68 -31 14 C-32.32 14.33 -33.64 14.66 -35 15 C-34.67 14.34 -34.34 13.68 -34 13 C-33.34 13 -32.68 13 -32 13 C-31.67 12.01 -31.34 11.02 -31 10 C-30.34 10 -29.68 10 -29 10 C-29 9.34 -29 8.68 -29 8 C-27.5839401 7.20724852 -26.16712447 6.41584688 -24.75 5.625 C-23.56664062 4.96371094 -23.56664062 4.96371094 -22.359375 4.2890625 C-14.86548417 0.19471817 -8.45443473 -0.15037532 0 0 Z " fill="#FCC860" transform="translate(44,5)"/>
<path d="M0 0 C2.82204183 2.82204183 2.49265491 5.70937744 2.6875 9.5 C2.73455078 10.18964844 2.78160156 10.87929688 2.83007812 11.58984375 C3.13560948 16.72878103 3.13560948 16.72878103 2 19 C1.34 19 0.68 19 0 19 C0 17.35 0 15.7 0 14 C-0.66 14 -1.32 14 -2 14 C-2.05389087 12.04196493 -2.09274217 10.08351091 -2.125 8.125 C-2.14820313 7.03445312 -2.17140625 5.94390625 -2.1953125 4.8203125 C-2 2 -2 2 0 0 Z " fill="#F9AA24" transform="translate(2,39)"/>
<path d="M0 0 C1.01702226 3.31911917 1.04145953 6.22971569 0.9375 9.6875 C0.88530363 14.43157029 1.33577968 18.58551171 2.5625 23.16015625 C3 25 3 25 3 28 C1.35 27.01 -0.3 26.02 -2 25 C-2.33 25.99 -2.66 26.98 -3 28 C-4.60355101 24.49223216 -5.22036864 21.85645121 -5 18 C-4.34 18 -3.68 18 -3 18 C-3 19.65 -3 21.3 -3 23 C-2.34 23 -1.68 23 -1 23 C-1.00523682 22.40985107 -1.01047363 21.81970215 -1.01586914 21.21166992 C-1.03666047 18.53695745 -1.04966701 15.86226199 -1.0625 13.1875 C-1.07087891 12.25873047 -1.07925781 11.32996094 -1.08789062 10.37304688 C-1.09111328 9.48037109 -1.09433594 8.58769531 -1.09765625 7.66796875 C-1.10289307 6.84578857 -1.10812988 6.0236084 -1.11352539 5.17651367 C-1 3 -1 3 0 0 Z " fill="#FCC85F" transform="translate(5,35)"/>
<path d="M0 0 C3.31623648 4.97435473 3.18246482 9.51405419 3.1875 15.375 C3.19974609 16.1175 3.21199219 16.86 3.22460938 17.625 C3.23659288 22.14677483 2.7105285 25.74058122 1 30 C0.67 30 0.34 30 0 30 C0 20.1 0 10.2 0 0 Z " fill="#FBC559" transform="translate(87,30)"/>
<path d="M0 0 C0.66 0.33 1.32 0.66 2 1 C1.40075776 5.19469571 0.42500059 9.00999834 -1 13 C-1.99 13 -2.98 13 -4 13 C-4.6875 11.375 -4.6875 11.375 -5 9 C-3.5625 5.75 -3.5625 5.75 -2 3 C-1.34 3 -0.68 3 0 3 C0 2.01 0 1.02 0 0 Z " fill="#FAAB2B" transform="translate(5,28)"/>
<path d="M0 0 C2.875 -0.1875 2.875 -0.1875 6 0 C8 3 8 3 8 7 C7.34 7 6.68 7 6 7 C6 7.66 6 8.32 6 9 C5.34 9 4.68 9 4 9 C3.67 7.02 3.34 5.04 3 3 C2.01 3 1.02 3 0 3 C0 2.01 0 1.02 0 0 Z " fill="#F8B02C" transform="translate(8,69)"/>
<path d="M0 0 C0.82757812 0.16371094 1.65515625 0.32742187 2.5078125 0.49609375 C6.32194189 1.0464547 10.03353501 1.11089055 13.875 1.0625 C14.56335937 1.05798828 15.25171875 1.05347656 15.9609375 1.04882812 C17.64066335 1.03716336 19.32034375 1.01923271 21 1 C20.01 1.33 19.02 1.66 18 2 C18 2.66 18 3.32 18 4 C12.06 3.67 6.12 3.34 0 3 C0 2.01 0 1.02 0 0 Z " fill="#FCBD50" transform="translate(30,81)"/>
<path d="M0 0 C0.99 0.66 1.98 1.32 3 2 C3 2.99 3 3.98 3 5 C1.68 5 0.36 5 -1 5 C-1 5.99 -1 6.98 -1 8 C-0.01 8 0.98 8 2 8 C2.33 9.98 2.66 11.96 3 14 C-1.68 9.68 -1.68 9.68 -3 6.875 C-3 5 -3 5 -1.5625 3.375 C-1.046875 2.92125 -0.53125 2.4675 0 2 C0 1.34 0 0.68 0 0 Z " fill="#FDC057" transform="translate(9,64)"/>
<path d="M0 0 C0.66 0.33 1.32 0.66 2 1 C2 1.66 2 2.32 2 3 C2.99 3 3.98 3 5 3 C5 3.66 5 4.32 5 5 C5.66 5.33 6.32 5.66 7 6 C4.36 6 1.72 6 -1 6 C-1.33 6.99 -1.66 7.98 -2 9 C-2.66 8.01 -3.32 7.02 -4 6 C-3.34 6 -2.68 6 -2 6 C-2 5.34 -2 4.68 -2 4 C-1.34 4 -0.68 4 0 4 C0 2.68 0 1.36 0 0 Z " fill="#FCBF4A" transform="translate(16,72)"/>
<path d="M0 0 C0 0.33 0 0.66 0 1 C-1.87077668 1.53580497 -3.7468917 2.05298887 -5.625 2.5625 C-6.66914062 2.85253906 -7.71328125 3.14257812 -8.7890625 3.44140625 C-12.19022902 4.03309337 -14.65448342 3.75851802 -18 3 C-13.56679381 -1.43320619 -5.89626565 -0.10487429 0 0 Z " fill="#F7C877" transform="translate(44,5)"/>
<path d="M0 0 C2.64 0.33 5.28 0.66 8 1 C8.33 2.65 8.66 4.3 9 6 C8.01 6.495 8.01 6.495 7 7 C6.67 6.01 6.34 5.02 6 4 C5.01 4.33 4.02 4.66 3 5 C3 4.34 3 3.68 3 3 C2.34 3 1.68 3 1 3 C0.67 2.01 0.34 1.02 0 0 Z " fill="#F9BD43" transform="translate(87,17)"/>
<path d="M0 0 C0.66 0.33 1.32 0.66 2 1 C-0.31 4.63 -2.62 8.26 -5 12 C-5.66 10.68 -6.32 9.36 -7 8 C-6.01 7.67 -5.02 7.34 -4 7 C-4 6.34 -4 5.68 -4 5 C-3.34 5 -2.68 5 -2 5 C-2 4.01 -2 3.02 -2 2 C-1.34 2 -0.68 2 0 2 C0 1.34 0 0.68 0 0 Z " fill="#FBBE51" transform="translate(83,66)"/>
<path d="M0 0 C2.31 0 4.62 0 7 0 C7 1.32 7 2.64 7 4 C4.69 3.67 2.38 3.34 0 3 C0 2.01 0 1.02 0 0 Z " fill="#FBAB1C" transform="translate(15,78)"/>
<path d="M0 0 C0.33 0 0.66 0 1 0 C1 1.65 1 3.3 1 5 C1.66 5.33 2.32 5.66 3 6 C2.01 7.485 2.01 7.485 1 9 C0.01 9 -0.98 9 -2 9 C-1.125 2.25 -1.125 2.25 0 0 Z " fill="#FBBF50" transform="translate(2,32)"/>
<path d="M0 0 C0.99 1.32 1.98 2.64 3 4 C3 3.34 3 2.68 3 2 C4.65 2 6.3 2 8 2 C7.01 3.32 6.02 4.64 5 6 C3.35 5.67 1.7 5.34 0 5 C0 3.35 0 1.7 0 0 Z " fill="#FCC65B" transform="translate(66,40)"/>
<path d="M0 0 C-1.75 2.0625 -1.75 2.0625 -4 4 C-6.25 3.75 -6.25 3.75 -8 3 C-5.53387212 -0.1151089 -3.89156016 -0.31553191 0 0 Z " fill="#F5BF54" transform="translate(29,8)"/>
<path d="M0 0 C2.31 0.33 4.62 0.66 7 1 C7.33 2.32 7.66 3.64 8 5 C4.62496331 3.8141763 2.35277269 2.72426311 0 0 Z " fill="#FCC556" transform="translate(36,55)"/>
</svg>
