<?xml version="1.0" encoding="UTF-8"?>
<svg x="-.9" y="2.5" viewBox="0 0 38.9 38.7" xmlns="http://www.w3.org/2000/svg">
	<path d="m28.6 3.8 9.9 4.7v-0.6zm6.7 6.8 1.8672 5.175-0.72676-2.6531zm1.8672 5.175 0.24532 5.475 0.075978-2.7469zm0.24532 5.475-1.3109 5.325 0.8459-2.6156zm-1.3109 5.325-2.8016 4.725 1.583-2.2594zm-2.8016 4.725-3.4 3.2938 1.8125-1.5133zm-3.4 3.2938-4.15 2.2063 2.15-0.96485zm-4.15 2.2063-4.6 1.0812 2.3375-0.39766zm-4.6 1.0812-4.75-0.081252 2.375 0.18828zm-4.75-0.081252-5.025-1.5375 2.4492 0.99375zm-5.025-1.5375-4.35-3.1125 2.0695 1.725zm-4.35-3.1125-3.3375-4.2375 1.5211 2.2312zm-3.3375-4.2375-1.9875-4.9125 0.80391 2.5125zm-1.9875-4.9125-0.46309-3.9076 0.10579 1.9526zm-0.46309-3.9076 0.48965-3.8221-0.35725 1.8909zm0.48965-3.8221 1.3357-3.5854-0.76697 1.7536zm1.3357-3.5854 2.0752-3.1975-1.1234 1.5408zm2.0752-3.1975 2.708-2.6584-1.4264 1.2524zm2.708-2.6584 3.2342-1.9682-1.6762 0.88835zm3.2342-1.9682 3.6537-1.1268-1.8726 0.44876zm3.6537-1.1268 3.9666-0.13418-2.0157-0.066431zm15.767 10.166-3.4 1.6 0.5 0.3zm-3.4 1.6 1.5-11.7-0.5 0.3zm1.5-11.7 6.7 6.8 3.2-2.1zm6.7 6.8 2.1125 10.65-0.24532-5.475zm2.1125 10.65-4.1125 10.05 2.8016-4.725zm-4.1125 10.05-7.55 5.5 4.15-2.2063zm-7.55 5.5-9.35 1 4.75 0.081252zm-9.35 1-9.375-4.65 4.35 3.1125zm-9.375-4.65-5.325-9.15 1.9875 4.9125zm-5.325-9.15 0.026563-7.7297-0.48965 3.8221zm0.026563-7.7297 3.4109-6.7828-2.0752 3.1975zm3.4109-6.7828 5.9422-4.6266-3.2342 1.9682zm5.9422-4.6266 7.6203-1.2609-3.9666 0.13418zm19.42 9.0391-1.9-10.1-1.5 11.7zm-1.9-10.1 8.8125 17.45-2.1125-10.65zm8.8125 17.45-11.663 15.55 7.55-5.5zm-11.663 15.55-18.725-3.65 9.375 4.65zm-18.725-3.65-5.2984-16.88-0.026563 7.7297zm-5.2984-16.88 9.3531-11.409-5.9422 4.6266zm9.3531-11.409 5.2797-0.85762 2.3406-0.40332zm20.242 10.794-2.7219-11.855 1.9 10.1zm-20.242-10.794 3.0141-0.11562 2.2656-0.74199zm20.764 12.656-3.2438-13.717 2.7219 11.855zm-20.764-12.656 0.87031 0.93809 2.1437-1.0537zm20.764 12.656 5.5688 3.7328-8.8125-17.45zm-20.764-12.656-1.1047 2.2766 1.975-1.3385zm20.995 14.581 5.3375 1.8076-5.5688-3.7328zm-20.995-14.581-2.8641 3.8729 1.7594-1.5963zm20.945 16.527 5.3875-0.1375-5.3375-1.8076zm-30.298-5.1172 6.4891-7.5365 2.8641-3.8729zm29.977 7.0389 5.7094-2.0592-5.3875 0.1375zm-29.977-7.0389 4.9922-5.7094 1.4969-1.8271zm29.392 8.8938 6.2938-3.9141-5.7094 2.0592zm-29.392-8.8938 3.8047-3.6783 1.1875-2.0311zm28.555 10.638 7.1313-5.6588-6.2938 3.9141zm-28.555-10.638 2.9734-1.4703 0.83125-2.208zm27.473 12.23 8.2125-7.25-7.1313 5.6588zm-27.473-12.23 2.5719-0.12187 0.40156-1.3484zm25.868 13.936 9.8182-8.9563-8.2125 7.25zm-25.868-13.936 2.3859 1.2172 0.18594-1.3391zm25.868 13.936-1.8443 6.5937 11.663-15.55zm-25.868-13.936 2.3687 2.5375 0.017188-1.3203zm24.111 15.277-0.08711 5.2525 1.8443-6.5937zm-24.111-15.277 2.4734 3.8297-0.10469-1.2922zm22.236 16.268 1.7878 4.2621 0.08711-5.2525zm-22.236-16.268 2.8135 6.0784-0.34009-2.2488zm20.277 16.922 3.7469 3.6078-1.7878-4.2621zm-14.978-0.042184-2.4849-10.801-2.8135-6.0784zm12.969 0.37478 5.7563 3.2752-3.7469-3.6078zm-12.969-0.37478-1.8246-8.7146-0.6603-2.0866zm10.943 0.40019 7.7824 3.2498-5.7563-3.2752zm-10.943-0.40019-0.87778-6.8047-0.94683-1.9099zm8.9334 0.13294 9.7916 3.5171-7.7824-3.2498zm-8.9334-0.13294 0.32188-5.0859-1.1997-1.7188zm6.975-0.4125 11.75 4.0625-9.7916-3.5171zm-6.975 0.4125 1.7407-3.5728-1.4188-1.5131zm6.975-0.4125-6.975 0.4125 18.725 3.65zm-6.975 0.4125 3.3449-2.2799-1.6042-1.2929zm5.1009-1.2216-5.1009 1.2216 6.975-0.4125zm-5.1009 1.2216 5.1009-1.2216-1.756-1.0583z" fill="#FFA91F"/>
	<path d="m18 22.3-1.1 1.1 0.775-0.325zm-1.1 1.1-1.1-1.1 0.325 0.775zm-1.1-1.1 0.325-11.275-0.325 0.775zm0.325-11.275h1.55l-0.775-0.325zm1.55 0 0.325 11.275v-10.5zm0.325 11.275h-2.2l1.1 1.1zm-2.2 0 1.875-11.275h-1.55zm1.875-11.275-1.875 11.275h2.2z" fill="#FFA91F"/>
	<path d="m23.509 26.902-1.2094 0.098438 0.725 0.0625zm-1.2094 0.098438-6.5-4.4875 0.5 0.6875zm-6.5-4.4875 0.7875-1.4125-0.6875 0.5zm0.7875-1.4125 6.9125 3.9-6-3.8zm6.9125 3.9 0.4 1.6 0.1-0.9125zm0.4 1.6-1.6 0.4 1.2094-0.098438zm-1.6 0.4-5.7125-5.9-0.7875 1.4125zm-5.7125-5.9 7.3125 5.5-0.4-1.6zm7.3125 5.5-7.3125-5.5 5.7125 5.9z" fill="#FFA91F"/>
</svg>
