<?xml version="1.0" encoding="UTF-8" standalone="no"?>
<svg
   version="1.1"
   width="96"
   height="96"
   id="svg46"
   sodipodi:docname="RS.svg"
   inkscape:version="1.1.2 (0a00cf5339, 2022-02-04)"
   xmlns:inkscape="http://www.inkscape.org/namespaces/inkscape"
   xmlns:sodipodi="http://sodipodi.sourceforge.net/DTD/sodipodi-0.dtd"
   xmlns="http://www.w3.org/2000/svg"
   xmlns:svg="http://www.w3.org/2000/svg">
  <defs
     id="defs50" />
  <sodipodi:namedview
     id="namedview48"
     pagecolor="#ffffff"
     bordercolor="#666666"
     borderopacity="1.0"
     inkscape:pageshadow="2"
     inkscape:pageopacity="0.0"
     inkscape:pagecheckerboard="0"
     showgrid="false"
     showguides="true"
     inkscape:guide-bbox="true"
     inkscape:zoom="5.6568543"
     inkscape:cx="-3.2703689"
     inkscape:cy="11.844039"
     inkscape:window-width="1920"
     inkscape:window-height="1026"
     inkscape:window-x="0"
     inkscape:window-y="0"
     inkscape:window-maximized="1"
     inkscape:current-layer="svg46">
    <sodipodi:guide
       position="42,72"
       orientation="1,0"
       id="guide4262" />
  </sodipodi:namedview>
  <path
     d="M 0,0 V 1 L -3.3242188,1.7695312 C -4.7787521,2.1167425 -6.2331734,2.4644236 -7.6875,2.8125 L -9.8730469,3.3144531 C -14.091684,4.3354018 -17.318029,5.6159409 -21,8 h -2 L -24.044627,9.3905175 -26,10 -27.652974,12.351257 -29,13 l -0.808594,1.664063 c -1.819431,3.567279 -3.85293,7.014866 -5.851562,10.484374 -3.881655,8.261248 -3.227892,19.174372 -1.050781,27.882813 C -35.632884,56.016629 -33.834169,58.432163 -32,61 l 0.122169,3.826292 3,1 L -28,67 l 1.626087,1.411599 1.131344,0.936662 1.588735,1.300755 1.206633,0.864296 1.884701,1.299188 c 1.625235,1.12033 3.743636,1.259463 5.578125,1.988281 C -5.5930709,78.364747 3.7782048,77.992635 13,74 22.556315,68.696017 29.040488,62.099121 32.4375,51.625 33.473888,46.788522 33.224647,41.917276 33,37 H 31 L 29.1875,39.0625 27,41 C 24.363281,40.621094 24.363281,40.621094 22,40 L 21.504887,38.6343 16.217821,9.3968859 15.128035,4.0027518 27.671079,6.8415502 c 0,0 12.062061,3.1443661 23.328921,6.1584498 l 1,5 -2,1 -4.430546,3.317215 c -0.900793,3.847878 -0.470247,3.530663 -0.116329,7.38591 2.78831,11.710903 0.629465,24.363865 -5.394531,34.59375 C 34.053475,73.542325 34.053475,73.542325 31,76 L 29.245993,77.342468 27,79 c -1.707031,1.097656 -1.707031,1.097656 -3.8125,2.0625 L 21.105469,82.035156 19,83 17.113281,84.058594 C 8.6012929,87.850441 -5.95475,87.30267 -14.960938,84.816406 -27.436759,79.821298 -36.143177,71.290493 -41.818115,59.266602 -44.178412,53.715105 -44.50541,48.611899 -44.4375,42.625 l 0.02295,-2.821289 C -44.254872,33.167136 -43.527841,27.743498 -40,22 l 1.53125,-2.585938 C -37.062387,17.173534 -35.708069,15.020402 -34,13 h 2 l 1,-3 h 2 V 8 c 1.41606,-0.7927515 2.832876,-1.5841531 4.25,-2.375 l 2.390625,-1.3359375 C -14.865484,0.19471817 -8.4544347,-0.15037532 0,0 Z"
     fill="#fcae29"
     transform="translate(44,5)"
     id="path2"
     sodipodi:nodetypes="ccccccccccccccccccccccsccccccccccccccccccccccccccccccccccccccc" />
  <path
     d="M 0,0 H 9 V 25.251097 C 14.350097,28.729715 19.879135,32.093551 23,34 L 18.07742,40.456361 0,30 Z"
     fill="#fbb53a"
     transform="translate(33,24)"
     id="path4"
     sodipodi:nodetypes="ccccccc" />
  <path
     d="M 0,0 V 1 L -3.3242188,1.7695312 C -4.7787521,2.1167425 -6.2331734,2.4644236 -7.6875,2.8125 L -9.8730469,3.3144531 C -14.091684,4.3354018 -17.318029,5.6159409 -21,8 h -2 L -24.044627,9.3905175 -26,10 -27.652974,12.351257 -29,13 l -0.619359,1.968713 c -1.819431,3.567279 -4.042165,6.710216 -6.040797,10.179724 -3.881655,8.261248 -3.227892,19.174372 -1.050781,27.882813 C -35.632884,56.016629 -33.834169,58.432163 -32,61 l 2,3 h -6 v 3 h 3 l 1,6 c -6.153448,-5.067545 -9.511522,-12.534566 -12,-20 -0.871282,-10.384483 -1.613666,-21.860678 4,-31 l 1.53125,-2.585938 C -37.062387,17.173534 -35.708069,15.020402 -34,13 h 2 l 1,-3 h 2 V 8 c 1.41606,-0.7927515 2.832876,-1.5841531 4.25,-2.375 l 2.390625,-1.3359375 C -14.865484,0.19471817 -8.4544347,-0.15037532 0,0 Z"
     fill="#fbb741"
     transform="translate(44,5)"
     id="path6"
     sodipodi:nodetypes="ccccccccccccccccccccccccccccccc" />
  <path
     d="M 0,0 H 6 L 7,3 9.6159946,4.3834961 10,6 12.346166,6.6490164 13,8 15.4375,8.8125 c 1.830838,0.6102793 3.662713,1.230299 5.4375,1.988281 C 28.121648,13.696696 35.32348,13.273078 43,13 l -3,1 v 2 L 21,15 20,18 C 13.976249,17.871835 10.459347,15.789244 5.8242187,11.988281 0.32898895,5.1457523 2.9186614,6.9855929 3,3 H 0 Z"
     fill="#fab539"
     transform="translate(8,69)"
     id="path8"
     sodipodi:nodetypes="cccccccscccccccccc" />
  <path
     d="M 0,0 V 1 L -3.3242188,1.7695312 C -4.7787521,2.1167425 -6.2331734,2.4644236 -7.6875,2.8125 L -9.8730469,3.3144531 C -14.091684,4.3354018 -17.318029,5.6159409 -21,8 l -1.475851,0.6886458 -1.399787,0.8504201 -1.711587,1.0236221 -1.616019,1.693584 -1.156193,1.184125 -1.883179,2.657204 -1,-2 L -35,15 -34,13 -32.805846,11.871496 -31,10 -30.06505,9.0558863 -29,8 c 1.41606,-0.7927515 2.832876,-1.5841531 4.25,-2.375 l 2.390625,-1.3359375 C -14.865484,0.19471817 -8.4544347,-0.15037532 0,0 Z"
     fill="#fcc860"
     transform="translate(44,5)"
     id="path12"
     sodipodi:nodetypes="cccccccccccccccccccccc" />
  <path
     d="M0 0 C2.82204183 2.82204183 2.49265491 5.70937744 2.6875 9.5 C2.73455078 10.18964844 2.78160156 10.87929688 2.83007812 11.58984375 C3.13560948 16.72878103 3.13560948 16.72878103 2 19 C1.34 19 0.68 19 0 19 C0 17.35 0 15.7 0 14 C-0.66 14 -1.32 14 -2 14 C-2.05389087 12.04196493 -2.09274217 10.08351091 -2.125 8.125 C-2.14820313 7.03445312 -2.17140625 5.94390625 -2.1953125 4.8203125 C-2 2 -2 2 0 0 Z "
     fill="#F9AA24"
     transform="translate(2,39)"
     id="path14" />
  <path
     d="M0 0 C1.01702226 3.31911917 1.04145953 6.22971569 0.9375 9.6875 C0.88530363 14.43157029 1.33577968 18.58551171 2.5625 23.16015625 C3 25 3 25 3 28 C1.35 27.01 -0.3 26.02 -2 25 C-2.33 25.99 -2.66 26.98 -3 28 C-4.60355101 24.49223216 -5.22036864 21.85645121 -5 18 C-4.34 18 -3.68 18 -3 18 C-3 19.65 -3 21.3 -3 23 C-2.34 23 -1.68 23 -1 23 C-1.00523682 22.40985107 -1.01047363 21.81970215 -1.01586914 21.21166992 C-1.03666047 18.53695745 -1.04966701 15.86226199 -1.0625 13.1875 C-1.07087891 12.25873047 -1.07925781 11.32996094 -1.08789062 10.37304688 C-1.09111328 9.48037109 -1.09433594 8.58769531 -1.09765625 7.66796875 C-1.10289307 6.84578857 -1.10812988 6.0236084 -1.11352539 5.17651367 C-1 3 -1 3 0 0 Z "
     fill="#FCC85F"
     transform="translate(5,35)"
     id="path16" />
  <path
     d="M0 0 C3.31623648 4.97435473 3.18246482 9.51405419 3.1875 15.375 C3.19974609 16.1175 3.21199219 16.86 3.22460938 17.625 C3.23659288 22.14677483 2.7105285 25.74058122 1 30 C0.67 30 0.34 30 0 30 C0 20.1 0 10.2 0 0 Z "
     fill="#FBC559"
     transform="translate(87,30)"
     id="path18" />
  <path
     d="M0 0 C0.66 0.33 1.32 0.66 2 1 C1.40075776 5.19469571 0.42500059 9.00999834 -1 13 C-1.99 13 -2.98 13 -4 13 C-4.6875 11.375 -4.6875 11.375 -5 9 C-3.5625 5.75 -3.5625 5.75 -2 3 C-1.34 3 -0.68 3 0 3 C0 2.01 0 1.02 0 0 Z "
     fill="#FAAB2B"
     transform="translate(5,28)"
     id="path20" />
  <path
     d="M0 0 C2.875 -0.1875 2.875 -0.1875 6 0 C8 3 8 3 8 7 C7.34 7 6.68 7 6 7 C6 7.66 6 8.32 6 9 C5.34 9 4.68 9 4 9 C3.67 7.02 3.34 5.04 3 3 C2.01 3 1.02 3 0 3 C0 2.01 0 1.02 0 0 Z "
     fill="#F8B02C"
     transform="translate(8,69)"
     id="path22" />
  <path
     d="M0 0 C0.82757812 0.16371094 1.65515625 0.32742187 2.5078125 0.49609375 C6.32194189 1.0464547 10.03353501 1.11089055 13.875 1.0625 C14.56335937 1.05798828 15.25171875 1.05347656 15.9609375 1.04882812 C17.64066335 1.03716336 19.32034375 1.01923271 21 1 C20.01 1.33 19.02 1.66 18 2 C18 2.66 18 3.32 18 4 C12.06 3.67 6.12 3.34 0 3 C0 2.01 0 1.02 0 0 Z "
     fill="#FCBD50"
     transform="translate(30,81)"
     id="path24" />
  <path
     d="M0 0 C0.99 0.66 1.98 1.32 3 2 C3 2.99 3 3.98 3 5 C1.68 5 0.36 5 -1 5 C-1 5.99 -1 6.98 -1 8 C-0.01 8 0.98 8 2 8 C2.33 9.98 2.66 11.96 3 14 C-1.68 9.68 -1.68 9.68 -3 6.875 C-3 5 -3 5 -1.5625 3.375 C-1.046875 2.92125 -0.53125 2.4675 0 2 C0 1.34 0 0.68 0 0 Z "
     fill="#FDC057"
     transform="translate(9,64)"
     id="path26" />
  <path
     d="m 0,0 1.6159946,1.3834961 0.4860526,1.4965145 2.2441184,0.7690058 0.7558816,1.2309942 2,1 L -1,6 -2,9 -4,6 h 2 V 4 h 2 z"
     fill="#fcbf4a"
     transform="translate(16,72)"
     id="path28"
     sodipodi:nodetypes="ccccccccccccc" />
  <path
     d="M0 0 C0 0.33 0 0.66 0 1 C-1.87077668 1.53580497 -3.7468917 2.05298887 -5.625 2.5625 C-6.66914062 2.85253906 -7.71328125 3.14257812 -8.7890625 3.44140625 C-12.19022902 4.03309337 -14.65448342 3.75851802 -18 3 C-13.56679381 -1.43320619 -5.89626565 -0.10487429 0 0 Z "
     fill="#F7C877"
     transform="translate(44,5)"
     id="path30" />
  <path
     d="M0 0 C2.64 0.33 5.28 0.66 8 1 C8.33 2.65 8.66 4.3 9 6 C8.01 6.495 8.01 6.495 7 7 C6.67 6.01 6.34 5.02 6 4 C5.01 4.33 4.02 4.66 3 5 C3 4.34 3 3.68 3 3 C2.34 3 1.68 3 1 3 C0.67 2.01 0.34 1.02 0 0 Z "
     fill="#F9BD43"
     transform="translate(87,17)"
     id="path32" />
  <path
     d="M0 0 C0.66 0.33 1.32 0.66 2 1 C-0.31 4.63 -2.62 8.26 -5 12 C-5.66 10.68 -6.32 9.36 -7 8 C-6.01 7.67 -5.02 7.34 -4 7 C-4 6.34 -4 5.68 -4 5 C-3.34 5 -2.68 5 -2 5 C-2 4.01 -2 3.02 -2 2 C-1.34 2 -0.68 2 0 2 C0 1.34 0 0.68 0 0 Z "
     fill="#FBBE51"
     transform="translate(83,66)"
     id="path34" />
  <path
     d="M0 0 C2.31 0 4.62 0 7 0 C7 1.32 7 2.64 7 4 C4.69 3.67 2.38 3.34 0 3 C0 2.01 0 1.02 0 0 Z "
     fill="#FBAB1C"
     transform="translate(15,78)"
     id="path36" />
  <path
     d="M0 0 C0.33 0 0.66 0 1 0 C1 1.65 1 3.3 1 5 C1.66 5.33 2.32 5.66 3 6 C2.01 7.485 2.01 7.485 1 9 C0.01 9 -0.98 9 -2 9 C-1.125 2.25 -1.125 2.25 0 0 Z "
     fill="#FBBF50"
     transform="translate(2,32)"
     id="path38" />
  <path
     d="M0 0 C0.99 1.32 1.98 2.64 3 4 C3 3.34 3 2.68 3 2 C4.65 2 6.3 2 8 2 C7.01 3.32 6.02 4.64 5 6 C3.35 5.67 1.7 5.34 0 5 C0 3.35 0 1.7 0 0 Z "
     fill="#FCC65B"
     transform="translate(66,40)"
     id="path40" />
  <path
     d="M0 0 C-1.75 2.0625 -1.75 2.0625 -4 4 C-6.25 3.75 -6.25 3.75 -8 3 C-5.53387212 -0.1151089 -3.89156016 -0.31553191 0 0 Z "
     fill="#F5BF54"
     transform="translate(29,8)"
     id="path42" />
  <g
     inkscape:groupmode="layer"
     id="layer1"
     inkscape:label="Layer 1" />
</svg>
