<?xml version="1.0" encoding="UTF-8"?>
<svg x=".7" y="7.2" viewBox="0 0 39.6 33.1" xmlns="http://www.w3.org/2000/svg">
	<path d="m4 10.4 0.4-3.2-0.4 0.4zm2-3.2 1.5 1.2-1.2-1.2zm1.5 1.2 18.8 0.4-0.4-0.4zm21.6 4 0.4-4-0.4 0.4zm0.4-4 4.3 0.1-0.3-0.1zm4.3 0.1 4 4.3v-0.3zm4 4.3-0.4 2.7 0.4-0.7zm-1.5 3.4 2.975 11.338 0.025-0.9375zm2.975 11.338-0.62578 1.3307 0.31328-0.4541zm-0.62578 1.3307-4.0492 3.2318 3.6-2.8zm-4.0492 3.2318-0.975 0.4375 0.7125-0.28906zm-0.975 0.4375-1.05 0.19531 0.56016-0.071288zm-1.05 0.19531-1.275-0.13281 0.65859 0.12207zm-1.275-0.13281-8.1-2.65 0.5 0.35zm-8.1-2.65-1.1-1.25 0.5875 0.75625zm-2.3-2.95-3.2875-0.1375 2.3891 0.14844zm-3.2875-0.1375-7.4125-1.8625 3.9922 1.2828zm-7.4125-1.8625 14.8-0.6-16.646-0.39121zm14.8-0.6-18.089-1.5172 1.4436 1.126zm-18.089-1.5172-1.8734-2.3703 0.78379 1.1811zm-1.8734-2.3703-0.84219-2.0516 0.31621 0.9502zm-0.84219-2.0516-0.19531-1.1609 0.04082 0.4334zm-0.19531-1.1609 9.1288 0.97376-0.028834-0.57376zm9.1288-0.17376-9.1288 0.17376 9.1 0.4zm-9.1288-3.3262-3.3-0.4 0.4 0.4zm-3.3-0.4 0.3-3.1-0.3 0.5zm3.3-3 2-3.2h-1.6zm3.5-2 18.8 4v-3.6zm21.6 4 4.7-3.9-4.3-0.1zm4.7-3.9 3.6 7 0.4-2.7zm2.5 7.7 2.3492 12.668 0.62578-1.3307zm2.3492 12.668-5.0242 3.6693 0.975-0.4375zm-5.0242 3.6693-2.325 0.0625 1.275 0.13281zm-2.325 0.0625-9.2-3.9 1.1 1.25zm-10.4-5.6-10.7-2 7.4125 1.8625zm-10.7-2h14.8v-0.6zm-3.2891-2.1172-2.7156-4.4219 0.84219 2.0516zm-2.7156-4.4219 8.9335-0.18718-9.1288-0.97376zm9.0182-1.8916-9.2135 0.73066 9.1288-0.17376zm-12.513-3.1693 0.3-3v-0.1zm3.3-3 3.5-2-1.5-1.2zm25.1 2 8.3 3.1-3.6-7zm9.5492 16.468-7.3492 3.7318 2.325-0.0625zm-7.3492 3.7318-10.4-5.6 1.2 1.7zm-10.4-5.6 4.1-2h-14.8zm-13.989-4.1172 6.2179-4.6091-8.9335 0.18718zm6.4402-6.8508-9.3511 1.2679 9.2135-0.73066zm-9.3511-2.2321-3-3.4-0.3 3zm0-3.4 22.3 2-18.8-4zm22.3 2 11.1 3.1-8.3-3.1zm5 20.2-6.3-7.6-4.1 2zm-24.389-9.7172 6.3025-4.0521-0.084643-0.55691zm6.6281-7.3656-9.5391 1.7828 9.3511-1.2679zm-9.5391-1.7172v-3.4h-3zm22.3-1.4 10 3.8 1.1-0.7zm5 20.2-4.3-5.3-2-2.3zm-24.389-9.7172 6.4402-3.5149-0.13767-0.53728zm6.8635-7.8553-9.7744 2.2725 9.5391-1.7828zm12.526-2.6275 12.349 16.468-2.3492-12.668zm5 20.2-4.1-5.2-0.2-0.1zm-24.389-9.7172 6.6281-3-0.18791-0.51487zm7.1436-8.317-10.054 2.7342 9.7744-2.2725zm17.246 18.034 1-3.7-5.1-1.5zm-24.389-9.7172 6.8635-2.5103-0.23538-0.48967zm7.4655-8.7479-10.376 3.1651 10.054-2.7342zm16.924 18.465 1.4-3.7h-0.4zm-24.389-9.7172 7.1436-2.0486-0.28005-0.4617zm7.8266-9.1453-10.738 3.5625 10.376-3.1651zm23.912 15.131-5.9492 0.031836-1.4 3.7zm-31.738-5.9854 7.4655-1.6177-0.32195-0.43093zm8.224-9.5064-11.135 3.9236 10.738-3.5625zm23.514 15.492-3.3492-1.8682-2.6 1.9zm-31.738-5.9854 7.8266-1.2203-0.36106-0.39739zm8.6549-9.8283-11.566 4.2455 11.135-3.9236zm23.083 15.814-3.3492-2.4682v0.6zm-31.738-5.9854 8.224-0.85925-0.39739-0.36106zm9.1166-10.108-12.028 4.5256 11.566-4.2455zm10.272-0.37444 9 14 3.3492 2.4682zm-19.389 10.483 8.6549-0.5373-0.43093-0.32195zm9.6063-10.344-12.517 4.7609 12.028-4.5256zm9.7828-0.13906 4.6 8.3 4.4 5.7zm-19.389 10.483 9.1166-0.25725-0.46169-0.28005zm9.6063-10.344-12.517 1.2609v3.5zm9.7828-0.13906 4 8.3h0.6zm-19.389 10.483 9.6063-0.021875-0.48967-0.23538zm10.121-10.532-13.032 1.4489 12.517-1.2609zm9.2679 0.048852-1.3 12 5.3-3.7zm-19.389 10.483 10.121 0.16604-0.51487-0.18791zm10.658-10.669-13.569 1.5865 13.032-1.4489zm-10.658 10.669 10.658 0.30371-0.53728-0.13767zm11.215-10.754-14.126 1.6712 13.569-1.5865zm6.8738 12.271-7.4307-1.2135-10.658-0.30371zm-6.8738-12.271-14.126-1.7288v3.4zm6.8738 12.271-6.8738-1.1288-0.55691-0.084643zm-6.3-12.3-14.7-1.7 14.126 1.7288zm6.3 12.3-6.3-1.1-0.57376-0.028834zm-5.7262-12.271-15.274-1.7288 14.7 1.7zm5.7262 12.271-5.7262-1.1288-0.57376 0.028834zm-5.7262-12.271 7.0262 0.27117-22.3-2zm5.7262 12.271-5.1693-1.2135-0.55691 0.084643zm-5.1693-12.187 6.4693 0.18652-7.0262-0.27117zm5.1693 12.187-4.6321-1.3511-0.53728 0.13767zm-4.6321-12.049 5.9321 0.048852-6.4693-0.18652zm4.6321 12.049-4.1172-1.5391-0.51487 0.18791zm-4.1172-11.861 5.4172-0.13906-5.9321-0.048852zm4.1172 11.861-3.6275-1.7744-0.48967 0.23538zm-3.6275-11.626 4.9275-0.37444-5.4172 0.13906zm3.6275 11.626-3.1658-2.0545-0.4617 0.28005zm-3.1658-11.346 4.4658-0.65449-4.9275 0.37444zm3.1658 11.346-2.7349-2.3764-0.43093 0.32195zm-2.7349-11.024 4.0349-0.97644-4.4658 0.65449zm2.7349 11.024-2.3375-2.7375-0.39739 0.36106zm-2.3375-10.662 3.6375-1.3375-4.0349 0.97644zm2.3375 10.662-1.9764-3.1349-0.36106 0.39739zm-1.9764-10.265 3.2764-1.7349-3.6375 1.3375zm1.9764 10.265-1.6545-3.5658-0.32195 0.43093zm-1.6545-9.8342 2.9545-2.1658-3.2764 1.7349zm1.6545 9.8342-1.3744-4.0275-0.28005 0.4617zm-1.3744-9.3725 2.6744-2.6275-2.9545 2.1658zm1.3744 9.3725-1.1391-4.5172-0.23538 0.48967zm-1.1391-8.8828 2.4391-3.1172-2.6744 2.6275zm1.1391 8.8828-0.95115-5.0321-0.18791 0.51487zm-0.95115-8.3679 2.2511-3.6321-2.4391 3.1172zm2.2511-3.6321-2.2511 6.9679 0.95115 5.0321zm-2.1135 4.1693 2.1135-4.1693-2.2511 3.6321zm2.1135-4.1693-2.1135 6.4307-0.13767 0.53728zm-2.0288 4.7262 2.0288-4.7262-2.1135 4.1693zm2.0288-4.7262-2.0288 5.8738-0.084643 0.55691zm-2 5.3 2-5.3-2.0288 4.7262zm2-5.3-2 5.3-0.028834 0.57376z" fill="#DA3232"/>
	<path d="m19.405 21.029h-1.41l0.705 0.071159zm-1.41 0-1.2513-0.52693 0.5945 0.32286zm-1.2513-0.52693-0.9456-0.9456 0.42753 0.51807zm-0.9456-0.9456-0.52692-1.2513 0.20407 0.65681zm-0.52692-1.2513v-1.41l-0.071161 0.705zm0-1.41 0.52692-1.2513-0.32286 0.5945zm0.52692-1.2513 0.9456-0.9456-0.51807 0.42752zm0.9456-0.9456 1.2513-0.52692-0.65681 0.20407zm1.2513-0.52692h1.41l-0.705-0.071162zm1.41 0 1.2513 0.52692-0.5945-0.32286zm1.2513 0.52692 0.9456 0.9456-0.42752-0.51807zm0.9456 0.9456 0.52693 1.2513-0.20407-0.65681zm0.52693 1.2513v1.41l0.07116-0.705zm0 1.41-0.52693 1.2513 0.32286-0.5945zm-0.52693 1.2513-0.9456 0.9456 0.51807-0.42752zm-0.9456 0.9456-1.2513 0.52693 0.65681-0.20407zm-1.2513 0.52693-2.6613-0.52693 1.2513 0.52693zm-2.6613-0.52693-1.4725-2.1969 0.52692 1.2513zm-1.4725-2.1969 0.52692-2.6613-0.52692 1.2513zm0.52692-2.6613 2.1969-1.4725-1.2513 0.52692zm2.1969-1.4725 2.6613 0.52692-1.2513-0.52692zm2.6613 0.52692 1.4725 2.1969-0.52693-1.2513zm1.4725 2.1969-0.52693 2.6613 0.52693-1.2513zm-0.52693 2.6613-2.1969 1.4725 1.2513-0.52693zm-2.1969 1.4725-4.1338-2.7238 1.4725 2.1969zm-4.1338-2.7238 2.7238-4.1338-2.1969 1.4725zm2.7238-4.1338 4.1338 2.7238-1.4725-2.1969zm4.1338 2.7238-2.7238 4.1338 2.1969-1.4725zm-2.7238 4.1338-1.41-6.8577-2.7238 4.1338zm-1.41-6.8577 1.41 6.8577 2.7238-4.1338z" fill="#DA3232"/>
</svg>
