
<svg xmlns="http://www.w3.org/2000/svg" x="1.8" y="1.8" viewBox="0 0 38.2 38.2" xmlns:v="https://vecta.io/nano">
	<path d="M11.7 17l.3-.1h-.2zm5.1-.2l.1-5-.1.3zm.1-5l5.6-.1h-5.3zm5.6-.1l.4.4-.1-.3zm.5 5.2l5 .1-.3-.1zm5 .1l.1 5.6v-5.3zm.1 5.6l-.4.4.3-.1zm-5.2.5l-.1 5 .1-.3zm-.1 5l-5.6.1h5.3zm-5.6.1l-.4-.4.1.3zm-.5-5.2l-5-.1.3.1zm-5-.1l-.1-5.6v5.3zm-.1-5.6l.1-.3-.1.1zm.1-.3l5-.1H12zm5.1-.1l.1-5.1-.1 5zm.1-5.1l6 .3-.4-.4zm6 5.1l5.1.1-5-.1zm5.1.1l-.3 6 .4-.4zm-5.1 6l-.1 5.1.1-5zm-.1 5.1l-6-.3.4.4zm-6-5.1l-5.1-.1 5 .1zm-5.1-.1V17l-.1.3zm0-5.9l5.1-.1h-.1zm5.1-.1l6.1-4.8-6-.3zm6.1 0l4.8 6.1.3-6zm0 6.1l-6.1 4.8 6 .3zm-6.1 0l-5.1-6v5.9zm0-6.1l6.1-.1v-4.7zm6.1 0L23 23h4.7zm0 6.1l-6.1.1v4.7zm-6.1 0v-6.1l-5.1.1zm0-6.1h6.1v-.1zm6.1 0V23h.1zm0 6.1h-6.1v.1zm-6.1 0l6.1-6.1h-6.1zm6.1-6.1L16.8 23h6.1z" fill="#fff"/>
	<path d="M33.9 20l.005 1.126L34 20zm.005 1.126L32.9 24.8l.756-2.447zM31.8 27.5l-4.3 4.3 10.7 6.4zm-4.3 4.3l-3.525 1.625 1.819-.691zm-3.525 1.625L20 34l2.044-.147zM20 34l-3.975-.575 1.931.428zm-3.975-.575L12.5 31.8l1.706.934zM12.5 31.8l-4.3-4.3-6.4 10.7zm-4.3-4.3l-1.625-3.525.691 1.819zm-1.625-3.525L6 20l.147 2.044zM6 20l1.927 1.759L7.8 20zm3.6 6.4l4 4v-4zm16.8 4l4-4h-4zm4-16.8l-4-4v4zm-16.8-4l-4 4h4zm-5.673 8.655L6 20h1.8zM6 20l.575-3.975-.428 1.931zm.575-3.975L8.2 12.5l-.934 1.706zM8.2 12.5l4.2-4.3L1.8 1.8zm4.2-4.3l3.525-1.625-1.819.691zm3.525-1.625L19.9 6l-2.044.147zM19.9 6l3.975.575-1.931-.428zm3.975.575L27.4 8.2l-1.706-.934zM27.4 8.2l4.3 4.3 6.4-10.7zm4.3 4.3l1.625 3.525-.691-1.819zm1.625 3.525L33.9 20l-.147-2.044zM33.9 20l-1 4.8 1.005-3.674zm-1 4.8l-5.4 7 4.3-4.3zm-5.4 7L20 34l3.975-.575zM20 34l-7.5-2.2 3.525 1.625zm-7.5-2.2l-5.925-7.825L8.2 27.5zm-5.925-7.825l1.352-2.216L6 20zm1.712-7.362L6 20l1.927-1.745zM6 20l2.2-7.5-1.625 3.525zm2.2-7.5l7.725-5.925L12.4 8.2zm7.725-5.925h7.95L19.9 6zm7.95 0L31.7 12.5l-4.3-4.3zM31.7 12.5l2.2 7.5-.575-3.975zm2.2 7.5l-6.4 11.8 5.4-7zM6.575 23.975l1.712-.55-.361-1.666zm2.28-8.911L6 20l2.287-3.387zm-2.28 8.911l2.28 1.003-.567-1.553zM9.6 13.6L6 20l2.855-4.936zM6.575 23.975L9.6 26.4l-.745-1.422zM9.6 13.6l-1.4-1.1L6 20zm2.9 18.2l-2.9-5.4-3.025-2.425zm1.1-22.2l-5.4 2.9 1.4 1.1zm-1.1 22.2l1.1-1.4-4-4zm1.1-22.2l2.325-3.025L8.2 12.5zM20 34l-6.4-3.6-1.1 1.4zM15.022 8.855l.903-2.28L13.6 9.6zM20 34l-4.936-2.855L13.6 30.4zM16.575 8.288l-.65-1.712-.903 2.28zM20 34l-3.387-2.287-1.548-.567zM18.241 7.927l-2.316-1.352.65 1.712zM20 34l-1.745-1.927-1.642-.361zm0-26.2l-4.075-1.225 2.316 1.352zM20 34v-1.8l-1.745-.127zm1.745-26.073l-5.82-1.352L20 7.8zM27.5 31.8l-7.5.4V34zM23.388 8.288l-7.463-1.712 5.82 1.352zM27.5 31.8l-5.741.273L20 32.2zM23.388 8.288l.488-1.712h-7.95zM27.5 31.8l-4.075-.087-1.666.361zM24.936 8.855l-1.061-2.28-.488 1.712zM27.5 31.8l-2.522-.655-1.553.567zM26.4 9.6l-2.525-3.025 1.061 2.28zm1.1 22.2l-1.1-1.4-1.422.745zm2.9-18.2l-6.525-7.025L26.4 9.6zm-2.9 18.2l2.9-5.4-4 4zm2.9-18.2l1.3-1.1-7.825-5.925zm3.5 6.4l-3.5 6.4-2.9 5.4zm-2.755-4.978L31.7 12.5l-1.3 1.1zM33.9 20l-2.755 4.936L30.4 26.4zm-2.187-3.425L31.7 12.5l-.555 2.522zM33.9 20l-2.187 3.387-.567 1.548zm-1.827-1.759L31.7 12.5l.013 4.075zM33.9 20l-1.827 1.745-.361 1.642zm-1.7 0l-.5-7.5.373 5.741zm1.7 0h-1.7l-.127 1.745zm-1.7 0h1.7l-2.2-7.5z" fill="#ffe000"/>
</svg>
