<?xml version="1.0" encoding="UTF-8"?>
<svg version="1.1" xmlns="http://www.w3.org/2000/svg" width="96" height="96">
<path d="M0 0 C3.52788586 0.57732564 6.29157557 1.48498372 9.43359375 3.1796875 C10.6546582 3.83130859 10.6546582 3.83130859 11.90039062 4.49609375 C12.73763672 4.95113281 13.57488281 5.40617188 14.4375 5.875 C16.10260113 6.76872018 17.76795995 7.66196045 19.43359375 8.5546875 C20.21589355 8.97588867 20.99819336 9.39708984 21.80419922 9.83105469 C24.51223865 11.27269276 27.24637313 12.6478125 30 14 C30.99 13.34 31.98 12.68 33 12 C42.47591625 8.74076766 53.50888228 8.90007849 63 12 C63.64324219 12.4021875 64.28648438 12.804375 64.94921875 13.21875 C67.0334729 14.26991827 67.0334729 14.26991827 69.26953125 13.1640625 C70.10871094 12.65617188 70.94789062 12.14828125 71.8125 11.625 C72.76769531 11.068125 73.72289063 10.51125 74.70703125 9.9375 C75.79371094 9.298125 76.88039063 8.65875 78 8 C80.65298194 6.51588951 83.32429262 5.06763414 86 3.625 C86.97030151 3.08866943 86.97030151 3.08866943 87.96020508 2.54150391 C90.84741473 0.97897816 92.66471247 0 96 0 C95.42267436 3.52788586 94.51501628 6.29157557 92.8203125 9.43359375 C92.38589844 10.24763672 91.95148438 11.06167969 91.50390625 11.90039062 C91.04886719 12.73763672 90.59382813 13.57488281 90.125 14.4375 C89.23127982 16.10260113 88.33803955 17.76795995 87.4453125 19.43359375 C87.02411133 20.21589355 86.60291016 20.99819336 86.16894531 21.80419922 C84.72730724 24.51223865 83.3521875 27.24637313 82 30 C82.99 31.485 82.99 31.485 84 33 C87.25923234 42.47591625 87.09992151 53.50888228 84 63 C83.5978125 63.64324219 83.195625 64.28648438 82.78125 64.94921875 C81.73008173 67.0334729 81.73008173 67.0334729 82.8359375 69.26953125 C83.34382813 70.10871094 83.85171875 70.94789062 84.375 71.8125 C84.931875 72.76769531 85.48875 73.72289063 86.0625 74.70703125 C86.701875 75.79371094 87.34125 76.88039063 88 78 C89.48411049 80.65298194 90.93236586 83.32429262 92.375 86 C92.73255371 86.64686768 93.09010742 87.29373535 93.45849609 87.96020508 C95.02102184 90.84741473 96 92.66471247 96 96 C92.47211414 95.42267436 89.70842443 94.51501628 86.56640625 92.8203125 C85.75236328 92.38589844 84.93832031 91.95148438 84.09960938 91.50390625 C83.26236328 91.04886719 82.42511719 90.59382813 81.5625 90.125 C79.89739887 89.23127982 78.23204005 88.33803955 76.56640625 87.4453125 C75.78410645 87.02411133 75.00180664 86.60291016 74.19580078 86.16894531 C71.48776135 84.72730724 68.75362687 83.3521875 66 82 C65.01 82.66 64.02 83.32 63 84 C53.52408375 87.25923234 42.49111772 87.09992151 33 84 C32.35675781 83.5978125 31.71351562 83.195625 31.05078125 82.78125 C28.9665271 81.73008173 28.9665271 81.73008173 26.73046875 82.8359375 C25.89128906 83.34382813 25.05210938 83.85171875 24.1875 84.375 C23.23230469 84.931875 22.27710937 85.48875 21.29296875 86.0625 C20.20628906 86.701875 19.11960937 87.34125 18 88 C15.34701806 89.48411049 12.67570738 90.93236586 10 92.375 C9.35313232 92.73255371 8.70626465 93.09010742 8.03979492 93.45849609 C5.15258527 95.02102184 3.33528753 96 0 96 C0.57732564 92.47211414 1.48498372 89.70842443 3.1796875 86.56640625 C3.61410156 85.75236328 4.04851563 84.93832031 4.49609375 84.09960938 C5.17865234 82.84374023 5.17865234 82.84374023 5.875 81.5625 C6.76872018 79.89739887 7.66196045 78.23204005 8.5546875 76.56640625 C9.18648926 75.39295654 9.18648926 75.39295654 9.83105469 74.19580078 C11.27269276 71.48776135 12.6478125 68.75362687 14 66 C13.34 65.01 12.68 64.02 12 63 C8.74076766 53.52408375 8.90007849 42.49111772 12 33 C12.4021875 32.35675781 12.804375 31.71351562 13.21875 31.05078125 C14.26991827 28.9665271 14.26991827 28.9665271 13.1640625 26.73046875 C12.65617188 25.89128906 12.14828125 25.05210938 11.625 24.1875 C11.068125 23.23230469 10.51125 22.27710937 9.9375 21.29296875 C9.298125 20.20628906 8.65875 19.11960937 8 18 C6.51588951 15.34701806 5.06763414 12.67570738 3.625 10 C3.26744629 9.35313232 2.90989258 8.70626465 2.54150391 8.03979492 C0.97897816 5.15258527 0 3.33528753 0 0 Z M33 21 C33 24.96 33 28.92 33 33 C29.04 33 25.08 33 21 33 C19.6536732 35.69265361 19.87037364 37.80114249 19.8671875 40.8125 C19.86589844 41.97007813 19.86460938 43.12765625 19.86328125 44.3203125 C19.86714844 45.53460938 19.87101562 46.74890625 19.875 48 C19.87113281 49.21429688 19.86726563 50.42859375 19.86328125 51.6796875 C19.86457031 52.83726563 19.86585937 53.99484375 19.8671875 55.1875 C19.86831543 56.25355469 19.86944336 57.31960937 19.87060547 58.41796875 C19.82595802 60.9868214 19.82595802 60.9868214 21 63 C24.96 63 28.92 63 33 63 C33 66.96 33 70.92 33 75 C35.69265361 76.3463268 37.80114249 76.12962636 40.8125 76.1328125 C42.54886719 76.13474609 42.54886719 76.13474609 44.3203125 76.13671875 C46.14175781 76.13091797 46.14175781 76.13091797 48 76.125 C49.21429688 76.12886719 50.42859375 76.13273437 51.6796875 76.13671875 C52.83726563 76.13542969 53.99484375 76.13414063 55.1875 76.1328125 C56.78658203 76.13112061 56.78658203 76.13112061 58.41796875 76.12939453 C60.9868214 76.17404198 60.9868214 76.17404198 63 75 C63 71.04 63 67.08 63 63 C66.96 63 70.92 63 75 63 C76.3463268 60.30734639 76.12962636 58.19885751 76.1328125 55.1875 C76.13410156 54.02992187 76.13539062 52.87234375 76.13671875 51.6796875 C76.13091797 49.85824219 76.13091797 49.85824219 76.125 48 C76.12886719 46.78570312 76.13273437 45.57140625 76.13671875 44.3203125 C76.13542969 43.16273437 76.13414063 42.00515625 76.1328125 40.8125 C76.13112061 39.21341797 76.13112061 39.21341797 76.12939453 37.58203125 C76.17404198 35.0131786 76.17404198 35.0131786 75 33 C71.04 33 67.08 33 63 33 C63 29.04 63 25.08 63 21 C60.30734639 19.6536732 58.19885751 19.87037364 55.1875 19.8671875 C53.45113281 19.86525391 53.45113281 19.86525391 51.6796875 19.86328125 C49.85824219 19.86908203 49.85824219 19.86908203 48 19.875 C46.78570312 19.87113281 45.57140625 19.86726563 44.3203125 19.86328125 C43.16273437 19.86457031 42.00515625 19.86585937 40.8125 19.8671875 C39.21341797 19.86887939 39.21341797 19.86887939 37.58203125 19.87060547 C35.0131786 19.82595802 35.0131786 19.82595802 33 21 Z " fill="#FDE30D" transform="translate(0,0)"/>
<path d="M0 0 C5.94 0 11.88 0 18 0 C18 3.96 18 7.92 18 12 C21.96 12 25.92 12 30 12 C30 17.94 30 23.88 30 30 C26.04 30 22.08 30 18 30 C18 33.96 18 37.92 18 42 C12.06 42 6.12 42 0 42 C0 38.04 0 34.08 0 30 C-3.96 30 -7.92 30 -12 30 C-12 24.06 -12 18.12 -12 12 C-8.04 12 -4.08 12 0 12 C0 8.04 0 4.08 0 0 Z " fill="#FEFEFE" transform="translate(39,27)"/>
<path d="M0 0 C5.19228855 0.57229633 9.3103703 3.0982161 13.8125 5.5625 C14.60076172 5.98724609 15.38902344 6.41199219 16.20117188 6.84960938 C18.1373378 7.89396554 20.07005367 8.9442077 22 10 C18.25 12 18.25 12 16 12 C16 11.01 16 10.02 16 9 C15.34 9 14.68 9 14 9 C14 8.34 14 7.68 14 7 C12.02 7.33 10.04 7.66 8 8 C7.67 9.98 7.34 11.96 7 14 C7.66 14.33 8.32 14.66 9 15 C8.01 15 7.02 15 6 15 C4.99267601 13.06629769 3.99436712 11.12789694 3 9.1875 C2.443125 8.10855469 1.88625 7.02960937 1.3125 5.91796875 C0 3 0 3 0 0 Z " fill="#FBE41E" transform="translate(0,0)"/>
<path d="M0 0 C-0.57634139 4.75481646 -2.55068521 7.97048212 -5 12 C-6.5625 10.1875 -6.5625 10.1875 -8 8 C-7.67 7.01 -7.34 6.02 -7 5 C-7.598125 5.33 -8.19625 5.66 -8.8125 6 C-11 7 -11 7 -14 7 C-14 7.66 -14 8.32 -14 9 C-14.99 9 -15.98 9 -17 9 C-17 9.66 -17 10.32 -17 11 C-18.65 11 -20.3 11 -22 11 C-20.77488066 8.54976132 -19.89901003 8.27380371 -17.47265625 7.08984375 C-16.76302734 6.73986328 -16.05339844 6.38988281 -15.32226562 6.02929688 C-14.57654297 5.66900391 -13.83082031 5.30871094 -13.0625 4.9375 C-12.32064453 4.57333984 -11.57878906 4.20917969 -10.81445312 3.83398438 C-9.43760506 3.15866724 -8.05954459 2.48581273 -6.67993164 1.81616211 C-2.94166916 0 -2.94166916 0 0 0 Z " fill="#FCE92B" transform="translate(96,0)"/>
<path d="M0 0 C0 0.99 0 1.98 0 3 C0.66 3 1.32 3 2 3 C2 3.66 2 4.32 2 5 C4.31 5.33 6.62 5.66 9 6 C9.66 4.35 10.32 2.7 11 1 C14.15295167 4.15295167 16 7.51187917 16 12 C10.80771145 11.42770367 6.6896297 8.9017839 2.1875 6.4375 C1.39923828 6.01275391 0.61097656 5.58800781 -0.20117188 5.15039062 C-2.1373378 4.10603446 -4.07005367 3.0557923 -6 2 C-2.25 0 -2.25 0 0 0 Z " fill="#FBE823" transform="translate(80,84)"/>
<path d="M0 0 C1.40912096 2.81824192 1.11183553 5.17251282 1.09765625 8.3203125 C1.09443359 9.57714844 1.09121094 10.83398438 1.08789062 12.12890625 C1.07951172 13.44761719 1.07113281 14.76632813 1.0625 16.125 C1.05748489 17.46484211 1.05292201 18.804686 1.04882812 20.14453125 C1.03701086 23.42973206 1.02053617 26.71484397 1 30 C-0.32 29.34 -1.64 28.68 -3 28 C-2.8897609 24.27024394 -2.75921587 20.54146417 -2.625 16.8125 C-2.5940625 15.75740234 -2.563125 14.70230469 -2.53125 13.61523438 C-2.49257813 12.59365234 -2.45390625 11.57207031 -2.4140625 10.51953125 C-2.3826416 9.58214111 -2.3512207 8.64475098 -2.31884766 7.67895508 C-1.97977169 4.83004192 -1.17742543 2.60479556 0 0 Z " fill="#FDEA3E" transform="translate(20,33)"/>
<path d="M0 0 C1.65 0 3.3 0 5 0 C0.80022081 3.6578722 -3.87201939 6.79365864 -9 9 C-9.66 8.67 -10.32 8.34 -11 8 C-10.67 7.34 -10.34 6.68 -10 6 C-9.34 6 -8.68 6 -8 6 C-7.67 5.01 -7.34 4.02 -7 3 C-5.02 3 -3.04 3 -1 3 C-0.67 2.01 -0.34 1.02 0 0 Z " fill="#FDE937" transform="translate(24,81)"/>
<path d="M0 0 C0 0.99 0 1.98 0 3 C0.66 3 1.32 3 2 3 C2.33 3.99 2.66 4.98 3 6 C-0.0831351 4.80100302 -3.06279492 3.52299523 -6 2 C-2.25 0 -2.25 0 0 0 Z " fill="#FCEB3D" transform="translate(80,84)"/>
<path d="M0 0 C3.0831351 1.19899698 6.06279492 2.47700477 9 4 C5.25 6 5.25 6 3 6 C3 5.01 3 4.02 3 3 C2.34 3 1.68 3 1 3 C0.67 2.01 0.34 1.02 0 0 Z " fill="#FDEB3A" transform="translate(13,6)"/>
<path d="M0 0 C1.32 1.32 2.64 2.64 4 4 C1 6 1 6 -2 6 C-1.125 1.125 -1.125 1.125 0 0 Z " fill="#FEEB2D" transform="translate(2,90)"/>
<path d="M0 0 C2.4375 0.375 2.4375 0.375 5 1 C5.33 1.66 5.66 2.32 6 3 C4.68 3.99 3.36 4.98 2 6 C0 3 0 3 0 0 Z " fill="#FEEA2E" transform="translate(0,0)"/>
</svg>
