<?xml version="1.0" encoding="UTF-8"?>
<svg x="3.8" y=".7" viewBox="0 0 36.1 39.8" xmlns="http://www.w3.org/2000/svg">
	<path d="m31.3 16.4 0.89316-0.61016-0.44402 0.24326zm0.89316-0.61016 1.6223 0.11094-0.77012-0.25703zm1.6223 0.11094 0.91164 1.0081-0.26457-0.40889zm0.91164 1.0081 0.3856 0.99824-0.16716-0.52666zm0.3856 0.99824 0.16001 1.1881-0.049248-0.61396zm0.16001 1.1881-0.10659 1.317 0.08918-0.6708zm-0.10659 1.317-0.52664 1.4636 0.36055-0.77578zm-0.52664 1.4636-1.5645 2.0742 1.1031-1.3312zm-1.5645 2.0742-1.6488 1.3992 0.5082-0.36797zm-2.575 2.45 0.1125 4.4375 0.087499-0.5375zm0.1125 4.4375-6.7125 6.8625 6.4-6.4zm-6.7125 6.8625-0.81035 0.68906 0.4196-0.31992zm-0.81035 0.68906-0.90996 0.49219 0.46545-0.22148zm-0.90996 0.49219-0.97793 0.29531 0.49548-0.12304zm-0.97793 0.29531-1.0143 0.098437 0.50969-0.024607zm-1.0143 0.098437-1.0189-0.098437 0.50808 0.07383zm-1.0189-0.098437-0.99199-0.29531 0.49065 0.17227zm-0.99199-0.29531-0.9334-0.49219 0.4574 0.27071zm-0.9334-0.49219-0.84316-0.68906 0.40832 0.36914zm-0.84316-0.68906-6.9125-7.0625 0.3125 0.4625zm-6.9125-7.0625 0.012501-4.3375-0.1 3.8zm-0.4875-5.1375-2.075-1.6125 1.1406 1.0078zm-2.075-1.6125-1.5645-2.083 0.46133 0.75644zm-1.5645-2.083-0.54421-1.4923 0.18367 0.68779zm-0.54421-1.4923-0.13472-1.317 0.030298 0.64619zm-0.13472-1.317 0.14126-1.1881-0.10256 0.57412zm0.14126-1.1881 0.37622-0.99824-0.21492 0.47158zm0.37622-0.99824 0.91516-1.0081-0.65176 0.59922zm0.91516-1.0081 1.6598-0.11094-0.87559-0.14609zm1.6598-0.11094 0.92598 0.61016-0.46672-0.3669zm0.92598 0.61016 0.048438-5.9109-0.24395 2.8494zm0.048438-5.9109 0.6916-2.5846-0.40227 1.2559zm0.6916-2.5846 1.1475-2.267-0.63123 1.0905zm1.1475-2.267 1.6115-1.8967-0.86428 0.89875zm1.6115-1.8967 2.0838-1.4736-1.1014 0.68064zm2.0838-1.4736 2.5643-0.99785-1.3427 0.43616zm2.5643-0.99785 3.0529-0.46934-1.5881 0.16531zm3.0529-0.46934 1.7705 0.18289-1.5705-0.18289zm1.7705 0.18289 2.7794 0.76831-1.3298-0.44905zm2.7794 0.76831 2.3042 1.2611-1.0932-0.68884zm2.3042 1.2611 1.8373 1.7011-0.86077-0.90227zm1.8373 1.7011 1.3785 2.0884-0.6324-1.0893zm1.3785 2.0884 1.2254 3.7435-0.70566-2.5705zm1.2254 3.7435 0.10469 5.8547 0.16269-3.0287zm0.10469 5.9547 2.5154-0.49922-1.6223-0.11094zm2.5154-0.49922 1.2972 2.0063-0.3856-0.99824zm1.2972 2.0063 0.053422 2.5051 0.10659-1.317zm0.053422 2.5051-2.0911 3.5378 1.5645-2.0742zm-2.0911 3.5378-2.075 1.65 0.42617-0.25078zm-2.575 2.45-6.6 11.3 6.7125-6.8625zm-6.6 11.3-1.7203 1.1813 0.90996-0.49219zm-1.7203 1.1813-1.9922 0.39375 1.0143-0.098437zm-1.9922 0.39375-2.0109-0.39375 0.99199 0.29531zm-2.0109-0.39375-1.7766-1.1813 0.84316 0.68906zm-1.7766-1.1813-6.9-11.4-0.012501 4.3375zm-6.775-11.762-2.7-2.05 2.075 1.6125zm-2.7-2.05-2.1087-3.5753 0.54421 1.4923zm-2.1087-3.5753 0.006543-2.5051-0.14126 1.1881zm0.006543-2.5051 1.2914-2.0063-0.91516 1.0081zm1.2914-2.0063 2.5857 0.49922-0.92598-0.61016zm2.5857 0.49922 0.74004-8.4955-0.6916 2.5846zm0.74004-8.4955 2.759-4.1637-1.6115 1.8967zm2.759-4.1637 4.648-2.4715-2.5643 0.99785zm4.648-2.4715 4.8234-0.28645-1.7705-0.18289zm4.8234-0.28645 5.0837 2.0294-2.3042-1.2611zm5.0837 2.0294 3.2157 3.7896-1.3785-2.0884zm3.2157 3.7896 1.3301 9.5982-0.10469-5.8547zm1.3301 9.6982 3.8127 1.5071-1.2972-2.0063zm3.8127 1.5071-2.0377 6.0429 2.0911-3.5378zm-4.4752 8.0554-6.7375 11.737 6.6-11.3zm-6.7375 11.737-3.7125 1.575 1.9922-0.39375zm-3.7125 1.575-3.7875-1.575 1.7766 1.1813zm-3.7875-1.575-6.775-11.762-0.125 0.3625zm-6.775-11.762-4.8087-5.6253 2.1087 3.5753zm-4.8087-5.6253 1.2979-4.5114-1.2914 2.0063zm3.8837-4.0122 3.499-12.659-2.759 4.1637zm3.499-12.659 9.4715-2.7579-4.8234 0.28645zm9.4715-2.7579 8.2994 5.8189-3.2157-3.7896zm8.2994 5.8189 1.3301 9.6982v-0.1zm1.3301 9.6982 1.775 7.55 2.0377-6.0429zm-0.6625 9.5625-10.45 13.312 3.7125-1.575zm-10.45 13.312-10.562-13.338 6.775 11.762zm-10.562-13.338-3.5107-10.137-1.2979 4.5114zm-0.925-9.6375 12.97-15.417-9.4715 2.7579zm12.97-15.417 9.6295 15.517-1.3301-9.6982zm9.6295 15.517-0.3 9.2 2.075-1.65zm-0.6625 9.5625-21.012-0.025002 10.562 13.338zm-21.012-0.025002-0.925-9.6375-2.5857-0.49922zm-0.925-9.6375 22.6 0.1-9.6295-15.517zm22.6 0.1-0.6625 9.5625 0.3625-0.3625zm-0.6625 9.5625-21.938-9.6625 0.925 9.6375zm-21.938-9.6625 21.938 9.6625 0.6625-9.5625z" fill="#5835D8"/>
	<path d="m26.833 25.955-1.102 0.40176 0.56934-0.15644zm-1.102 0.40176-1.134-0.066797 0.56113 0.093164zm-1.134-0.066797-1.0262-0.50273 0.49199 0.30058zm-1.0262-0.50273-0.79648-0.8543 0.36191 0.46582zm-0.79648-0.8543-0.43047-1.1061 0.15644 0.57344zm-0.43047-1.1061 0.066795-1.1562-0.093162 0.57344zm0.066795-1.1562 0.50274-1.0438-0.30059 0.49844zm0.50274-1.0438 0.8543-0.78125-0.46582 0.34844zm0.8543-0.78125 1.102-0.40176-0.56934 0.15645zm1.102-0.40176 1.134 0.066797-0.56113-0.093164zm1.134 0.066797 1.0262 0.50273-0.49199-0.30058zm1.0262 0.50273 0.79649 0.8543-0.36192-0.46582zm0.79649 0.8543 0.43047 1.1061-0.15645-0.57344zm0.43047 1.1061-0.066799 1.1562 0.093166-0.57344zm-0.066799 1.1562-0.50274 1.0438 0.30059-0.49844zm-0.50274 1.0438-0.8543 0.78125 0.46582-0.34844zm-0.8543 0.78125-2.2359 0.33496 1.134 0.066797zm-2.2359 0.33496-1.8227-1.357 0.79648 0.8543zm-1.8227-1.357-0.36367-2.2623-0.066795 1.1562zm-0.36367-2.2623 1.357-1.825-0.8543 0.78125zm1.357-1.825 2.2359-0.33496-1.134-0.066797zm2.2359-0.33496 1.8227 1.357-0.79649-0.8543zm1.8227 1.357 0.36367 2.2623 0.066799-1.1562zm0.36367 2.2623-1.357 1.825 0.8543-0.78125zm-1.357 1.825-4.0586-1.0221 1.8227 1.357zm-4.0586-1.0221 0.99336-4.0873-1.357 1.825zm0.99336-4.0873 4.0586 1.0221-1.8227-1.357zm4.0586 1.0221-0.99336 4.0873 1.357-1.825zm-0.99336 4.0873-3.0652-5.1094-0.99336 4.0873zm-3.0652-5.1094 3.0652 5.1094 0.99336-4.0873z" fill="#fff"/>
	<path d="m14.9 18.2 9.3 5.8 0.4-0.6zm9.3 5.8-9.3-5.8-0.4 0.6z" fill="#fff"/>
	<path d="m14.423 20.022h-1.8891l0.96562 0.17812zm-1.8891 0-1.2562-1.2562 0.49688 0.75938zm-1.2562-1.2562v-1.9312l-0.17813 0.96562zm0-1.9312 1.2562-1.2562-0.75937 0.49688zm1.2562-1.2562h1.9312l-0.96562-0.17812zm1.9312 0 1.2562 1.2562-0.49688-0.75938zm1.2562 1.2562-0.014062 1.9312 0.19219-0.96562zm-0.014062 1.9312-1.2844 1.2562 0.76406-0.49687zm-1.2844 1.2562-3.1453-1.2562 1.2562 1.2562zm-3.1453-1.2562 1.2562-3.1875-1.2562 1.2562zm1.2562-3.1875 3.1875 1.2562-1.2562-1.2562zm3.1875 1.2562-1.2984 3.1875 1.2844-1.2562zm-1.2984 3.1875-1.8891-4.4438-1.2562 3.1875zm-1.8891-4.4438 1.8891 4.4438 1.2984-3.1875z" fill="#fff"/>
	<path d="m26.012 6.075 1.0875 1.125-0.43594-0.66562zm1.0875 1.125-0.075 1.6125 0.19687-0.78281zm-0.075 1.6125-1.125 1.0875 0.66562-0.43594zm-1.125 1.0875-1.575-0.074999 0.7875 0.19687zm-1.575-0.074999-1.125-1.125 0.45 0.66562zm-1.125-1.125 0.075-1.6125-0.19688 0.78281zm0.075-1.6125 1.125-1.0875-0.66562 0.43594zm1.125-1.0875 1.6125 0.075-0.78281-0.19688zm1.6125 0.075 1.0125 2.7375 0.075-1.6125zm1.0125 2.7375-2.7 1.0125 1.575 0.074999zm-2.7 1.0125-1.05-2.7375-0.075 1.6125zm-1.05-2.7375 2.7375-1.0125-1.6125-0.075zm2.7375-1.0125-1.6875 3.75 2.7-1.0125zm-1.6875 3.75 1.6875-3.75-2.7375 1.0125z" fill="#fff"/>
	<path d="m24.7 9.2 1 11.6v-11.6zm1 11.6-1-11.6v11.6z" fill="#fff"/>
	<path d="m16.975 30.175 1.125 1.125-0.45-0.66563zm1.125 1.125-0.075 1.6125 0.19687-0.78282zm-0.075 1.6125-1.125 1.0875 0.66562-0.43594zm-1.125 1.0875-1.6125-0.075 0.78281 0.19688zm-1.6125-0.075-1.0875-1.125 0.43594 0.66563zm-1.0875-1.125 0.075-1.575-0.19688 0.7875zm0.075-1.575 1.125-1.125-0.66562 0.45zm1.125-1.125 1.575 0.075-0.7875-0.19687zm1.575 0.075 1.05 2.7375 0.075-1.6125zm1.05 2.7375-2.7375 1.0125 1.6125 0.075zm-2.7375 1.0125-1.0125-2.7-0.075 1.575zm-1.0125-2.7 2.7-1.05-1.575-0.075zm2.7-1.05-1.6875 3.75 2.7375-1.0125zm-1.6875 3.75 1.6875-3.75-2.7 1.05z" fill="#fff"/>
	<path d="m24.6 24.5-7.3 7.5 7.9-6.8zm-7.3 7.5 7.3-7.5-7.9 6.8z" fill="#fff"/>
</svg>
