<?xml version="1.0" encoding="UTF-8"?>
<svg version="1.1" xmlns="http://www.w3.org/2000/svg" width="96" height="96">
<path d="M0 0 C0.99 0 1.98 0 3 0 C2.34 1.98 1.68 3.96 1 6 C0.34 6 -0.32 6 -1 6 C-1.12375 6.7425 -1.2475 7.485 -1.375 8.25 C-1.95486701 10.80141485 -2.73708739 12.7267573 -4 15 C-4.66 15 -5.32 15 -6 15 C-6.226875 15.804375 -6.45375 16.60875 -6.6875 17.4375 C-8.33631588 21.91285739 -10.60544412 25.88721318 -13 30 C-13.66 30 -14.32 30 -15 30 C-15.33 31.65 -15.66 33.3 -16 35 C-15.37351563 34.566875 -14.74703125 34.13375 -14.1015625 33.6875 C-12.87566406 32.8521875 -12.87566406 32.8521875 -11.625 32 C-10.81289062 31.443125 -10.00078125 30.88625 -9.1640625 30.3125 C-7 29 -7 29 -5 29 C-6.48539285 34.28139679 -10.08672304 38.28054101 -14 42 C-14.66 42 -15.32 42 -16 42 C-16.33 42.99 -16.66 43.98 -17 45 C-17.66 45 -18.32 45 -19 45 C-19.2475 45.556875 -19.495 46.11375 -19.75 46.6875 C-22.36394252 51.52329366 -26.14606719 55.14606719 -30 59 C-32.12578259 61.20927972 -34.22213399 63.44473792 -36.3125 65.6875 C-37.13717773 66.55858398 -37.13717773 66.55858398 -37.97851562 67.44726562 C-40.98783128 70.25741309 -40.98783128 70.25741309 -42 74 C-40.84371094 73.36771484 -40.84371094 73.36771484 -39.6640625 72.72265625 C-38.66117188 72.17480469 -37.65828125 71.62695312 -36.625 71.0625 C-35.62726562 70.51722656 -34.62953125 69.97195312 -33.6015625 69.41015625 C-24.28019994 64.35758585 -12.37614544 65.88282897 -2 66 C-2.66 66.99 -3.32 67.98 -4 69 C-4.99 69 -5.98 69 -7 69 C-7 69.66 -7 70.32 -7 71 C-7.78375 71.37125 -8.5675 71.7425 -9.375 72.125 C-13.23937113 74.01607523 -16.76704032 76.40529036 -20.33984375 78.79296875 C-25.89184921 81.31216066 -31.95626297 79.84077581 -37.8125 79 C-45.29166362 77.80042914 -45.29166362 77.80042914 -51.8125 80.9375 C-52.78703125 81.5665625 -53.7615625 82.195625 -54.765625 82.84375 C-58.81373776 85.54249184 -62.80524399 88.31886326 -66.7590332 91.15405273 C-70.78393624 94 -70.78393624 94 -73 94 C-73 94.66 -73 95.32 -73 96 C-74.32 96 -75.64 96 -77 96 C-75.21134509 89.85149876 -72.78325052 84.15659486 -70.0625 78.375 C-69.72669922 77.65900635 -69.39089844 76.9430127 -69.04492188 76.20532227 C-67.43139624 72.81871297 -65.7542738 69.51414126 -63.86328125 66.2734375 C-62.33789246 63.59361401 -61.16894223 61.13326903 -60.125 58.25 C-57.93058513 52.54452134 -55.02395563 47.30200221 -52 42 C-51.67 42 -51.34 42 -51 42 C-51.33 47.28 -51.66 52.56 -52 58 C-49.29726476 54.37061268 -46.82740912 50.80117414 -44.6875 46.8125 C-39.95395195 38.14669417 -35.11399576 29.84207695 -27 24 C-26.34 24 -25.68 24 -25 24 C-24.505 22.515 -24.505 22.515 -24 21 C-22.30618696 19.45681128 -20.54557498 17.98599728 -18.75 16.5625 C-17.79609375 15.80066406 -16.8421875 15.03882813 -15.859375 14.25390625 C-14.00320473 12.7907775 -12.1415156 11.33461309 -10.2734375 9.88671875 C-7.85534578 8.01971595 -7.85534578 8.01971595 -5.875 5.25 C-5.25625 4.5075 -4.6375 3.765 -4 3 C-3.01 3 -2.02 3 -1 3 C-0.67 2.01 -0.34 1.02 0 0 Z M-54 60 C-53 62 -53 62 -53 62 Z " fill="#DD403E" transform="translate(85,0)"/>
<path d="M0 0 C0.33 0 0.66 0 1 0 C1.13558695 3.04317386 1.23437239 6.08025562 1.3125 9.125 C1.35439453 9.9809375 1.39628906 10.836875 1.43945312 11.71875 C1.5241619 16.12360645 1.42481401 19.09481784 -1.39453125 22.6171875 C-4 25 -4 25 -6 25 C-6 20.05 -6 15.1 -6 10 C-5.34 10 -4.68 10 -4 10 C-2.68 6.7 -1.36 3.4 0 0 Z " fill="#DE6665" transform="translate(48,11)"/>
<path d="M0 0 C-1.48539285 5.28139679 -5.08672304 9.28054101 -9 13 C-9.66 13 -10.32 13 -11 13 C-11.33 13.66 -11.66 14.32 -12 15 C-12.33 13.68 -12.66 12.36 -13 11 C-12.01 11.33 -11.02 11.66 -10 12 C-10.33 10.02 -10.66 8.04 -11 6 C-9.54550599 4.9944239 -8.08627557 3.99569565 -6.625 3 C-5.40683594 2.1646875 -5.40683594 2.1646875 -4.1640625 1.3125 C-2 0 -2 0 0 0 Z " fill="#E46F71" transform="translate(80,29)"/>
<path d="M0 0 C0.99 0 1.98 0 3 0 C2.34 1.98 1.68 3.96 1 6 C0.34 6 -0.32 6 -1 6 C-1.12375 6.7425 -1.2475 7.485 -1.375 8.25 C-1.95486701 10.80141485 -2.73708739 12.7267573 -4 15 C-4.66 15 -5.32 15 -6 15 C-6.33 13.35 -6.66 11.7 -7 10 C-5.68 9.34 -4.36 8.68 -3 8 C-4.32 8 -5.64 8 -7 8 C-7 6 -7 6 -5.6875 4.375 C-4 3 -4 3 -1 3 C-0.67 2.01 -0.34 1.02 0 0 Z " fill="#DE525A" transform="translate(85,0)"/>
<path d="M0 0 C0.33 0 0.66 0 1 0 C0.57477229 7.8667126 -0.02462968 15.36190145 -2 23 C-2.33 23 -2.66 23 -3 23 C-3 18.71 -3 14.42 -3 10 C-3.33 10.99 -3.66 11.98 -4 13 C-4.66 13 -5.32 13 -6 13 C-4.31326082 8.50202887 -2.18326108 4.27113698 0 0 Z " fill="#E77576" transform="translate(33,42)"/>
<path d="M0 0 C4 1 4 1 6 2 C5.67 3.32 5.34 4.64 5 6 C3.68 6.33 2.36 6.66 1 7 C1 7.66 1 8.32 1 9 C-0.32 9 -1.64 9 -3 9 C-2.01 6.03 -1.02 3.06 0 0 Z " fill="#E15D5A" transform="translate(11,87)"/>
<path d="M0 0 C0.680625 0.12375 1.36125 0.2475 2.0625 0.375 C1.0625 2.375 1.0625 2.375 -0.9375 4.375 C-1.33797444 6.69775177 -1.6772104 9.03239357 -1.9375 11.375 C-2.2675 11.375 -2.5975 11.375 -2.9375 11.375 C-3.5975 9.395 -4.2575 7.415 -4.9375 5.375 C-5.2675 6.035 -5.5975 6.695 -5.9375 7.375 C-7.2575 7.045 -8.5775 6.715 -9.9375 6.375 C-3.86310175 0.49316193 -3.86310175 0.49316193 0 0 Z " fill="#DF4E4E" transform="translate(79.9375,7.625)"/>
<path d="M0 0 C5.28 0 10.56 0 16 0 C15.01 1.485 15.01 1.485 14 3 C13.01 3 12.02 3 11 3 C11 3.66 11 4.32 11 5 C9.68 5.33 8.36 5.66 7 6 C6.67 4.68 6.34 3.36 6 2 C3.03 1.505 3.03 1.505 0 1 C0 0.67 0 0.34 0 0 Z " fill="#E67275" transform="translate(67,66)"/>
<path d="M0 0 C0.33 0 0.66 0 1 0 C1.125 7.625 1.125 7.625 0 11 C-2.5625 12.1875 -2.5625 12.1875 -5 13 C-4.67 10.36 -4.34 7.72 -4 5 C-3.01 4.67 -2.02 4.34 -1 4 C-0.26676204 1.98491642 -0.26676204 1.98491642 0 0 Z " fill="#D73635" transform="translate(30,51)"/>
<path d="M0 0 C0.33 0 0.66 0 1 0 C1 2.64 1 5.28 1 8 C0.01 7.67 -0.98 7.34 -2 7 C-2 7.99 -2 8.98 -2 10 C-2.66 10 -3.32 10 -4 10 C-4 7.03 -4 4.06 -4 1 C-2.68 1.33 -1.36 1.66 0 2 C0 1.34 0 0.68 0 0 Z " fill="#D93434" transform="translate(47,22)"/>
<path d="M0 0 C1.10235591 3.3741029 0.97848812 4.06346006 -0.25 7.6875 C-2 11 -2 11 -5 12 C-4.35550393 8.98782888 -3.34977818 6.48344164 -1.9375 3.75 C-1.57527344 3.04359375 -1.21304687 2.3371875 -0.83984375 1.609375 C-0.56269531 1.07828125 -0.28554688 0.5471875 0 0 Z " fill="#E15B5A" transform="translate(20,69)"/>
<path d="M0 0 C-1.44253657 3.36591866 -3.33264727 5.51047079 -6 8 C-7.03348696 4.89953913 -7.17755913 3.94389782 -6 1 C-3 0 -3 0 0 0 Z " fill="#DE6A6D" transform="translate(39,32)"/>
<path d="M0 0 C-1.55500981 3.81684226 -4.03595495 6.19195732 -7 9 C-7.37254569 5.64708882 -7.31050198 4.3961577 -5.1875 1.6875 C-3 0 -3 0 0 0 Z " fill="#E46968" transform="translate(48,65)"/>
<path d="M0 0 C0.99 0 1.98 0 3 0 C2.34 1.98 1.68 3.96 1 6 C0.67 5.34 0.34 4.68 0 4 C-1.32 4.33 -2.64 4.66 -4 5 C-4 4.34 -4 3.68 -4 3 C-3.01 3 -2.02 3 -1 3 C-0.67 2.01 -0.34 1.02 0 0 Z " fill="#E8827E" transform="translate(85,0)"/>
<path d="M0 0 C-0.66 1.98 -1.32 3.96 -2 6 C-2.66 6 -3.32 6 -4 6 C-4.33 4.35 -4.66 2.7 -5 1 C-3 0 -3 0 0 0 Z " fill="#E5635E" transform="translate(83,9)"/>
</svg>
