<?xml version="1.0" encoding="UTF-8"?>
<svg version="1.1" xmlns="http://www.w3.org/2000/svg" width="96" height="96">
<path d="M0 0 C1.33804688 0.04060547 1.33804688 0.04060547 2.703125 0.08203125 C3.37859375 0.11683594 4.0540625 0.15164063 4.75 0.1875 C5.245 1.6725 5.245 1.6725 5.75 3.1875 C6.74 3.5175 7.73 3.8475 8.75 4.1875 C8.9453125 6.23828125 9.140625 8.2890625 9.3359375 10.33984375 C9.47257812 10.94957031 9.60921875 11.55929687 9.75 12.1875 C10.74 12.6825 10.74 12.6825 11.75 13.1875 C11.75 13.8475 11.75 14.5075 11.75 15.1875 C12.41 15.1875 13.07 15.1875 13.75 15.1875 C14.97691067 17.64132134 14.95175931 19.38734103 15 22.125 C15.02578125 23.00027344 15.0515625 23.87554688 15.078125 24.77734375 C14.75 27.1875 14.75 27.1875 13.52734375 28.9296875 C11.38064384 30.44889051 9.6396125 30.88945706 7.0625 31.375 C6.25425781 31.53355469 5.44601563 31.69210938 4.61328125 31.85546875 C3.99839844 31.96503906 3.38351563 32.07460938 2.75 32.1875 C2.16025365 27.76440241 1.75 23.66030434 1.75 19.1875 C0.43 18.8575 -0.89 18.5275 -2.25 18.1875 C-1.755 18.991875 -1.26 19.79625 -0.75 20.625 C1.09527349 25.00752454 1.03061086 28.51065231 0.75 33.1875 C-2.78882835 35.11360096 -5.1874976 35.53324488 -9.25 35.1875 C-10.24 34.5275 -11.23 33.8675 -12.25 33.1875 C-12.25 32.1975 -12.25 31.2075 -12.25 30.1875 C-13.24 29.8575 -14.23 29.5275 -15.25 29.1875 C-15.25 28.5275 -15.25 27.8675 -15.25 27.1875 C-16.24 27.5175 -17.23 27.8475 -18.25 28.1875 C-17.321875 29.05375 -17.321875 29.05375 -16.375 29.9375 C-13.32756214 33.16419891 -12.29720712 34.960115 -12.125 39.4375 C-12.16625 40.345 -12.2075 41.2525 -12.25 42.1875 C-11.26 42.5175 -10.27 42.8475 -9.25 43.1875 C-8.23133771 44.84282623 -7.23189187 46.51010138 -6.25 48.1875 C-5.26 48.8475 -4.27 49.5075 -3.25 50.1875 C-2.5418906 53.18210004 -2.47018872 56.10485789 -2.25 59.1875 C4.68 59.6825 4.68 59.6825 11.75 60.1875 C11.42 61.1775 11.09 62.1675 10.75 63.1875 C10.09 63.1875 9.43 63.1875 8.75 63.1875 C8.75 64.1775 8.75 65.1675 8.75 66.1875 C7.4375 67.875 7.4375 67.875 5.75 69.1875 C4.76 69.1875 3.77 69.1875 2.75 69.1875 C2.75 69.8475 2.75 70.5075 2.75 71.1875 C1.57244141 71.5896875 1.57244141 71.5896875 0.37109375 72 C-6.33209111 74.50032908 -10.64821783 76.83037524 -14.9453125 82.61328125 C-15.37585937 83.13277344 -15.80640625 83.65226562 -16.25 84.1875 C-16.91 84.1875 -17.57 84.1875 -18.25 84.1875 C-18.745 85.6725 -18.745 85.6725 -19.25 87.1875 C-19.91 87.1875 -20.57 87.1875 -21.25 87.1875 C-21.745 88.6725 -21.745 88.6725 -22.25 90.1875 C-22.91 90.1875 -23.57 90.1875 -24.25 90.1875 C-24.25 91.1775 -24.25 92.1675 -24.25 93.1875 C-25.88221996 95.63582995 -27.00344814 96.12879718 -29.875 96.8125 C-34.98030695 95.86707279 -38.58358918 92.78873018 -42.25 89.1875 C-42.25 88.5275 -42.25 87.8675 -42.25 87.1875 C-43.24 86.8575 -44.23 86.5275 -45.25 86.1875 C-45.25 85.5275 -45.25 84.8675 -45.25 84.1875 C-46.24 83.8575 -47.23 83.5275 -48.25 83.1875 C-48.25 82.5275 -48.25 81.8675 -48.25 81.1875 C-49.24 80.8575 -50.23 80.5275 -51.25 80.1875 C-51.25 79.5275 -51.25 78.8675 -51.25 78.1875 C-51.91 78.1875 -52.57 78.1875 -53.25 78.1875 C-56.0894052 74.51297562 -57.25 72.91863419 -57.25 68.1875 C-55.9206543 66.83129883 -55.9206543 66.83129883 -54.07421875 65.64453125 C-53.41099609 65.21076172 -52.74777344 64.77699219 -52.06445312 64.33007812 C-51.01161133 63.67168945 -51.01161133 63.67168945 -49.9375 63 C-49.24720703 62.54947266 -48.55691406 62.09894531 -47.84570312 61.63476562 C-44.96784162 59.78014376 -42.51712943 58.27654314 -39.25 57.1875 C-39.25 56.5275 -39.25 55.8675 -39.25 55.1875 C-37.93 55.5175 -36.61 55.8475 -35.25 56.1875 C-35.724375 55.465625 -36.19875 54.74375 -36.6875 54 C-39.95058533 48.1264464 -39.43319668 41.79535065 -39.4375 35.25 C-39.44974609 34.27353516 -39.46199219 33.29707031 -39.47460938 32.29101562 C-39.48491548 27.22384771 -39.39816694 22.88472418 -37.25 18.1875 C-34.69011936 15.71019616 -33.86186134 15.1875 -30.25 15.1875 C-30.25 14.5275 -30.25 13.8675 -30.25 13.1875 C-28.19414903 12.00756797 -26.13163459 10.84371545 -24.0625 9.6875 C-22.91394531 9.0378125 -21.76539063 8.388125 -20.58203125 7.71875 C-17.39681371 6.2549689 -15.6798499 5.73603895 -12.25 6.1875 C-11.755 6.6825 -11.755 6.6825 -11.25 7.1875 C-11.0025 6.589375 -10.755 5.99125 -10.5 5.375 C-7.92604593 0.87058039 -5.05249227 -0.19944048 0 0 Z M-6.25 13.1875 C-6.25 13.8475 -6.25 14.5075 -6.25 15.1875 C-5.59 14.8575 -4.93 14.5275 -4.25 14.1875 C-4.91 13.8575 -5.57 13.5275 -6.25 13.1875 Z M7.75 13.1875 C8.75 15.1875 8.75 15.1875 8.75 15.1875 Z M-4.25 15.1875 C-3.25 17.1875 -3.25 17.1875 -3.25 17.1875 Z M4.75 16.1875 C4.42 16.8475 4.09 17.5075 3.75 18.1875 C4.41 18.1875 5.07 18.1875 5.75 18.1875 C5.42 17.5275 5.09 16.8675 4.75 16.1875 Z " fill="#FFFFFF" transform="translate(66.25,-0.1875)"/>
<path d="M0 0 C3.2105451 1.69970034 3.90121884 3.7757042 5.125 7.125 C5.17074384 8.7910388 5.17882678 10.45920276 5.125 12.125 C-10.03582943 19.18442401 -10.03582943 19.18442401 -16.875 18.125 C-19.6475969 16.48234833 -21.75841073 14.54295794 -23.875 12.125 C-23.545 10.475 -23.215 8.825 -22.875 7.125 C-22.18535156 6.95484375 -21.49570312 6.7846875 -20.78515625 6.609375 C-15.96927564 5.36741951 -11.48203884 4.05177434 -7 1.875 C-4.37098921 0.66377717 -2.93595201 0.12765009 0 0 Z " fill="#FFFFFF" transform="translate(80.875,29.875)"/>
<path d="M0 0 C1.62494776 3.24989552 1.67129699 6.4981827 1 10 C-1.9928743 13.52102859 -3.82177927 13.89472942 -8.41015625 14.3046875 C-18.26773139 14.48817907 -18.26773139 14.48817907 -22 12 C-22.8125 10.0625 -22.8125 10.0625 -23 8 C-20.48757571 4.23136356 -17.86898739 3.62093074 -13.75 2.3125 C-13.09386719 2.08755859 -12.43773438 1.86261719 -11.76171875 1.63085938 C-7.72280829 0.30998309 -4.23972343 -0.24358659 0 0 Z " fill="#FFFFFF" transform="translate(86,45)"/>
</svg>
