<?xml version="1.0" encoding="UTF-8"?>
<svg version="1.1" xmlns="http://www.w3.org/2000/svg" width="40" height="40">
<path d="M0 0 C7.26 0.33 14.52 0.66 22 1 C22.33 2.32 22.66 3.64 23 5 C23.99 5 24.98 5 26 5 C26 3.68 26 2.36 26 1 C29.51121797 1.2926015 30.80482666 1.8099628 33.375 4.3125 C35 7 35 7 34.625 8.875 C34.41875 9.57625 34.2125 10.2775 34 11 C34.495 12.7015625 34.495 12.7015625 35 14.4375 C35.99636251 17.98704145 36.32038764 19.60471751 35 23 C33.4375 24.875 33.4375 24.875 31 26 C25.84638879 25.83639329 22.16446973 25.25349198 18 22 C18 21.34 18 20.68 18 20 C16.989375 20.061875 15.97875 20.12375 14.9375 20.1875 C9.92812551 19.94895836 6.28630457 18.52420305 2.125 15.75 C0.36744925 13.01603217 0.30027357 10.18289979 0 7 C-0.99 7 -1.98 7 -3 7 C-3 5.68 -3 4.36 -3 3 C-2.01 3 -1.02 3 0 3 C0 2.01 0 1.02 0 0 Z M11.25 6.125 C9.44908271 8.82637593 9.66257934 10.82824583 10 14 C11.88138759 16.28930236 11.88138759 16.28930236 14.9375 16.375 C18.03727981 16.28568869 18.03727981 16.28568869 19.9375 14.3125 C21.28969442 11.36948861 21.11068406 10.01471387 20 7 C16.80759355 4.87172903 14.71225386 3.89926538 11.25 6.125 Z M22 17 C22.56362302 19.04836882 22.56362302 19.04836882 24 21 C27.05908413 21.81584568 27.05908413 21.81584568 30 22 C30.66 21.01 31.32 20.02 32 19 C30.71937515 17.2925002 29.38232443 15.62626404 28 14 C25.23776722 14 24.10718546 15.31425163 22 17 Z " fill="#CF2E2E" transform="translate(3,7)"/>
<path d="M0 0 C0.625 1.875 0.625 1.875 1 4 C0.34 4.66 -0.32 5.32 -1 6 C-3.625 5.625 -3.625 5.625 -6 5 C-6 3.35 -6 1.7 -6 0 C-3.50907189 -1.24546405 -2.58919267 -0.7767578 0 0 Z " fill="#CC2E2D" transform="translate(21,15)"/>
</svg>
