<?xml version="1.0" encoding="UTF-8" standalone="no"?>
<svg
   version="1.1"
   width="653.59375"
   height="502.74796"
   id="svg112"
   sodipodi:docname="fleau_white.svg"
   inkscape:version="1.1.2 (0a00cf5339, 2022-02-04)"
   xmlns:inkscape="http://www.inkscape.org/namespaces/inkscape"
   xmlns:sodipodi="http://sodipodi.sourceforge.net/DTD/sodipodi-0.dtd"
   xmlns="http://www.w3.org/2000/svg"
   xmlns:svg="http://www.w3.org/2000/svg">
  <defs
     id="defs116" />
  <sodipodi:namedview
     id="namedview114"
     pagecolor="#ffffff"
     bordercolor="#666666"
     borderopacity="1.0"
     inkscape:pageshadow="2"
     inkscape:pageopacity="0.0"
     inkscape:pagecheckerboard="0"
     showgrid="false"
     showguides="true"
     inkscape:guide-bbox="true"
     inkscape:zoom="0.90509668"
     inkscape:cx="347.47669"
     inkscape:cy="336.98058"
     inkscape:window-width="1920"
     inkscape:window-height="1026"
     inkscape:window-x="1920"
     inkscape:window-y="0"
     inkscape:window-maximized="1"
     inkscape:current-layer="layer1" />
  <path
     d="m -61.189362,-27.23543 c 257.070002,0 514.140002,0 779.000002,0 0,179.18999 0,358.37999 0,542.99999 -257.07,0 -514.14,0 -779.000002,0 0,-179.19 0,-358.38 0,-542.99999 z"
     fill="#f6f0e6"
     id="path2"
     style="opacity:0" />
  <g
     inkscape:groupmode="layer"
     id="layer1"
     inkscape:label="Layer 1"
     style="display:inline"
     transform="translate(-62.40625,-26.591105)">
    <path
       id="rect1065"
       style="fill:#8e9594;fill-opacity:1"
       d="m 310.375,60.175781 c -11.08,0 -20,8.92 -20,20 V 251.25195 c 0,11.08 8.92,20 20,20 h 139.29102 c 1.03505,-0.90122 2.06422,-1.79236 3.0996,-2.54297 4.95648,-3.57803 4.95664,-3.57828 10.56055,-6.1582 7.5585,-3.58324 9.91164,-7.04617 14.4375,-13.9375 2.72182,-4.32131 5.40804,-8.63825 8.36524,-12.80273 4.64768,-6.50424 13.46173,-20.72808 15.29882,-27.03125 0,0 0.0275,-4.41018 0.0234,-11.82227 V 80.175781 c 0,-11.08 -8.92,-20 -20,-20 z m 79.54492,38.980469 c 0.86226,0.0022 1.72344,0.01204 2.58594,0.02734 13.8,-0.244895 27.58013,1.18829 41.03516,4.26758 8.78995,2.18844 19.11114,4.15747 18.7832,17.14258 -0.47417,17.94476 -0.10969,35.89046 -0.36524,53.83594 0.0916,2.96003 -0.60037,5.89151 -2.00586,8.49804 -13.09726,23.96563 -31.57631,44.56516 -53.98242,60.18165 -1.0392,0.83974 -2.31269,1.33669 -3.64648,1.42187 -1.33379,-0.0852 -2.60728,-0.58213 -3.64649,-1.42187 -22.40611,-15.61649 -40.88515,-36.21602 -53.98242,-60.18165 -1.40548,-2.60653 -2.09743,-5.53801 -2.00586,-8.49804 0,-17.94548 0.47418,-35.89118 0,-53.83594 -0.32865,-12.98511 9.9945,-14.95414 18.78516,-17.14258 12.61342,-2.88683 25.51141,-4.327982 38.44531,-4.294924 z" />
    <path
       id="rect1065-7"
       style="fill:#8e9594;fill-opacity:1"
       d="m 82.40625,288.0332 c -11.08,0 -20,8.92 -20,20 v 171.07618 c 0,11.07999 8.92,20 20,20 h 171.07617 c 11.08,0 20,-8.92001 20,-20 V 308.0332 c 0,-11.08 -8.92,-20 -20,-20 z m 63.94727,37.8418 h 44.86718 c 1.00675,0 1.97375,0.39953 2.68555,1.11133 0.7118,0.7118 1.11133,1.6788 1.11133,2.68555 v 40.41601 c 0,0.40634 0.15962,0.79589 0.44336,1.08594 0.28374,0.29004 0.67053,0.45769 1.07617,0.46679 h 40.44922 c 0.50442,10e-6 1.00551,0.10016 1.4707,0.29493 0.46519,0.19546 0.88519,0.48239 1.23828,0.84179 0.3538,0.36011 0.63201,0.78522 0.81836,1.25391 0.18636,0.46869 0.27864,0.97019 0.26953,1.47461 V 420.375 c 0,1.00675 -0.39883,1.9718 -1.11132,2.68359 -0.7118,0.7125 -1.67811,1.11329 -2.68555,1.11329 h -40.44922 c -0.40564,0.009 -0.79243,0.17675 -1.07617,0.46679 -0.28374,0.29075 -0.44336,0.6796 -0.44336,1.08594 v 40.34766 c 0,1.00744 -0.39953,1.97179 -1.11133,2.68359 -0.7118,0.7125 -1.6788,1.11328 -2.68555,1.11328 h -44.86718 c -1.00675,0 -1.97375,-0.40078 -2.68555,-1.11328 -0.7118,-0.7118 -1.11328,-1.67615 -1.11328,-2.68359 v -40.41602 c 0,-0.41195 -0.16238,-0.80816 -0.45313,-1.09961 -0.29144,-0.29074 -0.68641,-0.45508 -1.09765,-0.45508 h -40.41797 c -1.007448,0 -1.971799,-0.39953 -2.683596,-1.11133 -0.712499,-0.71179 -1.113282,-1.67684 -1.113282,-2.68359 V 375.4375 c 0,-1.00745 0.400783,-1.97375 1.113282,-2.68555 0.711797,-0.7125 1.676148,-1.11133 2.683596,-1.11133 h 40.41797 c 0.41124,10e-6 0.80621,-0.16363 1.09765,-0.45507 0.29075,-0.29145 0.45313,-0.68571 0.45313,-1.09766 v -40.41601 c 0,-1.00675 0.40148,-1.97375 1.11328,-2.68555 0.7118,-0.7118 1.6788,-1.11133 2.68555,-1.11133 z" />
    <path
       id="rect1065-6"
       style="fill:#8e9594;fill-opacity:1"
       d="m 82.40625,60.175781 c -11.08,0 -20,8.92 -20,20 V 251.25195 c 0,11.08 8.92,20 20,20 h 171.07617 c 11.08,0 20,-8.92 20,-20 V 80.175781 c 0,-11.08 -8.92,-20 -20,-20 z m 37.71484,40.833989 c 0.35591,0 0.71196,0.0665 1.04883,0.19921 14.75559,6.59591 14.98438,28.13868 14.98438,28.13868 v 87.46484 h -32.33203 v -87.46484 c 0,0 0.34216,-21.6189 15.25,-28.13868 0.33687,-0.13268 0.69292,-0.19921 1.04882,-0.19921 z m 47.4336,0 c 0.3559,0 0.71195,0.0665 1.04883,0.19921 14.90783,6.59591 15.02148,28.13868 15.02148,28.13868 v 87.46484 h -32.37109 v -87.46484 c 0,0 0.34411,-21.6189 15.25195,-28.13868 0.33687,-0.13268 0.69292,-0.19921 1.04883,-0.19921 z m 47.58398,0 c 0.35555,0 0.71196,0.0665 1.04883,0.19921 14.90855,6.59591 15.02148,28.13868 15.02148,28.13868 v 87.46484 h -32.36914 v -87.46484 c 0,0 0.34412,-21.6189 15.25196,-28.13868 0.33687,-0.13268 0.69132,-0.19921 1.04687,-0.19921 z m -111.35156,128.3457 h 32.33203 v 13.6875 c 0,1.11271 -0.44165,2.17993 -1.22852,2.9668 -0.78615,0.78615 -1.85283,1.22851 -2.96484,1.22851 h -23.94336 c -1.11271,0 -2.17993,-0.44236 -2.9668,-1.22851 -0.78615,-0.78687 -1.22851,-1.85409 -1.22851,-2.9668 z m 47.58594,0 h 32.36914 v 13.6875 c -0.01,1.10916 -0.45355,2.17105 -1.23828,2.95508 -0.78403,0.78473 -1.84592,1.23027 -2.95508,1.24023 h -23.98242 c -1.11201,0 -2.17869,-0.44236 -2.96485,-1.22851 -0.78687,-0.78687 -1.22851,-1.85409 -1.22851,-2.9668 z m 47.57812,0 h 32.3711 v 13.6875 c 0,1.11271 -0.44236,2.17993 -1.22852,2.9668 -0.78687,0.78615 -1.85408,1.22851 -2.9668,1.22851 h -23.98242 c -1.112,0 -2.17868,-0.44236 -2.96484,-1.22851 -0.78687,-0.78687 -1.22852,-1.85409 -1.22852,-2.9668 z" />
    <g
       style="fill:none"
       id="g7508"
       transform="matrix(7.0984031,0,0,7.0984031,240.00753,21.073614)" />
    <g
       style="fill:none"
       id="g7522"
       transform="matrix(7.0058825,0,0,7.0058825,19.724846,248.80973)" />
    <g
       style="fill:none"
       id="g7551"
       transform="matrix(7.1145539,0,0,7.1145539,17.703605,22.749933)" />
    <path
       id="path4"
       d="m 565.87109,0 c -14.17444,0.08679941 -27.40832,7.8867957 -35.27734,21.408203 -3.15926,7.898156 -4.40502,15.721137 -2.17969,24.082031 l 0.92969,3.105469 c -0.7196,12.070898 -0.71985,12.071631 -8.07813,22.589844 -1.40273,2.251575 -2.80132,4.505926 -4.19726,6.761719 l -2.18945,3.539062 c -10.60691,17.124228 -20.96419,34.379922 -31.11719,51.777342 -2.01655,3.4586 -4.03467,6.91796 -6.06055,10.3711 -5.8907,10.02582 -11.73871,20.06833 -17.40234,30.22461 -9.8275,17.65178 -19.95077,35.07993 -30.84571,52.0996 -0.97219,1.51274 -1.91577,2.98098 -2.85937,4.44922 -0.95093,1.52336 -1.87394,3.00192 -2.79687,4.48047 -0.89782,1.40914 -1.76922,2.77684 -2.64063,4.14453 -2.16037,3.60619 -2.16037,3.60619 -4.5625,6.375 -9.05015,1.81004 -15.5704,5.35609 -22,12 -4.67546,6.72098 -5.19893,10.9537 -4.9375,19.125 0.44186,5.72925 0.45132,8.08312 -2.71875,12.96875 -6.16502,7.20213 -6.16502,7.20213 -18.73047,24.59375 -1.14351,1.59375 -2.25339,3.14063 -3.36328,4.6875 -2.09726,2.86486 -4.18217,5.73883 -6.25,8.625 -1.24645,2.03596 -2.5128,4.06011 -3.8125,6.0625 -4.74674,4.46336 -6.00077,4.54309 -12.25,4.875 -2.64514,-0.064 -5.29381,-0.046 -7.9375,0.0625 -8.81255,3.15783 -14.93192,8.36537 -20.60547,15.77344 -0.81414,1.09703 -1.60433,2.1618 -2.39453,3.22656 -2.93758,3.92837 -5.87617,7.85641 -8.76563,11.82032 -1.74034,2.3971 -3.48674,4.78788 -5.23437,7.17968 -1.80646,2.3219 -3.60048,4.6536 -5.375,7 -4.60443,6.69349 -4.33953,12.10038 -3.1875,20 1.43019,7.62767 2.15474,13.32527 -0.875,20.5625 -3.07039,7.21841 -3.47504,12.89471 -1.5,20.5625 6.78401,13.56802 21.98202,23.66271 35.9375,28.875 7.9317,0.77383 13.36081,-0.65018 20,-5 3.33603,-4.3921 5.22701,-6.71029 10.46094,-8.67187 4.85838,-1.06591 9.7039,-2.16129 14.53906,-3.32813 13.01801,-4.48539 13.018,-4.48539 26.75195,-30.82617 0.65808,-1.27035 1.29682,-2.50334 1.93555,-3.73633 7.47738,-14.2211 14.62226,-27.0692 9.875,-43.375 -1.81248,-4.71246 -3.40341,-8.07155 -1.36914,-12.88476 0.63426,-0.99917 1.24962,-1.96968 1.86523,-2.93946 0.7093,-1.14036 1.3975,-2.24669 2.08594,-3.35351 1.55067,-2.41575 3.09043,-4.83788 4.61914,-7.26758 l 2.38477,-3.80859 c 2.43665,-3.87499 4.82095,-7.75555 7.10156,-11.72461 0.73545,-1.31235 1.45024,-2.58758 2.16406,-3.86133 1.38543,-2.44774 2.76835,-4.8969 4.14844,-7.34766 3.2055,-5.91705 5.08679,-10.98351 11.57813,-13.44531 6.7189,-0.74806 11.9755,-4.58677 16.73437,-9.24219 3.5856,-5.37839 6.29183,-9.47851 5.87891,-16.18359 -1.12747,-13.77367 2.87836,-20.94481 10.2539,-31.98438 3.35715,-4.97719 6.36982,-10.06359 9.27344,-15.3164 4.54815,-8.30446 9.18176,-16.55351 13.96875,-24.72266 5.30309,-9.0256 10.52817,-18.08659 15.625,-27.23047 6.27358,-11.25667 12.64612,-22.45417 19.05078,-33.63672 2.03507,-3.55174 4.06948,-7.10363 6.09961,-10.6582 7.90726,-13.85732 15.78993,-27.72984 23.80469,-41.52539 1.72928,-2.973117 3.45861,-5.946183 5.16992,-8.929687 l 2.69141,-4.921875 2.30859,-4.140625 1.875,-3.472656 c 1.98719,-2.803758 1.98719,-2.803758 5.64453,-3.234375 1.18336,-0.07836 3.05886,-0.671434 4.20741,-0.747484 5.48377,-0.857803 5.65246,-2.257052 10.27306,-1.482985 2.19448,2.449702 2.19448,2.449702 4,6 1.27187,3.688435 2.60766,7.355333 4,11 2.01562,2.319858 4.01904,4.650484 6,7 -0.0916,0.931015 -0.18058,1.834647 -0.26953,2.738277 -2.16889,9.68459 -2.80087,19.74751 -3.37305,29.63868 -0.0578,1.08359 -0.11385,2.13383 -0.16992,3.18554 -0.36496,5.66506 -0.53158,10.44685 1.36328,15.90235 1.86432,3.55322 1.86432,3.55322 0.44922,7.53515 -4.96813,6.69375 -7.34371,12.52703 -9.37109,20.62891 l -1.00391,4.24609 c -2.64722,10.40598 -5.88105,20.82686 -2.125,31.3125 0.51,0.95625 1.005,1.88438 1.5,2.8125 h -2 c -7.07638,5.30729 -7.07638,5.30729 -14.77148,21.8086 -1.03072,2.24291 -1.03072,2.24291 -2.04102,4.4414 -4.54335,9.50934 -8.34769,17.08687 -7.1875,27.75 l 1,4 c -0.69461,1.10102 -1.36879,2.16965 -2.04297,3.23828 -1.00539,1.27899 -1.98121,2.52036 -2.95703,3.76172 -2.09634,2.73518 -4.20098,5.46402 -6.3125,8.1875 -3.17994,4.08799 -6.23815,8.04496 -8.85547,12.51563 -1.17057,2.06659 -2.39314,4.10511 -3.67969,6.10156 -2.77267,2.82803 -4.70233,3.19154 -8.58984,3.75781 -2.19049,0.0905 -4.37891,0.2417 -6.5625,0.4375 -4.17309,2.13798 -4.17309,2.13798 -9,3 -3.19321,-1.22669 -5.81156,-2.84292 -8.67383,-4.71289 -2.01155,-1.40143 -4.0325,-2.78948 -6.0625,-4.16406 -1.00738,-0.66473 -1.98513,-1.3099 -2.96289,-1.95508 -2.65112,-1.8352 -2.98029,-2.49013 -5.86634,-3.02061 -3.8244,-0.70295 -5.43444,-0.14736 -8.68444,1.91514 -3.77426,4.0316 -4.49602,7.90559 -5.17383,13.31641 -0.0859,1.1812 -0.16855,2.3262 -0.25195,3.47266 -0.21809,2.59066 -0.43016,5.18183 -0.63672,7.77343 -0.14104,2.00422 -0.14105,2.00422 -0.2793,3.96875 -0.11356,1.29891 -0.22376,2.55961 -0.33398,3.82032 -0.32672,4.30829 -0.54434,6.01219 -3.50586,9.22851 -2.56812,2.35888 -2.56836,2.35742 -4.73242,6.68555 -0.83672,1.67344 -1.64883,3.29765 -2.46094,4.92187 -6.34333,10.45255 -13.36845,13.04627 -24.94141,16.07618 -4.9229,1.26006 -8.63692,2.06828 -12.72265,5.17382 -1.71094,2.5 -1.71094,2.5 -2.14844,6.125 0.66338,5.11749 0.66338,5.11749 12.4375,14.375 7.71618,5.65854 14.18166,9.99473 16.5625,19.625 0.68472,3.67188 1.25044,6.93967 2.72656,10.375 2.76332,5.18702 5.35198,9.14058 3.99805,15.17969 -0.39388,1.20893 -0.77591,2.38132 -1.1582,3.55469 -0.84438,2.6754 -1.70031,5.34718 -2.56641,8.01562 -2.63576,8.0992 -6.72923,19.21549 -4.5625,24.25 1.29404,3.00678 3.23497,4.07488 5.20394,4.59069 2.62609,0.68797 5.79679,0.40907 8.99723,-0.49303 1.16037,-0.42508 2.28588,-0.83742 3.41211,-1.25 2.56966,-0.91935 5.13598,-1.84807 7.69922,-2.78516 8.37511,-3.06426 18.14686,-8.1533 27,-4.8125 5.02737,2.38587 10.24712,3.68251 15.6875,4.75 11.0286,0.6783 16.00326,2.83262 23.89453,10.80078 1.98811,2.04813 4.02428,4.05129 6.11719,5.99219 l 2.86328,2.45703 2.49219,2.20313 c 3.52398,2.07047 8.11467,2.1312 9.63281,1.54687 1.64292,-0.63236 4.88763,-3.07766 7.78125,-14.22851 0.83745,-3.43316 1.68729,-6.86148 2.57031,-10.28321 2.66798,-6.80222 2.66798,-6.80222 9.39844,-10.17578 2.30284,-1.70432 1.74851,-1.31996 4.2653,-3.50438 1.20152,-1.16321 2.43347,-2.54575 3.60579,-3.46046 8.49475,-4.41227 8.49475,-4.41227 18.4043,-4.26953 3.54414,0.0314 7.08857,0.0389 10.63281,0.0234 2.56544,-0.0157 2.56544,-0.0158 5.08008,-0.0312 3.62061,0.0186 6.99274,0.56417 10.26172,-1.07032 2.91088,-2.82526 4.10442,-4.69595 4.49379,-8.61548 0.0136,-4.74028 -0.72014,-5.82493 -7.49379,-15.38452 -6.02483,-7.9794 -12.08488,-15.4145 -14.08203,-25.42187 -0.24793,-7.77224 -0.32129,-12.55637 4.21094,-19.08594 2.56237,-2.97349 5.05692,-6.00691 7.47656,-9.09766 1.80892,-2.31392 1.80893,-2.31392 3.58203,-4.58203 l 3.60547,-4.60547 3.20703,-4.20703 c 2.42578,-3.17578 2.42578,-3.17578 4,-6 0,-6 -1.20554,-8.23695 -3,-10 -2.01292,-1.82466 -6.485,-3.35839 -8.68555,-3.30468 -1.44442,0.0255 -2.84611,0.0495 -4.24804,0.0742 -3.168,10e-4 -6.33602,0.0162 -9.50391,0.043 -3.16481,0.0651 -6.33063,0.094 -9.49609,0.082 -5.94411,-0.29183 -7.32701,-0.13879 -11.60157,-4.50781 -0.83804,-1.49148 -1.65144,-2.9391 -2.46484,-4.38672 -5.49087,-3.73152 -8.61518,-5.2991 -10.11328,-11.92578 0.005,-1.90462 0.0104,-3.75296 0.0156,-5.60156 -0.0294,-3.07723 -0.0472,-6.14934 -0.008,-9.22656 0.0293,-2.1346 0.0421,-4.2695 0.0391,-6.4043 -0.0332,-6.28176 -0.0133,-12.56022 0.0664,-18.8418 l 4,-1 c 7.19414,-5.12582 7.19414,-5.12582 14.55469,-21.46484 0.81194,-1.84645 1.6269,-3.69157 2.44531,-5.53516 4.08041,-8.6037 7.41588,-15.71689 7.25,-25.375 -0.34672,-3.53295 -0.34672,-3.53295 -0.25,-6.625 7.06006,-7.06005 9.94909,-13.88269 12.37109,-23.43359 l 1.00391,-4.19141 c 3.03295,-11.63551 5.69673,-23.40524 2.60352,-35.30664 -0.49391,-1.54927 -0.4944,-1.54976 -0.97852,-3.06836 4.57521,-4.57521 5.94515,-7.8969 8,-14 2.00248,-12.82724 6.35363,-35.30369 -0.0859,-46.687497 -2.21789,-3.114615 -2.21789,-3.114614 -1.67187,-6.335937 0.75781,-2.976562 0.75781,-2.976562 0.89062,-6.265625 -0.003,-1.134219 -0.005,-2.235079 -0.008,-3.335938 0.026,-11.159605 -5.21447,-20.722047 -11.24609,-29.867187 -5.62113,-7.502626 -13.68426,-13.468883 -22.94141,-15.320313 -1.48344,-0.09469 -1.48344,-0.09469 -2.9375,-0.1875 -0.1875,-2.875 -0.1875,-2.875 -1,-7 C 601.95333,18.439929 595.52119,10.844646 585.36719,4.8496094 578.95054,1.5147597 572.31402,-0.03945428 565.87109,0 Z m 40.72266,53.408203 c 8.96487,1.792973 12.90181,6.541536 18,14 2.05504,4.513858 4,8.973329 4,14 -7.5,3 -7.5,3 -12,3 l -1.57422,-3.289062 -2.11328,-4.335938 -2.07422,-4.289062 c -2.06749,-4.129426 -2.06749,-4.129427 -5.07031,-7.296875 l -2.16797,-2.789063 c 1,-5 1,-5 3,-9 z m 15,52.999997 h 12 l -3,36 c -8,0 -8,0 -12,-1 0.42699,-11.79834 1.07885,-23.34501 3,-35 z m -8,64 c 8.625,0.875 8.625,0.875 12,2 -2.47722,11.38467 -5.10907,22.71309 -8,34 l -10,-2 c -1.00287,-5.01435 -0.77444,-7.02108 0.43359,-11.83203 l 0.9668,-3.91601 1.03711,-4.06446 1.02539,-4.12304 c 0.83637,-3.35728 1.68239,-6.71182 2.53711,-10.06446 z m -17,62 c 3.3633,0.89405 6.69849,1.8995 10,3 1.87264,5.61791 -2.36788,11.43842 -4.6875,16.625 l -1.64648,3.83594 -1.61524,3.64063 -1.47851,3.35546 c -1.57154,2.54444 -1.57227,2.54297 -5.57227,3.54297 -2.69786,-0.91251 -5.37108,-1.90461 -8,-3 1.32072,-4.13467 2.84285,-8.08737 4.60156,-12.05468 l 1.48438,-3.35938 1.53906,-3.46094 1.5625,-3.53125 c 1.26841,-2.86566 2.54013,-5.72985 3.8125,-8.59375 z"
       transform="translate(62.40625,26.591105)"
       style="fill:#383f3e;fill-opacity:1"
       sodipodi:nodetypes="scccccccccccccccccccccccccccccccccccccccccccccccccccccccccccccccccccccccccccccccccccccccccccscccccccsccccccccccsscccccccccscccccccccccccccccccccccccccccccccccccccccccccccccsccccccccccccccccccccccccccccccccccccc" />
    <path
       d="m 0,0 c 15.834401,8.0654626 22.885125,18.402483 29,35 4.325472,16.941431 -1.783521,33.40536 -10,48 -1.617914,2.696524 -3.255656,5.383484 -5,8 -0.66,-0.33 -1.32,-0.66 -2,-1 0.5775,-1.0725 1.155,-2.145 1.75,-3.25 C 17.110759,79.655065 20,72.910122 20,65 18.906875,66.588125 17.81375,68.17625 16.6875,69.8125 2.002337,89.936612 -18.128962,101.03224 -42,107 c -16.288765,0.76792 -29.315371,0.19117 -43,-9 0.45375,0.9075 0.9075,1.815 1.375,2.75 1.208333,2.41667 2.416667,4.83333 3.625,7.25 -10.797771,-6.32065 -16.474171,-16.51704 -20.875,-27.8125 -4.10373,-17.127528 -1.89558,-36.559072 7.210938,-51.699219 6.131059,-9.167804 11.800661,-12.94844 21.703125,-17.597656 C -62.684291,6.4627186 -54.767996,0.41876615 -46.75,-5.9609375 -34.133152,-15.316044 -12.433664,-6.0082134 0,0 Z"
       fill="#778489"
       id="path14"
       transform="translate(639,363)" />
    <path
       d="m 0,0 c 13.523426,4.0570277 22.129977,8.5395391 29.9375,20.5 2.307187,5.033862 2.420839,6.276032 1.0625,11.5 -1.800496,3.17296 -3.732018,6.273222 -5.75,9.3125 -3.274502,4.956111 -6.203067,9.582631 -8.632813,15.011719 C 13.586973,61.7379 11.484268,63.062086 5.875,65.5 4.4699219,66.129063 3.0648438,66.758125 1.6171875,67.40625 -0.17332031,68.195156 -0.17332031,68.195156 -2,69 c -1.485,0.99 -1.485,0.99 -3,2 -5.643872,0.115181 -10.357049,-2.001327 -14.886719,-5.328125 C -24.481205,59.86295 -23.764945,52.101145 -24,45 c -0.193359,-1.046719 -0.386719,-2.093438 -0.585937,-3.171875 -0.993863,-6.638252 1.29676,-10.413812 5.143798,-15.822754 C -16.383662,21.928727 -13.201115,17.966013 -10,14 -8.2183153,11.654035 -6.4454296,9.3013179 -4.6875,6.9375 -3.9901172,6.0183984 -3.2927344,5.0992969 -2.5742188,4.1523437 -0.97874716,2.0967062 -0.97874716,2.0967062 0,0 Z"
       fill="#e6a03d"
       id="path22"
       transform="translate(415,381)" />
    <path
       d="m 0,0 c 7.3583178,2.5594149 11.519337,7.0386739 15,14 0.436604,7.858873 0.59033,13.291056 -4,20 -7.0614971,5.822638 -11.84181422,6.590851 -21,6 -6.939777,-3.421017 -10.58867,-7.177341 -14,-14 -0.636218,-6.140243 -0.94421,-11.971696 1.6875,-17.625 C -15.342573,1.2166965 -10.150331,-0.66197809 0,0 Z"
       fill="#393f3e"
       id="path24"
       transform="translate(582,413)" />
    <path
       id="path12"
       d="m 310.23047,288.0332 c -11.08,0 -20,8.92 -20,20 v 171.07618 c 0,11.07999 8.92,20 20,20 h 45.02148 C 348.82791,494.05846 343.28832,488.27777 339,481 c -4.85546,-9.8323 -6.25907,-21.56314 -3.02344,-32.21484 2.08586,-4.94504 3.07753,-7.42004 2.27344,-12.84766 -2.19804,-9.31488 -3.30298,-19.77451 1,-28.5 3.75,-4.4375 3.75,-4.43749 6.32812,-8.08203 2.00238,-2.89916 4.02565,-5.78397 6.06641,-8.65625 L 355,386 c 10.39312,-14.67989 20.30781,-30.44541 39.33594,-33.75391 6.54657,-0.89578 11.24053,-0.87432 16.10156,-5.55859 2.32799,-4.47471 2.32799,-4.47471 4.59375,-7.55078 l 2.40625,-3.26172 c 2.44491,-3.49701 4.88169,-6.98965 7.48242,-10.37305 1.396,-1.80643 2.77335,-3.62634 4.13477,-5.45898 L 431.125,317.25 c 4.12232,-5.14173 6.7351,-9.04952 7.16016,-15.78125 l -0.10157,-4.84961 c -0.0159,-0.97263 -0.0246,-5.07487 -0.0273,-8.58594 z"
       style="fill:#8e9594;fill-opacity:1" />
    <path
       d="m 0,0 c 4.7108443,0.70311109 7.3734545,1.7831622 11.1875,4.625 2.0625,2.9375 2.0625,2.9375 3,6 -2.154768,5.386921 -4.9873892,10.072594 -8,15 -1.5223213,2.540776 -3.0430731,5.082492 -4.5625,7.625 -3.0941122,5.158596 -6.2212538,10.291256 -9.4375,15.375 -5.164569,-2.065827 -10.026707,-4.513354 -15,-7 -1.65,-0.66 -3.3,-1.32 -5,-2 1.060177,-4.240709 2.549986,-6.674583 4.9375,-10.3125 0.806953,-1.233633 1.613906,-2.467266 2.445313,-3.738281 C -16.237609,19.24856 -12.037067,12.929016 -7.8125,6.625 -6.7954297,4.9427734 -6.7954297,4.9427734 -5.7578125,3.2265625 -3.8125,0.625 -3.8125,0.625 0,0 Z"
       fill="#976649"
       id="path26"
       transform="translate(522.8125,235.375)" />
    <path
       d="M 0,0 C 5.0501889,3.5233876 7.4125903,7.1877257 9.6875,12.875 10.076949,18.002745 10.322362,21.605277 8,26.25 3.681925,31.151599 0.62606693,33.744016 -5.9375,34.1875 -11.763108,33.848802 -14.551994,33.207354 -19.3125,29.875 -22.991439,24.94785 -25.093266,21.349846 -26,15.25 -24.950685,8.5725405 -22.432414,4.5376777 -17.125,0.375 -11.245098,-1.9384041 -5.9932032,-2.0354275 0,0 Z"
       fill="#383e3d"
       id="path28"
       transform="translate(641.3125,379.125)" />
    <path
       d="m 0,0 c 5.0944734,0.83515957 8.5242993,2.7872201 12.8125,5.625 3,5 3,5 3,10 -1.46875,2.402344 -1.46875,2.402344 -3.5,4.9375 -4.8404936,6.327217 -8.6723653,13.089283 -12.5,20.0625 -0.66,0 -1.32,0 -2,0 C -2.7662891,39.867031 -3.3450781,39.109062 -3.9414063,38.328125 -6.4613474,35.295431 -8.5895081,34.069183 -12.125,32.375 -13.144648,31.874844 -14.164297,31.374687 -15.214844,30.859375 -18.44632,29.4043 -18.44632,29.4043 -23.1875,28.625 c 4.181051,-8.362103 10.217822,-15.690454 16,-23 0.99,-1.5159375 0.99,-1.5159375 2,-3.0625 C -3.1875,0.625 -3.1875,0.625 0,0 Z"
       fill="#778489"
       id="path30"
       transform="translate(473.1875,310.375)" />
    <path
       d="m 0,0 c 8.6757774,1.652529 12.685059,5.8388933 17.9375,12.75 0.0717,5.664414 -2.997056,9.626149 -6,14.25 -0.9075,1.407656 -1.815,2.815312 -2.75,4.265625 -1.11375,1.724766 -1.11375,1.724766 -2.25,3.484375 -0.33,0.66 -0.66,1.32 -1,2 -5,-2 -5,-2 -8.5,-4.3125 -5.5929599,-3.34024 -11.383895,-5.496517 -17.5,-7.6875 1.101055,-5.505273 3.255812,-8.127439 6.820312,-12.351562 2.197203,-2.5884423 2.197203,-2.5884423 3.9843755,-5.2968755 C -6.4349725,2.9778746 -5.0289359,0.92841893 0,0 Z"
       fill="#78858a"
       id="path32"
       transform="translate(449.0625,344.25)" />
    <path
       d="m 0,0 c 8.0325179,4.1727365 13.815733,9.8842941 16.8125,18.5 0.709758,6.648881 1.191624,13.411168 -3,19 -0.99,0.33 -1.98,0.66 -3,1 C 10.304609,37.426211 9.7967188,36.352422 9.2734375,35.246094 2.1574905,20.425016 2.1574905,20.425016 -11.1875,11.5 c -6.211636,-2.0705453 -11.910018,-1.029994 -18,1 0.110071,-4.6230001 0.901142,-5.9011424 4.25,-9.25 C -16.895341,-2.6475832 -9.4076163,-2.7202746 0,0 Z"
       fill="#e8a33c"
       id="path34"
       transform="translate(637.1875,44.5)" />
    <path
       d="M 0,0 C 8.9053561,-1.1085505 14.940444,-0.87501474 22.25,4.6875 27.697722,9.2611474 31.254722,14.018888 33,21 31.718426,27.407872 28.961276,28.983729 24,33 20,29 20,29 17.125,24.9375 11.284952,17.579039 4.9182531,17.288192 -4,16 -4.5335206,9.7311335 -2.7496311,5.5851881 0,0 Z"
       fill="#77848a"
       id="path36"
       transform="translate(369,449)" />
    <path
       d="m 0,0 c 13.676533,7.2290247 13.676533,7.2290247 16.375,14.3125 0.666221,4.347967 0.473828,7.498634 0,12 -2.875,3.75 -2.875,3.75 -6,6 -0.66,0 -1.32,0 -2,0 -0.37125,-1.32 -0.7425,-2.64 -1.125,-4 C 3.8121942,19.145018 -0.69386933,14.469837 -9.4335938,10.433594 -14.230329,8.7485716 -18.554767,8.4459272 -23.625,8.3125 c 1,-5 1,-5 3.375,-7.25 C -13.901419,-3.1698874 -6.9644261,-2.5410744 0,0 Z"
       fill="#e7a13c"
       id="path40"
       transform="translate(492.625,289.6875)" />
    <path
       d="m 0,0 c 4.5587552,0.44840215 7.0878968,1.7458683 10.8125,4.375 2,4 2,4 1,9 -1.551566,3.100351 -3.186122,6.159758 -4.875,9.1875 C 6.0532031,24.164805 5.1689062,25.767109 4.2578125,27.417969 1.8125,31.375 1.8125,31.375 -1.1875,33.375 -2.156875,32.42625 -3.12625,31.4775 -4.125,30.5 c -4.436115,-3.412396 -7.593157,-4.283563 -13.0625,-5.125 1.524494,-5.439671 4.119201,-9.909587 7,-14.75 C -9.300625,9.1245313 -8.41375,7.6240625 -7.5,6.078125 -3.9981081,0.47036566 -3.9981081,0.47036566 0,0 Z"
       fill="#976549"
       id="path42"
       transform="translate(559.1875,172.625)" />
    <path
       d="M -0.46612729,0.40032131 C 2.4638123,0.42523021 7.6145288,3.9528449 9,9 7.8120014,14.939993 5.0735063,19.24113 1.9375,24.3125 L 0.21679688,27.134766 C -1.1821909,29.427225 -2.5902219,31.714161 -4,34 L -6.6328125,31.644531 C -9.7854003,29.168543 -12.114448,27.925731 -15.875,26.6875 L -21,25 c 1.722415,-4.306039 3.623714,-8.001502 5.9375,-12 l 1.623717,-3.2246787 C -7.9591829,0.40032131 -7.9591829,0.40032131 -0.46612729,0.40032131 Z"
       fill="#966548"
       id="path44"
       transform="translate(545,204)"
       sodipodi:nodetypes="ccccccscccc" />
    <path
       d="M 0,0 C 5.3302106,-0.69524486 8.0043168,-0.67564217 12.5,2.375 16.467783,6.541172 16,6.6366849 16,13 c -1.898437,3.867187 -1.898437,3.867187 -4.375,7.875 -0.812109,1.338047 -1.624219,2.676094 -2.4609375,4.054687 C 8.4499219,25.942891 7.7357812,26.956094 7,28 6.34,28 5.68,28 5,28 4.236875,27.21625 3.47375,26.4325 2.6875,25.625 -1.3405022,21.690672 -5.5933028,20.754423 -11,20 -9.5054739,16.263685 -7.9793259,12.944365 -6.0625,9.4375 -5.3064648,8.0433789 -5.3064648,8.0433789 -4.5351562,6.6210937 -3,4 -3,4 0,0 Z"
       fill="#966548"
       id="path46"
       transform="translate(571,146)" />
    <path
       d="M 0,0 C 5.5197489,0.92718769 8.8790372,4.510847 12.762665,8.3944741 11.063818,11.509986 11.029594,11.621297 8.9645358,15.087634 5.490425,21.745303 4.3153506,23.697788 1.9765625,28.667969 c 0,0 -1.34010674,-0.286781 -1.93785447,-0.603716 -1.90173453,-1.00833 -2.35952603,-2.383258 -5.04932863,-4.025442 -3.4416013,-2.101175 -6.0967514,-2.836833 -10.0128174,-3.370842 1.800826,-4.502063 3.776455,-8.577754 6.1250005,-12.8125003 L -6.703125,3.7734375 C -4.0234375,0.66796875 -4.0234375,0.66796875 0,0 Z"
       fill="#976549"
       id="path50"
       transform="translate(605.02344,95.332031)"
       sodipodi:nodetypes="ccccascccc" />
    <path
       d="M 0,0 C 1.65,0.66 3.3,1.32 5,2 5,11.57 5,21.14 5,31 0.21257143,30.042514 -4.5474447,29.00021 -9.3125,27.9375 -10.938008,27.575273 -12.563516,27.213047 -14.238281,26.839844 -15.479648,26.562695 -16.721016,26.285547 -18,26 -14.934347,20.285018 -11.293551,15.300899 -7.3125,10.1875 -3.313166,5.3188797 -3.313166,5.3188797 0,0 Z"
       fill="#78858b"
       id="path52"
       transform="translate(636,319)" />
    <path
       d="m 0,0 c 5.5045138,0.42892316 7.1492286,1.3543363 10.8125,5.375 2.747904,3.316412 2.09425,4.988274 0.769531,8.007813 L 9.625,16.5 7.7070312,19.632812 C 5.8125,22.375 5.8125,22.375 2.8125,25.375 l -3,-3 -2.4554491,-1.845383 C -7.5231857,18.577522 -8.995735,17.839934 -14.1875,17.375 c 1.620003,-4.050008 3.222641,-7.135186 5.5625,-10.75 L -6.7460937,3.703125 C -4.539117,0.40648809 -4.539117,0.40648809 0,0 Z"
       fill="#966548"
       id="path58"
       transform="translate(589.1875,122.625)"
       sodipodi:nodetypes="cccccccccccc" />
    <path
       d="m 0,0 c -1.8339199,4.5847998 -3.5463886,7.2534203 -6.5625,11.0625 -4.310672,5.486878 -8.500057,11.044275 -12.625,16.671875 C -21,30 -21,30 -23,31 c -3.663515,0.366351 -7.330349,0.701307 -11,1 2.429849,-4.859698 5.584016,-9.030619 8.8125,-13.375 0.616816,-0.837891 1.233633,-1.675781 1.869141,-2.539063 C -10.933025,-0.65598148 -10.933025,-0.65598148 0,0 Z"
       fill="#e8a43c"
       id="path64"
       transform="translate(408,379)" />
    <path
       d="m 0,0 c 1.0618247,7.6982289 1.0992265,15.249306 1,23 -10.625,0.125 -10.625,0.125 -14,-1 -0.502074,-2.791294 -1.001602,-5.583047 -1.5,-8.375 -0.417656,-2.331914 -0.417656,-2.331914 -0.84375,-4.7109375 C -16,5 -16,5 -16,3 -10.366713,-0.08489509 -6.3322846,-1.5830711 0,0 Z"
       fill="#77848a"
       id="path68"
       transform="translate(383,418)" />
    <path
       d="M 0,0 C 6.2866421,0.87557689 9.8767592,2.9312013 14.4375,7.375 16,10 16,10 16.0625,12.875 14.713879,16.841532 12.563945,19.71289 10,23 6,21 6,21 3.75,18.9375 0.20708584,16.441356 -2.733713,16.28924 -7,16 -6.0399975,12.15999 -4.7298813,9.258491 -2.9375,5.75 -2.1157227,4.1335156 -2.1157227,4.1335156 -1.2773437,2.484375 -0.64505859,1.2546094 -0.64505859,1.2546094 0,0 Z"
       fill="#966448"
       id="path70"
       transform="translate(613,72)" />
    <path
       d="M 0,0 C 3,10.5 3,10.5 3,15 -7.375,19 -7.375,19 -13,19 -14.604069,14.187794 -15.026223,12.131116 -14,7 -4.4423077,0 -4.4423077,0 0,0 Z"
       fill="#778489"
       id="path72"
       transform="translate(429,450)" />
    <path
       d="m 0,0 c 6.93,0 13.86,0 21,0 -2.183302,3.638837 -4.246681,6.7273846 -6.875,10 -0.657422,0.825 -1.314844,1.65 -1.992187,2.5 C 9.878705,15.142177 7.4850972,17.575515 5,20 4.1635486,17.042547 3.3309236,14.084011 2.5,11.125 2.0359375,9.4775781 1.571875,7.8301562 1.09375,6.1328125 0,2 0,2 0,0 Z"
       fill="#778389"
       id="path74"
       transform="translate(675,386)" />
    <path
       d="M 0,0 C -0.58335057,6.3001861 -2.0766174,11.978976 -4,18 -6.3367663,16.004012 -8.6692393,14.002997 -11,12 -12.464375,10.7625 -13.92875,9.525 -15.4375,8.25 -16.613125,7.1775 -17.78875,6.105 -19,5 -19,4.34 -19,3.68 -19,3 -6.2857143,-0.42857143 -6.2857143,-0.42857143 0,0 Z"
       fill="#778489"
       id="path76"
       transform="translate(632,491)" />
    <path
       d="M 0,0 C 0.33,0 0.66,0 1,0 0.78756352,9.1007789 -2.1815359,15.26521 -6.4375,23.0625 -7.0362695,24.201387 -7.6350391,25.340273 -8.2519531,26.513672 -12.695004,34.847502 -12.695004,34.847502 -15,36 c -1.375859,-7.287751 -0.639783,-11.014001 3,-17.4375 0.825,-1.461797 1.65,-2.923594 2.5,-4.429687 C -6.5310848,9.2248246 -3.476461,4.562855 0,0 Z"
       fill="#e5a43c"
       id="path80"
       transform="translate(452,416)" />
    <path
       d="M 0,0 C 11,13.2 11,13.2 11,17 4.8918351,17.084836 -0.95462742,16.895611 -7,16 -4.8307467,10.576867 -2.4312499,5.3103617 0,0 Z"
       fill="#778489"
       id="path82"
       transform="translate(681,452)" />
    <path
       d="m 0,0 c 5.5109856,2.2043942 10.003551,4.8022726 15,8 0,0.66 0,1.32 0,2 C 9.72,12.31 4.44,14.62 -1,17 -0.67,11.39 -0.34,5.78 0,0 Z"
       fill="#778389"
       id="path84"
       transform="translate(562,348)" />
    <path
       d="M 0,0 C 2.75,2.5390625 2.75,2.5390625 5,5 2.7525255,6.150779 0.5019241,7.2954528 -1.75,8.4375 -3.6294531,9.3946289 -3.6294531,9.3946289 -5.546875,10.371094 -9,12 -9,12 -13,13 -13.38546,8.4515748 -13.574261,5.8613911 -11,2 -6.9948768,-0.67008216 -4.7265098,-0.73851715 0,0 Z"
       fill="#79878c"
       id="path86"
       transform="translate(579,422)" />
    <path
       d="M 0,0 C 1.32,1.32 2.64,2.64 4,4 3,6 3,6 -0.8125,7.375 -5.3495911,8.8117271 -5.3495911,8.8117271 -9,13 c -0.66,0 -1.32,0 -2,0 -0.75,-3.1875 -0.75,-3.1875 -1,-7 3.5911798,-5.69635421 5.1290624,-6 12,-6 z"
       fill="#78858b"
       id="path88"
       transform="translate(635,385)" />
    <path
       d="M 0,0 C 5.5082041,2.2032816 7.374917,4.4475702 11,9 9.0664322,9.6984826 7.127977,10.383448 5.1875,11.0625 4.1085547,11.445352 3.0296094,11.828203 1.9179687,12.222656 -1,13 -1,13 -4,12 -2.68,8.04 -1.36,4.08 0,0 Z"
       fill="#79868c"
       id="path90"
       transform="translate(543,479)" />
    <path
       d="M 0,0 C 0.08597678,2.6652803 0.080771,5.3345569 0,8 -0.66,8.66 -1.32,9.32 -2,10 -4.374728,8.0493306 -6.7075982,6.0467873 -9,4 -9,3.34 -9,2.68 -9,2 -4,0 -4,0 0,0 Z"
       fill="#768389"
       id="path96"
       transform="translate(526,410)" />
    <path
       d="M 0,0 C 0.33,0.66 0.66,1.32 1,2 2.546875,1.938125 2.546875,1.938125 4.125,1.875 7.8682963,1.9957515 10.537345,2.6487202 14,4 8.7930715,5.3017321 4.3030119,4.5681798 -1,4 -0.67,2.68 -0.34,1.36 0,0 Z"
       fill="#f1b03b"
       id="path108"
       transform="translate(470,294)" />
  </g>
</svg>
